<svg xmlns="http://www.w3.org/2000/svg" width="50" height="50" viewBox="0 0 50 50" xmlns:xlink="http://www.w3.org/1999/xlink">
  <defs>
    <polygon id="a" points="49.904 49.65 49.904 .094 0 .094 0 49.65 49.904 49.65"/>
  </defs>
  <g fill="none" fill-rule="evenodd">
    <g transform="translate(0 .256)">
      <mask id="b" fill="white">
        <use xlink:href="#a"/>
      </mask>
      <path fill="#ECECEC" d="M49.903644,24.871993 C49.903644,38.5566084 38.7322821,49.6503147 24.9518748,49.6503147 C11.1714675,49.6503147 0.000105629367,38.5566084 0.000105629367,24.871993 C0.000105629367,11.1873776 11.1714675,0.0936713287 24.9518748,0.0936713287 C38.7322821,0.0936713287 49.903644,11.1873776 49.903644,24.871993" mask="url(#b)"/>
    </g>
    <path fill="#B2DAED" d="M15.4767797,10.8536014 L35.6206522,10.8536014 C37.98675,10.8536014 39.9229363,12.775979 39.9229363,15.1263287 L39.9229363,35.1294755 C39.9229363,37.4798252 37.98675,39.4022028 35.6206522,39.4022028 L15.4767797,39.4022028 C13.1103298,39.4022028 11.1741435,37.4798252 11.1741435,35.1294755 L11.1741435,15.1263287 C11.1741435,12.775979 13.1103298,10.8536014 15.4767797,10.8536014"/>
    <path fill="#7AB2CC" d="M16.0585863,12.2677972 L35.0384231,12.2677972 C36.9418643,12.2677972 38.4984891,13.813951 38.4984891,15.7038112 L38.4984891,34.5520629 C38.4984891,36.4415734 36.9418643,37.9880769 35.0384231,37.9880769 L16.0585863,37.9880769 C14.1554972,37.9880769 12.5985203,36.4415734 12.5985203,34.5520629 L12.5985203,15.7038112 C12.5985203,13.813951 14.1554972,12.2677972 16.0585863,12.2677972"/>
    <path fill="#68A2BD" d="M16.0586567,11.8995105 L25.5487511,11.8995105 L25.5487511,12.6358741 L16.0586567,12.6358741 C15.2093966,12.6358741 14.4372459,12.9813287 13.8770581,13.5372727 C13.3168704,14.0939161 12.9693498,14.8606993 12.9693498,15.7040559 L12.9693498,34.551958 C12.9693498,35.3953147 13.3168704,36.1620979 13.8770581,36.7183916 C14.4372459,37.2746853 15.2093966,37.6197902 16.0586567,37.6197902 L25.5487511,37.6197902 L25.5487511,38.3561538 L16.0586567,38.3561538 C15.0048277,38.3561538 14.0467693,37.9285315 13.3527844,37.239021 C12.6584473,36.5498601 12.2274795,35.5984615 12.2274795,34.551958 L12.2274795,15.7040559 C12.2274795,14.6572028 12.6584473,13.7061538 13.3527844,13.0166434 C14.0467693,12.3274825 15.0048277,11.8995105 16.0586567,11.8995105 L16.0586567,11.8995105 Z M25.5487511,11.8995105 L35.0384935,11.8995105 C36.0923225,11.8995105 37.0503809,12.3274825 37.7447179,13.0166434 C38.4387029,13.7061538 38.8693186,14.6572028 38.8693186,15.7040559 L38.8693186,34.551958 C38.8693186,35.5984615 38.4387029,36.5498601 37.7447179,37.239021 C37.0503809,37.9285315 36.0923225,38.3561538 35.0384935,38.3561538 L25.5487511,38.3561538 L25.5487511,37.6197902 L35.0384935,37.6197902 C35.8881057,37.6197902 36.6599043,37.2743357 37.2200921,36.7183916 C37.7802798,36.1620979 38.1278004,35.3953147 38.1278004,34.551958 L38.1278004,15.7040559 C38.1278004,14.8606993 37.7802798,14.0939161 37.2200921,13.5372727 C36.6599043,12.9813287 35.8881057,12.6358741 35.0384935,12.6358741 L25.5487511,12.6358741 L25.5487511,11.8995105 Z"/>
    <path fill="#68A2BD" d="M23.3523293,31.3493357 C22.7333412,31.0416434 22.171393,30.6370979 21.6869063,30.155979 C20.5274479,29.0045804 19.8102245,27.414021 19.8102245,25.657028 C19.8102245,23.900035 20.5274479,22.3094755 21.6869063,21.1580769 C22.171393,20.676958 22.7333412,20.2724126 23.3523293,19.9643706 L23.3523293,21.4287063 C23.0776929,21.6122727 22.8220699,21.8220629 22.588629,22.0535315 C21.8020423,22.8353497 21.2689661,23.8696154 21.124958,25.0234615 L23.3523293,25.0234615 L23.3523293,26.2902448 L21.124958,26.2902448 C21.2689661,27.4444406 21.8020423,28.4787063 22.588629,29.2601748 C22.8220699,29.491993 23.0776929,29.7014336 23.3523293,29.8853497 L23.3523293,31.3493357 Z M26.2173498,19.2944406 C27.2472362,19.2944406 28.2204347,19.5356993 29.0823704,19.9643706 L29.0823704,21.4287063 C28.4306372,20.9923427 27.6729225,20.7007343 26.8549991,20.600035 L26.8549991,25.0234615 L29.0823704,25.0234615 L29.0823704,26.2902448 L26.8549991,26.2902448 L26.8549991,30.7136713 C27.6729225,30.612972 28.4306372,30.3213636 29.0823704,29.8853497 L29.0823704,31.3493357 C28.2204347,31.778007 27.2472362,32.0196154 26.2173498,32.0196154 C25.1878156,32.0196154 24.214617,31.7783566 23.3523293,31.3493357 L23.3523293,29.8853497 C24.0040625,30.3213636 24.7617772,30.612972 25.5797006,30.7136713 L25.5797006,26.2902448 L23.3523293,26.2902448 L23.3523293,25.0234615 L25.5797006,25.0234615 L25.5797006,20.600035 C24.7617772,20.7007343 24.0040625,20.9923427 23.3523293,21.4287063 L23.3523293,19.9643706 C24.214617,19.5356993 25.1878156,19.2944406 26.2173498,19.2944406 L26.2173498,19.2944406 Z M29.0823704,19.9643706 C29.7017106,20.2724126 30.2633067,20.676958 30.7477934,21.1580769 C31.9068997,22.3094755 32.6244752,23.900035 32.6244752,25.657028 C32.6244752,27.414021 31.9068997,29.0045804 30.7477934,30.1556294 C30.2633067,30.6370979 29.7017106,31.0416434 29.0823704,31.3493357 L29.0823704,29.8853497 C29.3570067,29.7014336 29.6126298,29.491993 29.8460707,29.2601748 C30.6330095,28.4787063 31.1653815,27.4444406 31.3093895,26.2902448 L29.0823704,26.2902448 L29.0823704,25.0234615 L31.3093895,25.0234615 C31.1653815,23.8696154 30.6330095,22.8353497 29.8460707,22.0535315 C29.6126298,21.8220629 29.3570067,21.6122727 29.0823704,21.4287063 L29.0823704,19.9643706 Z"/>
    <path fill="#B2DAED" d="M22.6836954,30.8203497 C22.0647073,30.5123077 21.5027591,30.1081119 21.0179203,29.6266434 C19.858814,28.4755944 19.1415906,26.885035 19.1415906,25.1276923 C19.1415906,23.371049 19.858814,21.7801399 21.0179203,20.6287413 C21.5027591,20.1476224 22.0647073,19.7434266 22.6836954,19.4353846 L22.6836954,20.8997203 C22.409059,21.0832867 22.153436,21.2927273 21.9199951,21.5245455 C21.1330563,22.306014 20.6006843,23.3402797 20.4563241,24.4944755 L22.6836954,24.4944755 L22.6836954,25.7612587 L20.4563241,25.7612587 C20.6006843,26.9151049 21.1330563,27.9497203 21.9199951,28.7311888 C22.153436,28.963007 22.409059,29.1724476 22.6836954,29.3563636 L22.6836954,30.8203497 Z M25.5487159,18.7654545 C26.5786023,18.7654545 27.5518008,19.0067133 28.4137365,19.4353846 L28.4137365,20.8997203 C27.7620033,20.4633566 27.0039365,20.1717483 26.1863652,20.071049 L26.1863652,24.4944755 L28.4137365,24.4944755 L28.4137365,25.7612587 L26.1863652,25.7612587 L26.1863652,30.1846853 C27.0039365,30.083986 27.7620033,29.7923776 28.4137365,29.356014 L28.4137365,30.82 C27.5518008,31.249021 26.5786023,31.4902797 25.5487159,31.4902797 C24.5191817,31.4902797 23.5459831,31.249021 22.6836954,30.8203497 L22.6836954,29.3563636 C23.3354286,29.7923776 24.0931433,30.083986 24.9107146,30.1846853 L24.9107146,25.7612587 L22.6836954,25.7612587 L22.6836954,24.4944755 L24.9107146,24.4944755 L24.9107146,20.071049 C24.0931433,20.1717483 23.3354286,20.4633566 22.6836954,20.8997203 L22.6836954,19.4353846 C23.5459831,19.0067133 24.5188296,18.7654545 25.5487159,18.7654545 L25.5487159,18.7654545 Z M28.4137365,19.4353846 C29.0327246,19.7434266 29.5946728,20.1476224 30.0791595,20.6287413 C31.2382658,21.7804895 31.9558413,23.371049 31.9558413,25.1276923 C31.9558413,26.8846853 31.2382658,28.4755944 30.0791595,29.6266434 C29.5946728,30.1081119 29.0327246,30.5123077 28.4137365,30.82 L28.4137365,29.356014 C28.6883728,29.1724476 28.9439959,28.9626573 29.1774368,28.7311888 C29.9643756,27.9497203 30.4967476,26.9151049 30.6407556,25.7612587 L28.4137365,25.7612587 L28.4137365,24.4944755 L30.6407556,24.4944755 C30.4967476,23.3402797 29.9643756,22.306014 29.1774368,21.5245455 C28.9439959,21.2927273 28.6883728,21.0832867 28.4137365,20.8997203 L28.4137365,19.4353846 Z"/>
    <path fill="#FFFFFF" d="M22.6625343,19.8089161 C22.1474151,20.0851399 21.6703225,20.4361888 21.2471008,20.8564685 C20.1027826,21.9931818 19.4654855,23.5201049 19.4654855,25.1277972 C19.4654855,26.7354895 20.1027826,28.2624126 21.2471008,29.3991259 C21.6703225,29.8194056 22.1474151,30.1708042 22.6625343,30.4466783 L22.6625343,29.726049 C22.3129011,29.5092657 21.9868585,29.2522727 21.6910962,28.9589161 C20.8326816,28.1061189 20.2844652,26.9977273 20.1348236,25.8008741 L20.089755,25.4393357 L22.6625343,25.4393357 L22.6625343,24.8162587 L20.089755,24.8162587 L20.1348236,24.4550699 C20.2844652,23.2578671 20.8326816,22.1494755 21.6910962,21.297028 C21.9868585,21.0033217 22.3129011,20.7466783 22.6625343,20.5298951 L22.6625343,19.8089161 Z M25.5486807,19.0872378 C24.528301,19.0872378 23.5403144,19.3386364 22.6625343,19.8089161 L22.6625343,20.5298951 C23.3287035,20.1166084 24.0807846,19.8491259 24.8712444,19.7515734 L25.2349615,19.7068182 L25.2349615,24.8162587 L22.6625343,24.8162587 L22.6625343,25.4393357 L25.2349615,25.4393357 L25.2349615,30.5487762 L24.8712444,30.504021 C24.0807846,30.4068182 23.3287035,30.138986 22.6625343,29.726049 L22.6625343,30.4466783 C23.5403144,30.9173077 24.528301,31.1687063 25.5486807,31.1687063 C26.5694125,31.1687063 27.5573992,30.9173077 28.4351792,30.4466783 L28.4351792,29.726049 C27.7686579,30.138986 27.0165768,30.4068182 26.2264692,30.504021 L25.8624,30.5487762 L25.8624,25.4393357 L28.4351792,25.4393357 L28.4351792,24.8162587 L25.8624,24.8162587 L25.8624,19.7068182 L26.2264692,19.7515734 C27.0165768,19.8491259 27.7686579,20.1166084 28.4351792,20.5298951 L28.4351792,19.8089161 C27.5573992,19.3386364 26.5694125,19.0872378 25.5486807,19.0872378 L25.5486807,19.0872378 Z M28.4351792,30.4466783 C28.9499464,30.1708042 29.427039,29.8194056 29.8499086,29.3991259 C30.9945788,28.2624126 31.631876,26.7354895 31.631876,25.1277972 C31.631876,23.5201049 30.9949309,21.9931818 29.8499086,20.8564685 C29.427039,20.4361888 28.9499464,20.0851399 28.4351792,19.8089161 L28.4351792,20.5298951 C28.7848124,20.7466783 29.1108551,21.0033217 29.4066173,21.297028 C30.2646799,22.1494755 30.8128963,23.2578671 30.9625379,24.4550699 L31.0076064,24.8162587 L28.4351792,24.8162587 L28.4351792,25.4393357 L31.0076064,25.4393357 L30.9625379,25.8008741 C30.8128963,26.9977273 30.2646799,28.1061189 29.4066173,28.9585664 C29.1108551,29.2522727 28.7848124,29.5089161 28.4351792,29.726049 L28.4351792,30.4466783 Z"/>
    <path fill="#7AB2CC" d="M10.6402574 16.3751049L14.0894084 16.3751049 14.0894084 20.7516783 10.6402574 20.7516783C10.2775966 20.7516783 9.98077809 20.4569231 9.98077809 20.0964336L9.98077809 17.03C9.98077809 16.6698601 10.2775966 16.3751049 10.6402574 16.3751049M10.6402574 29.5040909L14.0894084 29.5040909 14.0894084 33.8806643 10.6402574 33.8806643C10.2775966 33.8806643 9.98077809 33.5859091 9.98077809 33.2254196L9.98077809 30.158986C9.98077809 29.7988462 10.2775966 29.5040909 10.6402574 29.5040909"/>
    <path fill="#B2DAED" d="M10.9533077 16.8664336L13.6285475 16.8664336 13.6285475 20.2604895 10.9533077 20.2604895C10.6719815 20.2604895 10.4417094 20.0318182 10.4417094 19.7524476L10.4417094 17.3744755C10.4417094 17.0951049 10.6719815 16.8664336 10.9533077 16.8664336M10.9533077 29.9952448L13.6285475 29.9952448 13.6285475 33.3893007 10.9533077 33.3893007C10.6719815 33.3893007 10.4417094 33.160979 10.4417094 32.8816084L10.4417094 30.5032867C10.4417094 30.2239161 10.6719815 29.9952448 10.9533077 29.9952448M30.3406978 19.8523077C32.0307677 19.8523077 33.409583 18.4834266 33.409583 16.8051049 33.409583 15.1267832 32.0307677 13.7575524 30.3406978 13.7575524 28.6506279 13.7575524 27.2721647 15.1267832 27.2721647 16.8051049 27.2721647 18.4834266 28.6506279 19.8523077 30.3406978 19.8523077"/>
    <path fill="#FFFFFF"/>
    <path fill="#FFFFFF" d="M31.1573889,14.2741608 C31.1774585,14.2206643 31.236963,14.1926923 31.290834,14.2122727 C31.3450571,14.2318531 31.3728728,14.2909441 31.3535074,14.3447902 L29.5240068,19.3356993 C29.5042893,19.3895455 29.4444326,19.4175175 29.3905617,19.3979371 C29.3363386,19.3783566 29.3085229,19.3192657 29.3278882,19.2654196 L31.1573889,14.2741608 Z"/>
    <path fill="#FFFFFF" d="M31.3534018,19.2654545 C31.3731193,19.3193007 31.3449514,19.3783916 31.2907284,19.397972 C31.2368574,19.4175524 31.1773528,19.3895804 31.1572833,19.3357343 L29.3281347,14.3448252 C29.3084172,14.290979 29.336233,14.2318881 29.3908081,14.211958 C29.4446791,14.1927273 29.5045357,14.2203497 29.5239011,14.2741958 L31.3534018,19.2654545 Z"/>
    <path fill="#FFFFFF" d="M31.9801008,14.7042308 C32.016719,14.6601748 32.0825613,14.6545804 32.1265735,14.6912937 C32.1709379,14.7276573 32.1765714,14.7933916 32.1399533,14.8370979 L28.7017173,18.905979 C28.664395,18.9496853 28.5989048,18.9552797 28.5548925,18.9189161 C28.5105282,18.8822028 28.5048946,18.8168182 28.5415128,18.7727622 L31.9801008,14.7042308 Z"/>
    <path fill="#FFFFFF" d="M32.6047929,15.3876573 C32.6547908,15.3593357 32.7185205,15.3761189 32.7470404,15.4257692 C32.7755604,15.4750699 32.7583076,15.5383566 32.7086618,15.5666783 L28.0764619,18.2226224 C28.0268161,18.2509441 27.9630864,18.2338112 27.9345665,18.1841608 C27.9060465,18.1348601 27.9229472,18.0719231 27.972593,18.0432517 L32.6047929,15.3876573 Z"/>
    <path fill="#FFFFFF" d="M32.9564683,16.2418881 C33.013156,16.2320979 33.0673791,16.2695105 33.0775899,16.3258042 C33.0870966,16.3824476 33.04907,16.4359441 32.9923823,16.4460839 L27.7249978,17.3681119 C27.66831,17.3782517 27.6144391,17.3401399 27.6042282,17.2841958 C27.5943695,17.2279021 27.6323961,17.1740559 27.6890838,17.1642657 L32.9564683,16.2418881 Z"/>
    <path fill="#FFFFFF" d="M32.9924175,17.1643007 C33.0491052,17.1740909 33.0871318,17.2275874 33.0772731,17.2838811 C33.0674143,17.3401748 33.0131912,17.3782867 32.9565035,17.3681469 L27.689119,16.4457692 C27.6324313,16.435979 27.5944047,16.3821329 27.6042634,16.3258392 C27.6144743,16.2695455 27.6683452,16.2321329 27.725033,16.2415734 L32.9924175,17.1643007 Z"/>
    <path fill="#FFFFFF" d="M32.7090139,18.0435315 C32.7590118,18.0722028 32.7755604,18.1354895 32.7470404,18.1847902 C32.7181684,18.2340909 32.6544387,18.2512238 32.6044408,18.2225524 L27.9722409,15.5666084 C27.9225951,15.5379371 27.9056944,15.4746503 27.9345665,15.4253497 C27.9630864,15.3756993 28.0271682,15.3589161 28.076814,15.3875874 L32.7090139,18.0435315 Z"/>
    <path fill="#FFFFFF" d="M32.1397772,18.7731119 C32.1763954,18.8168182 32.1707618,18.8822028 32.1267496,18.9189161 C32.0827373,18.9552797 32.016895,18.9496853 31.9799248,18.905979 L28.5416889,14.8370979 C28.5047186,14.793042 28.5103521,14.7276573 28.5547165,14.6912937 C28.5990808,14.6545804 28.664571,14.6601748 28.7015413,14.7042308 L32.1397772,18.7731119 Z"/>
    <path fill="#7AB2CC" d="M30.3406978,18.9245455 C31.5163527,18.9245455 32.4751152,17.9724476 32.4751152,16.804965 C32.4751152,15.6374825 31.5163527,14.6853846 30.3406978,14.6853846 C29.165043,14.6853846 28.2062804,15.6374825 28.2062804,16.804965 C28.2062804,17.9724476 29.165043,18.9245455 30.3406978,18.9245455"/>
    <path fill="#FFFFFF" d="M31.1573889,14.2741608 C31.1774585,14.2206643 31.236963,14.1926923 31.290834,14.2122727 C31.3450571,14.2318531 31.3728728,14.2909441 31.3535074,14.3447902 L30.438405,16.8402448 C30.4190396,16.8940909 30.359183,16.9217133 30.305312,16.9021329 C30.2510889,16.8829021 30.2232732,16.8234615 30.2429907,16.769965 L31.1573889,14.2741608 Z"/>
    <path fill="#FFFFFF" d="M30.3406978,18.2601748 C31.1477062,18.2601748 31.8061292,17.6066783 31.8061292,16.8049301 C31.8061292,16.0035315 31.1477062,15.3496853 30.3406978,15.3496853 C29.5336895,15.3496853 28.8752664,16.0035315 28.8752664,16.8049301 C28.8752664,17.6066783 29.5336895,18.2601748 30.3406978,18.2601748"/>
  </g>
</svg>
