<svg xmlns="http://www.w3.org/2000/svg" width="50" height="50" viewBox="0 0 50 50" xmlns:xlink="http://www.w3.org/1999/xlink">
  <defs>
    <polygon id="a" points="0 50 50 50 50 0 0 0"/>
  </defs>
  <g fill="none" fill-rule="evenodd">
    <mask id="b" fill="white">
      <use xlink:href="#a"/>
    </mask>
    <circle cx="25" cy="25" r="25" fill="#EBEBEB" mask="url(#b)"/>
    <polygon fill="#F2E6CD" points="16.075 32.669 33.691 32.669 33.691 17.625 16.075 17.625" mask="url(#b)"/>
    <polygon fill="#F2E6CD" points="17.391 25.289 24.834 25.289 24.834 20.203 17.391 20.203" mask="url(#b)"/>
    <polygon fill="#183953" points="17.828 24.211 17.885 24.211 17.885 20.538 17.828 20.538" mask="url(#b)"/>
    <polygon fill="#183953" points="17.921 24.211 18.203 24.211 18.203 20.538 17.921 20.538" mask="url(#b)"/>
    <polygon fill="#183953" points="17.921 24.894 18.203 24.894 18.203 24.34 17.921 24.34" mask="url(#b)"/>
    <polygon fill="#183953" points="18.592 24.894 18.83 24.894 18.83 20.538 18.592 20.538" mask="url(#b)"/>
    <polygon fill="#183953" points="19.725 24.894 20.007 24.894 20.007 24.34 19.725 24.34" mask="url(#b)"/>
    <polygon fill="#183953" points="20.179 24.894 20.461 24.894 20.461 24.34 20.179 24.34" mask="url(#b)"/>
    <polygon fill="#183953" points="20.633 24.894 20.915 24.894 20.915 24.34 20.633 24.34" mask="url(#b)"/>
    <polygon fill="#183953" points="21.087 24.894 21.369 24.894 21.369 24.34 21.087 24.34" mask="url(#b)"/>
    <polygon fill="#183953" points="22.802 24.894 23.084 24.894 23.084 24.34 22.802 24.34" mask="url(#b)"/>
    <polygon fill="#183953" points="22.378 24.894 22.66 24.894 22.66 24.34 22.378 24.34" mask="url(#b)"/>
    <polygon fill="#183953" points="23.256 24.894 23.538 24.894 23.538 24.34 23.256 24.34" mask="url(#b)"/>
    <polygon fill="#183953" points="23.71 24.894 23.992 24.894 23.992 24.34 23.71 24.34" mask="url(#b)"/>
    <polygon fill="#183953" points="18.904 24.894 19.054 24.894 19.054 20.538 18.904 20.538" mask="url(#b)"/>
    <polygon fill="#183953" points="19.156 24.894 19.231 24.894 19.231 20.538 19.156 20.538" mask="url(#b)"/>
    <polygon fill="#183953" points="20.577 24.211 20.652 24.211 20.652 20.538 20.577 20.538" mask="url(#b)"/>
    <polygon fill="#183953" points="20.939 24.211 21.014 24.211 21.014 20.538 20.939 20.538" mask="url(#b)"/>
    <polygon fill="#183953" points="21.539 24.894 21.614 24.894 21.614 20.538 21.539 20.538" mask="url(#b)"/>
    <polygon fill="#183953" points="23.221 24.211 23.296 24.211 23.296 20.538 23.221 20.538" mask="url(#b)"/>
    <polygon fill="#183953" points="19.266 24.894 19.619 24.894 19.619 20.538 19.266 20.538" mask="url(#b)"/>
    <polygon fill="#183953" points="20.227 24.211 20.536 24.211 20.536 20.538 20.227 20.538" mask="url(#b)"/>
    <polygon fill="#183953" points="21.655 24.894 21.964 24.894 21.964 20.538 21.655 20.538" mask="url(#b)"/>
    <polygon fill="#183953" points="22.841 24.211 23.15 24.211 23.15 20.538 22.841 20.538" mask="url(#b)"/>
    <polygon fill="#183953" points="19.94 24.211 20.178 24.211 20.178 20.538 19.94 20.538" mask="url(#b)"/>
    <polygon fill="#183953" points="21.078 24.211 21.316 24.211 21.316 20.538 21.078 20.538" mask="url(#b)"/>
    <polygon fill="#183953" points="22.52 24.211 22.758 24.211 22.758 20.538 22.52 20.538" mask="url(#b)"/>
    <polygon fill="#183953" points="23.397 24.211 23.635 24.211 23.635 20.538 23.397 20.538" mask="url(#b)"/>
    <polygon fill="#183953" points="24.16 24.894 24.398 24.894 24.398 20.538 24.16 20.538" mask="url(#b)"/>
    <polygon fill="#183953" points="19.729 24.211 19.87 24.211 19.87 20.538 19.729 20.538" mask="url(#b)"/>
    <polygon fill="#183953" points="20.69 24.211 20.831 24.211 20.831 20.538 20.69 20.538" mask="url(#b)"/>
    <polygon fill="#183953" points="22.004 24.894 22.145 24.894 22.145 20.538 22.004 20.538" mask="url(#b)"/>
    <polygon fill="#183953" points="22.242 24.211 22.383 24.211 22.383 20.538 22.242 20.538" mask="url(#b)"/>
    <polygon fill="#183953" points="23.684 24.211 23.825 24.211 23.825 20.538 23.684 20.538" mask="url(#b)"/>
    <polygon fill="#183953" points="23.913 24.211 24.054 24.211 24.054 20.538 23.913 20.538" mask="url(#b)"/>
    <polygon fill="#183953" points="18.301 24.894 18.411 24.894 18.411 20.538 18.301 20.538" mask="url(#b)"/>
    <path fill="#183953" d="M20.2294 31.2915L20.6814 30.4955C20.7294 30.3615 20.6644 30.2075 20.5704 30.0645L20.3264 29.6745 19.6804 30.0785 20.1364 30.8215C20.2154 30.9315 20.2854 31.0965 20.2294 31.2915L20.2294 31.2915zM19.4854 31.7915L19.5124 31.5355 19.9234 31.5035C20.1174 31.4955 20.1694 31.2685 20.1634 31.1495 20.1564 31.0325 20.0774 30.8935 19.9964 30.7675L19.4814 30.7725 19.4674 30.5425 19.1004 31.1875 19.4854 31.7915zM19.4454 28.6845L18.5294 28.6755C18.3894 28.6975 18.2864 28.8295 18.2064 28.9805L17.9834 29.3835 18.6504 29.7525 19.0784 28.9935C19.1374 28.8705 19.2484 28.7295 19.4454 28.6845L19.4454 28.6845zM20.2434 29.0925L20.0064 29.1935 19.7784 28.8485C19.6774 28.6835 19.4544 28.7475 19.3534 28.8105 19.2544 28.8735 19.1714 29.0105 19.1004 29.1415L19.3544 29.5895 19.1594 29.7135 19.9014 29.7225 20.2434 29.0925zM17.5014 30.5765L17.9364 31.3815C18.0244 31.4935 18.1894 31.5205 18.3614 31.5165L18.8204 31.5165 18.8204 30.7535 17.9494 30.7475C17.8134 30.7555 17.6364 30.7275 17.5014 30.5765L17.5014 30.5765zM17.4714 29.6805L17.6744 29.8395 17.4834 30.2055C17.3874 30.3745 17.5524 30.5385 17.6564 30.5955 17.7594 30.6515 17.9194 30.6585 18.0684 30.6565L18.3374 30.2175 18.5404 30.3275 18.1874 29.6745 17.4714 29.6805zM32.4589 30.573C32.4509 29.721 31.7799 29.024 30.9369 28.977L30.9369 28.907C30.9369 28.858 30.8959 28.817 30.8459 28.817 30.7959 28.817 30.7559 28.858 30.7559 28.907L30.7559 28.977C29.9249 29.024 29.2609 29.7 29.2339 30.536 29.2229 30.577 29.2159 30.62 29.2159 30.664L29.3769 30.664C29.3769 30.638 29.3809 30.612 29.3869 30.588L29.3949 30.588 29.3949 30.563C29.4369 30.444 29.5499 30.359 29.6819 30.359 29.8509 30.359 29.9879 30.496 29.9879 30.664L30.1489 30.664C30.1489 30.496 30.2859 30.359 30.4539 30.359 30.6079 30.359 30.7349 30.473 30.7559 30.621L30.7559 31.436C30.7559 31.516 30.6909 31.58 30.6119 31.58 30.5329 31.58 30.4689 31.516 30.4689 31.436 30.4689 31.386 30.4279 31.346 30.3779 31.346 30.3279 31.346 30.2879 31.386 30.2879 31.436 30.2879 31.615 30.4329 31.761 30.6119 31.761 30.7909 31.761 30.9369 31.615 30.9369 31.436L30.9369 30.588 30.9299 30.588C30.9639 30.457 31.0839 30.359 31.2259 30.359 31.3939 30.359 31.5309 30.496 31.5309 30.664L31.6919 30.664C31.6919 30.654 31.6909 30.644 31.6909 30.634L31.6919 30.634C31.6919 30.466 31.8289 30.329 31.9969 30.329 32.1489 30.329 32.2749 30.441 32.2979 30.586L32.2979 30.588 32.2979 30.588C32.2999 30.603 32.3019 30.619 32.3019 30.634L32.4629 30.634C32.4629 30.613 32.4619 30.593 32.4589 30.573M28.4292 29.49L28.4292 28.786 26.5302 28.786 26.5302 29.49C26.5302 29.984 26.9082 30.39 27.3892 30.435L27.3892 31.612 26.7532 31.612 26.7532 31.792 28.2062 31.792 28.2062 31.612 27.5692 31.612 27.5692 30.435C28.0512 30.39 28.4292 29.984 28.4292 29.49" mask="url(#b)"/>
    <polygon fill="#183953" points="15.219 19.495 34.547 19.495 34.547 16.539 15.219 16.539" mask="url(#b)"/>
    <path fill="#EFC684" d="M21.7259,34.5343 C21.5219,34.5543 21.3109,34.5423 21.1069,34.5443 C20.8599,34.5473 20.6129,34.5423 20.3659,34.5353 C19.9069,34.5203 19.4499,34.4953 18.9919,34.4783 C19.0569,34.2993 19.0459,34.0863 18.9979,33.9053 C18.9249,33.6303 18.7649,33.3793 18.5779,33.1563 C18.8639,33.1023 19.1499,33.2293 19.4179,33.3153 C19.7299,33.4153 20.0479,33.4183 20.3729,33.4403 C20.6919,33.4613 21.0149,33.5113 21.2759,33.7113 C21.5199,33.8983 21.7429,34.2143 21.7259,34.5343" mask="url(#b)"/>
    <path fill="#EFC684" d="M21.8546,33.8165 C21.7866,33.8565 21.6996,33.8715 21.6236,33.8895 C21.5706,33.8195 21.5126,33.7535 21.4516,33.6935 C21.1946,33.4365 20.8376,33.3515 20.4876,33.3195 C20.1366,33.2885 19.7886,33.2995 19.4496,33.1905 C19.1346,33.0895 18.8186,32.9575 18.4846,33.0465 C18.4836,33.0465 18.4826,33.0465 18.4816,33.0475 C18.4176,32.9765 18.3516,32.9095 18.2856,32.8455 C18.2626,32.8245 18.2406,32.8025 18.2176,32.7815 C18.5316,32.7495 18.8476,32.7985 19.1576,32.8515 C19.5006,32.9105 19.8386,32.9565 20.1866,32.9735 C20.5346,32.9905 20.8946,33.0035 21.2236,33.1325 C21.5146,33.2455 21.8346,33.4825 21.8546,33.8165" mask="url(#b)"/>
    <path fill="#EFC684" d="M16.0074,32.786 C15.9974,32.774 15.9864,32.764 15.9834,32.756 C15.9254,32.694 15.8664,32.633 15.8054,32.572 L15.6534,32.423 C15.6524,32.42 15.6294,32.405 15.6284,32.401 C15.5444,32.323 15.4574,32.247 15.3694,32.174 L15.2734,32.098 C15.1894,32.033 15.1034,31.971 15.0154,31.912 C14.6134,31.645 14.1774,31.453 13.7134,31.325 C13.6334,31.303 13.6584,31.176 13.7384,31.198 C14.2544,31.34 14.7404,31.558 15.1784,31.868 C15.5114,32.104 15.8114,32.383 16.0904,32.681 C16.0954,32.686 16.1004,32.692 16.1064,32.698 C16.1464,32.742 16.1874,32.786 16.2274,32.832 C16.4944,33.131 16.7394,33.45 17.0154,33.742 C17.2924,34.037 17.6044,34.326 17.9834,34.484 C18.2784,34.606 18.7054,34.792 18.8894,34.439 C19.0674,34.097 18.8104,33.765 18.6214,33.47 C18.3704,33.076 18.0224,32.758 17.6674,32.458 C17.3154,32.162 17.0254,31.792 16.6894,31.476 C16.3714,31.179 16.1554,30.758 16.0164,30.34 C16.0144,30.336 16.2584,30.331 16.2564,30.325 C16.2564,30.323 16.5004,30.32 16.5004,30.318 L16.5004,30.316 L16.5004,30.311 C15.5004,29.57 15.9384,28.701 15.3584,28.152 C15.0524,27.863 14.5504,27.678 14.1904,27.469 C14.0134,27.366 13.7694,27.26 13.6134,27.127 C13.4584,26.994 13.2774,26.856 13.1264,26.72 C12.7724,26.402 12.3874,26.108 11.9374,25.939 C11.5084,25.778 11.0534,25.665 10.5974,25.613 C10.1404,25.56 9.6854,25.585 9.2284,25.601 C9.1994,25.602 9.1674,25.603 9.1384,25.604 L8.7114,28.697 C8.8394,28.709 8.9654,28.729 9.0904,28.758 C9.5424,28.862 9.9394,29.076 10.2814,29.389 C10.6284,29.706 10.9254,30.082 11.1984,30.464 C11.5024,30.892 11.7874,31.334 12.0774,31.771 C12.3664,32.206 12.6604,32.639 12.9884,33.047 C13.3054,33.44 13.6714,33.832 14.1184,34.079 C14.1224,34.082 14.1264,34.085 14.1304,34.087 C14.6714,34.19 15.2234,34.16 15.7704,34.13 C16.0434,34.115 16.3164,34.1 16.5894,34.101 C16.7994,34.102 17.0184,34.102 17.2284,34.138 C16.8564,33.806 16.5484,33.398 16.2234,33.022 L16.0074,32.786 Z" mask="url(#b)"/>
    <polygon fill="#FF645C" points="7.368 28.924 9.332 29.813 11.553 24.905 9.589 24.016" mask="url(#b)"/>
    <polygon fill="#ED402F" points="2.656 26.794 7.239 28.869 9.46 23.96 4.877 21.887" mask="url(#b)"/>
    <path fill="#EFC684" d="M28.5864,34.5343 C28.7904,34.5543 29.0014,34.5423 29.2064,34.5443 C29.4524,34.5473 29.6994,34.5423 29.9464,34.5353 C30.4054,34.5203 30.8624,34.4953 31.3214,34.4783 C31.2554,34.2993 31.2664,34.0863 31.3144,33.9053 C31.3874,33.6303 31.5474,33.3793 31.7354,33.1563 C31.4484,33.1023 31.1624,33.2293 30.8944,33.3153 C30.5824,33.4153 30.2644,33.4183 29.9404,33.4403 C29.6204,33.4613 29.2974,33.5113 29.0364,33.7113 C28.7924,33.8983 28.5694,34.2143 28.5864,34.5343" mask="url(#b)"/>
    <path fill="#EFC684" d="M28.4579 33.8165C28.5259 33.8565 28.6129 33.8715 28.6889 33.8895 28.7419 33.8195 28.7999 33.7535 28.8609 33.6935 29.1179 33.4365 29.4749 33.3515 29.8249 33.3195 30.1759 33.2885 30.5239 33.2995 30.8629 33.1905 31.1779 33.0895 31.4939 32.9575 31.8279 33.0465 31.8289 33.0465 31.8299 33.0465 31.8309 33.0475 31.8949 32.9765 31.9609 32.9095 32.0269 32.8455 32.0489 32.8245 32.0719 32.8025 32.0949 32.7815 31.7809 32.7495 31.4649 32.7985 31.1549 32.8515 30.8119 32.9105 30.4739 32.9565 30.1259 32.9735 29.7779 32.9905 29.4169 33.0035 29.0889 33.1325 28.7979 33.2455 28.4779 33.4825 28.4579 33.8165M34.3051 32.786C34.3151 32.774 34.3261 32.764 34.3291 32.756 34.3871 32.694 34.4461 32.633 34.5071 32.572L34.6591 32.423C34.6601 32.42 34.6831 32.405 34.6841 32.401 34.7681 32.323 34.8551 32.247 34.9431 32.174L35.0391 32.098C35.1231 32.033 35.2091 31.971 35.2971 31.912 35.6991 31.645 36.1351 31.453 36.5991 31.325 36.6791 31.303 36.6541 31.176 36.5741 31.198 36.0581 31.34 35.5721 31.558 35.1341 31.868 34.8011 32.104 34.5011 32.383 34.2221 32.681 34.2171 32.686 34.2121 32.692 34.2061 32.698 34.1661 32.742 34.1251 32.786 34.0851 32.832 33.8181 33.131 33.5731 33.45 33.2971 33.742 33.0201 34.037 32.7081 34.326 32.3291 34.484 32.0341 34.606 31.6071 34.792 31.4231 34.439 31.2451 34.097 31.5021 33.765 31.6911 33.47 31.9421 33.076 32.2891 32.758 32.6451 32.458 32.9971 32.162 33.2871 31.792 33.6231 31.476 33.9411 31.179 34.1571 30.758 34.2961 30.34 34.2981 30.336 34.3981 30.331 34.4001 30.325 34.4001 30.323 34.5001 30.32 34.5001 30.318L34.5001 30.316 34.5001 30.311C34.5001 29.57 34.7181 28.701 35.2981 28.152 35.6041 27.863 35.9341 27.678 36.2941 27.469 36.4711 27.366 36.6291 27.26 36.7851 27.127 36.9401 26.994 37.0781 26.856 37.2291 26.72 37.5831 26.402 37.9461 26.108 38.3961 25.939 38.8251 25.778 39.2701 25.665 39.7261 25.613 40.1821 25.56 40.6321 25.585 41.0901 25.601 41.1191 25.602 41.1471 25.603 41.1771 25.604L41.6021 28.697C41.4751 28.709 41.3481 28.729 41.2221 28.758 40.7711 28.862 40.3741 29.076 40.0321 29.389 39.6841 29.706 39.3871 30.082 39.1151 30.464 38.8101 30.892 38.5251 31.334 38.2351 31.771 37.9461 32.206 37.6521 32.639 37.3241 33.047 37.0071 33.44 36.6411 33.832 36.1941 34.079 36.1901 34.082 36.1861 34.085 36.1821 34.087 35.6411 34.19 35.0891 34.16 34.5421 34.13 34.2691 34.115 33.9961 34.1 33.7231 34.101 33.5131 34.102 33.2941 34.102 33.0841 34.138 33.4561 33.806 33.7641 33.398 34.0891 33.022L34.3051 32.786z" mask="url(#b)"/>
    <polygon fill="#295C7F" points="42.944 28.924 40.98 29.813 38.759 24.905 40.723 24.016" mask="url(#b)"/>
    <polygon fill="#183953" points="47.656 26.794 43.073 28.869 40.852 23.96 45.435 21.887" mask="url(#b)"/>
  </g>
</svg>
