<svg xmlns="http://www.w3.org/2000/svg" width="80" height="80" viewBox="0 0 80 80">
  <g fill="none" fill-rule="evenodd">
    <circle cx="40" cy="40" r="40" fill="#FFFFFF"/>
    <path fill="#22415B" d="M40,80 C17.9490909,80 0,62.0509091 0,40 C0,17.9490909 17.9490909,0 40,0 C62.0509091,0 80,17.9490909 80,40 C80,62.0509091 62.0509091,80 40,80 L40,80 Z M40,2.90909091 C19.5490909,2.90909091 2.90909091,19.5490909 2.90909091,40 C2.90909091,60.4509091 19.5490909,77.0909091 40,77.0909091 C60.4509091,77.0909091 77.0909091,60.4509091 77.0909091,40 C77.0909091,19.5490909 60.4509091,2.90909091 40,2.90909091 L40,2.90909091 Z"/>
    <g transform="translate(24.145 19.49)">
      <path fill="#FFFFFF" d="M24.4945455,33.7454545 C22.2836364,35.9563636 19.2290909,37.3236364 15.8545455,37.3236364 C12.48,37.3236364 9.42545455,35.9563636 7.21454545,33.7454545 C5.00363636,31.5345455 3.63636364,28.48 3.63636364,25.1054545 C3.63636364,21.7309091 5.00363636,18.6763636 7.21454545,16.4654545 C9.42545455,14.2545455 12.48,12.8872727 15.8545455,12.8872727 C19.2290909,12.8872727 22.2836364,14.2545455 24.4945455,16.4654545 C26.7054545,18.6763636 28.0727273,21.7309091 28.0727273,25.1054545 C28.0727273,28.48 26.7054545,31.5345455 24.4945455,33.7454545 L24.4945455,33.7454545 Z"/>
      <path fill="#22415B" d="M26.9963636,13.9345455 C24.1454545,11.0836364 20.1890909,9.30909091 15.8545455,9.30909091 C11.4909091,9.30909091 7.56363636,11.0836364 4.71272727,13.9345455 C1.86181818,16.7854545 0.0872727273,20.7418182 0.0872727273,25.0763636 C0.0872727273,29.44 1.86181818,33.3672727 4.71272727,36.2181818 C7.56363636,39.0690909 11.52,40.8436364 15.8545455,40.8436364 C20.2181818,40.8436364 24.1454545,39.0690909 26.9963636,36.2181818 C29.8472727,33.3672727 31.6218182,29.4109091 31.6218182,25.0763636 C31.6218182,20.7418182 29.8763636,16.8145455 26.9963636,13.9345455 L26.9963636,13.9345455 Z M24.4945455,33.7454545 C22.2836364,35.9563636 19.2290909,37.3236364 15.8545455,37.3236364 C12.48,37.3236364 9.42545455,35.9563636 7.21454545,33.7454545 C5.00363636,31.5345455 3.63636364,28.48 3.63636364,25.1054545 C3.63636364,21.7309091 5.00363636,18.6763636 7.21454545,16.4654545 C9.42545455,14.2545455 12.48,12.8872727 15.8545455,12.8872727 C19.2290909,12.8872727 22.2836364,14.2545455 24.4945455,16.4654545 C26.7054545,18.6763636 28.0727273,21.7309091 28.0727273,25.1054545 C28.0727273,28.48 26.7054545,31.5345455 24.4945455,33.7454545 L24.4945455,33.7454545 Z"/>
      <path fill="#E84131" d="M12.4218182,8.05818182 C13.5272727,7.82545455 14.6909091,7.68 15.8545455,7.68 C17.0472727,7.68 18.1818182,7.79636364 19.2872727,8.05818182 L22.2254545,4.59636364 L22.6327273,4.13090909 L22.2836364,3.60727273 L20.1890909,0.523636364 L19.9563636,0.174545455 L19.52,0.174545455 L15.9709091,0.174545455 L15.7672727,0.174545455 L12.2181818,0.174545455 L11.7818182,0.174545455 L11.5490909,0.523636364 L9.45454545,3.60727273 L9.10545455,4.13090909 L9.51272727,4.59636364 L12.4218182,8.05818182 L12.4218182,8.05818182 Z"/>
    </g>
  </g>
</svg>
