<svg xmlns="http://www.w3.org/2000/svg" width="204" height="60" viewBox="0 0 204 60" xmlns:xlink="http://www.w3.org/1999/xlink">
  <defs>
    <polygon id="a" points="0 60 60 60 60 0 0 0"/>
    <polygon id="c" points="0 60 60 60 60 0 0 0"/>
  </defs>
  <g fill="none" fill-rule="evenodd">
    <g transform="translate(144)">
      <mask id="b" fill="white">
        <use xlink:href="#a"/>
      </mask>
      <circle cx="30" cy="30" r="30" fill="#EBEBEB" mask="url(#b)"/>
      <polygon fill="#F2E6CD" points="19.29 39.203 40.429 39.203 40.429 21.15 19.29 21.15" mask="url(#b)"/>
      <polygon fill="#F2E6CD" points="20.869 30.347 29.801 30.347 29.801 24.244 20.869 24.244" mask="url(#b)"/>
      <polygon fill="#183953" points="21.394 29.053 21.462 29.053 21.462 24.646 21.394 24.646" mask="url(#b)"/>
      <polygon fill="#183953" points="21.505 29.053 21.844 29.053 21.844 24.646 21.505 24.646" mask="url(#b)"/>
      <polygon fill="#183953" points="21.505 29.873 21.844 29.873 21.844 29.208 21.505 29.208" mask="url(#b)"/>
      <polygon fill="#183953" points="22.31 29.873 22.596 29.873 22.596 24.646 22.31 24.646" mask="url(#b)"/>
      <polygon fill="#183953" points="23.67 29.873 24.008 29.873 24.008 29.208 23.67 29.208" mask="url(#b)"/>
      <polygon fill="#183953" points="24.215 29.873 24.553 29.873 24.553 29.208 24.215 29.208" mask="url(#b)"/>
      <polygon fill="#183953" points="24.76 29.873 25.098 29.873 25.098 29.208 24.76 29.208" mask="url(#b)"/>
      <polygon fill="#183953" points="25.304 29.873 25.643 29.873 25.643 29.208 25.304 29.208" mask="url(#b)"/>
      <polygon fill="#183953" points="27.362 29.873 27.701 29.873 27.701 29.208 27.362 29.208" mask="url(#b)"/>
      <polygon fill="#183953" points="26.854 29.873 27.192 29.873 27.192 29.208 26.854 29.208" mask="url(#b)"/>
      <polygon fill="#183953" points="27.907 29.873 28.246 29.873 28.246 29.208 27.907 29.208" mask="url(#b)"/>
      <polygon fill="#183953" points="28.452 29.873 28.79 29.873 28.79 29.208 28.452 29.208" mask="url(#b)"/>
      <polygon fill="#183953" points="22.685 29.873 22.865 29.873 22.865 24.646 22.685 24.646" mask="url(#b)"/>
      <polygon fill="#183953" points="22.987 29.873 23.077 29.873 23.077 24.646 22.987 24.646" mask="url(#b)"/>
      <polygon fill="#183953" points="24.692 29.053 24.782 29.053 24.782 24.646 24.692 24.646" mask="url(#b)"/>
      <polygon fill="#183953" points="25.127 29.053 25.217 29.053 25.217 24.646 25.127 24.646" mask="url(#b)"/>
      <polygon fill="#183953" points="25.847 29.873 25.937 29.873 25.937 24.646 25.847 24.646" mask="url(#b)"/>
      <polygon fill="#183953" points="27.865 29.053 27.955 29.053 27.955 24.646 27.865 24.646" mask="url(#b)"/>
      <polygon fill="#183953" points="23.119 29.873 23.543 29.873 23.543 24.646 23.119 24.646" mask="url(#b)"/>
      <polygon fill="#183953" points="24.272 29.053 24.643 29.053 24.643 24.646 24.272 24.646" mask="url(#b)"/>
      <polygon fill="#183953" points="25.986 29.873 26.357 29.873 26.357 24.646 25.986 24.646" mask="url(#b)"/>
      <polygon fill="#183953" points="27.409 29.053 27.78 29.053 27.78 24.646 27.409 24.646" mask="url(#b)"/>
      <polygon fill="#183953" points="23.928 29.053 24.214 29.053 24.214 24.646 23.928 24.646" mask="url(#b)"/>
      <polygon fill="#183953" points="25.294 29.053 25.579 29.053 25.579 24.646 25.294 24.646" mask="url(#b)"/>
      <polygon fill="#183953" points="27.024 29.053 27.31 29.053 27.31 24.646 27.024 24.646" mask="url(#b)"/>
      <polygon fill="#183953" points="28.076 29.053 28.362 29.053 28.362 24.646 28.076 24.646" mask="url(#b)"/>
      <polygon fill="#183953" points="28.992 29.873 29.278 29.873 29.278 24.646 28.992 24.646" mask="url(#b)"/>
      <polygon fill="#183953" points="23.675 29.053 23.844 29.053 23.844 24.646 23.675 24.646" mask="url(#b)"/>
      <polygon fill="#183953" points="24.828 29.053 24.997 29.053 24.997 24.646 24.828 24.646" mask="url(#b)"/>
      <polygon fill="#183953" points="26.405 29.873 26.574 29.873 26.574 24.646 26.405 24.646" mask="url(#b)"/>
      <polygon fill="#183953" points="26.69 29.053 26.86 29.053 26.86 24.646 26.69 24.646" mask="url(#b)"/>
      <polygon fill="#183953" points="28.421 29.053 28.59 29.053 28.59 24.646 28.421 24.646" mask="url(#b)"/>
      <polygon fill="#183953" points="28.696 29.053 28.865 29.053 28.865 24.646 28.696 24.646" mask="url(#b)"/>
      <polygon fill="#183953" points="21.961 29.873 22.093 29.873 22.093 24.646 21.961 24.646" mask="url(#b)"/>
      <path fill="#183953" d="M24.27528 37.5498L24.81768 36.5946C24.87528 36.4338 24.79728 36.249 24.68448 36.0774L24.39168 35.6094 23.61648 36.0942 24.16368 36.9858C24.25848 37.1178 24.34248 37.3158 24.27528 37.5498L24.27528 37.5498zM23.38248 38.1498L23.41488 37.8426 23.90808 37.8042C24.14088 37.7946 24.20328 37.5222 24.19608 37.3794 24.18768 37.239 24.09288 37.0722 23.99568 36.921L23.37768 36.927 23.36088 36.651 22.92048 37.425 23.38248 38.1498zM23.33448 34.4214L22.23528 34.4106C22.06728 34.437 21.94368 34.5954 21.84768 34.7766L21.58008 35.2602 22.38048 35.703 22.89408 34.7922C22.96488 34.6446 23.09808 34.4754 23.33448 34.4214L23.33448 34.4214zM24.29208 34.911L24.00768 35.0322 23.73408 34.6182C23.61288 34.4202 23.34528 34.497 23.22408 34.5726 23.10528 34.6482 23.00568 34.8126 22.92048 34.9698L23.22528 35.5074 22.99128 35.6562 23.88168 35.667 24.29208 34.911zM21.00168 36.6918L21.52368 37.6578C21.62928 37.7922 21.82728 37.8246 22.03368 37.8198L22.58448 37.8198 22.58448 36.9042 21.53928 36.897C21.37608 36.9066 21.16368 36.873 21.00168 36.6918L21.00168 36.6918zM20.96568 35.6166L21.20928 35.8074 20.98008 36.2466C20.86488 36.4494 21.06288 36.6462 21.18768 36.7146 21.31128 36.7818 21.50328 36.7902 21.68208 36.7878L22.00488 36.261 22.24848 36.393 21.82488 35.6094 20.96568 35.6166zM38.95068 36.6876C38.94108 35.6652 38.13588 34.8288 37.12428 34.7724L37.12428 34.6884C37.12428 34.6296 37.07508 34.5804 37.01508 34.5804 36.95508 34.5804 36.90708 34.6296 36.90708 34.6884L36.90708 34.7724C35.90988 34.8288 35.11308 35.64 35.08068 36.6432 35.06748 36.6924 35.05908 36.744 35.05908 36.7968L35.25228 36.7968C35.25228 36.7656 35.25708 36.7344 35.26428 36.7056L35.27388 36.7056 35.27388 36.6756C35.32428 36.5328 35.45988 36.4308 35.61828 36.4308 35.82108 36.4308 35.98548 36.5952 35.98548 36.7968L36.17868 36.7968C36.17868 36.5952 36.34308 36.4308 36.54468 36.4308 36.72948 36.4308 36.88188 36.5676 36.90708 36.7452L36.90708 37.7232C36.90708 37.8192 36.82908 37.896 36.73428 37.896 36.63948 37.896 36.56268 37.8192 36.56268 37.7232 36.56268 37.6632 36.51348 37.6152 36.45348 37.6152 36.39348 37.6152 36.34548 37.6632 36.34548 37.7232 36.34548 37.938 36.51948 38.1132 36.73428 38.1132 36.94908 38.1132 37.12428 37.938 37.12428 37.7232L37.12428 36.7056 37.11588 36.7056C37.15668 36.5484 37.30068 36.4308 37.47108 36.4308 37.67268 36.4308 37.83708 36.5952 37.83708 36.7968L38.03028 36.7968C38.03028 36.7848 38.02908 36.7728 38.02908 36.7608L38.03028 36.7608C38.03028 36.5592 38.19468 36.3948 38.39628 36.3948 38.57868 36.3948 38.72988 36.5292 38.75748 36.7032L38.75748 36.7056 38.75748 36.7056C38.75988 36.7236 38.76228 36.7428 38.76228 36.7608L38.95548 36.7608C38.95548 36.7356 38.95428 36.7116 38.95068 36.6876M34.11504 35.388L34.11504 34.5432 31.83624 34.5432 31.83624 35.388C31.83624 35.9808 32.28984 36.468 32.86704 36.522L32.86704 37.9344 32.10384 37.9344 32.10384 38.1504 33.84744 38.1504 33.84744 37.9344 33.08304 37.9344 33.08304 36.522C33.66144 36.468 34.11504 35.9808 34.11504 35.388" mask="url(#b)"/>
      <polygon fill="#183953" points="18.263 23.394 41.456 23.394 41.456 19.847 18.263 19.847" mask="url(#b)"/>
      <path fill="#EFC684" d="M26.07108,41.44116 C25.82628,41.46516 25.57308,41.45076 25.32828,41.45316 C25.03188,41.45676 24.73548,41.45076 24.43908,41.44236 C23.88828,41.42436 23.33988,41.39436 22.79028,41.37396 C22.86828,41.15916 22.85508,40.90356 22.79748,40.68636 C22.70988,40.35636 22.51788,40.05516 22.29348,39.78756 C22.63668,39.72276 22.97988,39.87516 23.30148,39.97836 C23.67588,40.09836 24.05748,40.10196 24.44748,40.12836 C24.83028,40.15356 25.21788,40.21356 25.53108,40.45356 C25.82388,40.67796 26.09148,41.05716 26.07108,41.44116" mask="url(#b)"/>
      <path fill="#EFC684" d="M26.22552,40.5798 C26.14392,40.6278 26.03952,40.6458 25.94832,40.6674 C25.88472,40.5834 25.81512,40.5042 25.74192,40.4322 C25.43352,40.1238 25.00512,40.0218 24.58512,39.9834 C24.16392,39.9462 23.74632,39.9594 23.33952,39.8286 C22.96152,39.7074 22.58232,39.549 22.18152,39.6558 C22.18032,39.6558 22.17912,39.6558 22.17792,39.657 C22.10112,39.5718 22.02192,39.4914 21.94272,39.4146 C21.91512,39.3894 21.88872,39.363 21.86112,39.3378 C22.23792,39.2994 22.61712,39.3582 22.98912,39.4218 C23.40072,39.4926 23.80632,39.5478 24.22392,39.5682 C24.64152,39.5886 25.07352,39.6042 25.46832,39.759 C25.81752,39.8946 26.20152,40.179 26.22552,40.5798" mask="url(#b)"/>
      <path fill="#EFC684" d="M19.20888,39.3432 C19.19688,39.3288 19.18368,39.3168 19.18008,39.3072 C19.11048,39.2328 19.03968,39.1596 18.96648,39.0864 L18.78408,38.9076 C18.78288,38.904 18.75528,38.886 18.75408,38.8812 C18.65328,38.7876 18.54888,38.6964 18.44328,38.6088 L18.32808,38.5176 C18.22728,38.4396 18.12408,38.3652 18.01848,38.2944 C17.53608,37.974 17.01288,37.7436 16.45608,37.59 C16.36008,37.5636 16.39008,37.4112 16.48608,37.4376 C17.10528,37.608 17.68848,37.8696 18.21408,38.2416 C18.61368,38.5248 18.97368,38.8596 19.30848,39.2172 C19.31448,39.2232 19.32048,39.2304 19.32768,39.2376 C19.37568,39.2904 19.42488,39.3432 19.47288,39.3984 C19.79328,39.7572 20.08728,40.14 20.41848,40.4904 C20.75088,40.8444 21.12528,41.1912 21.58008,41.3808 C21.93408,41.5272 22.44648,41.7504 22.66728,41.3268 C22.88088,40.9164 22.57248,40.518 22.34568,40.164 C22.04448,39.6912 21.62688,39.3096 21.20088,38.9496 C20.77848,38.5944 20.43048,38.1504 20.02728,37.7712 C19.64568,37.4148 19.38648,36.9096 19.21968,36.408 C19.21728,36.4032 19.51008,36.3972 19.50768,36.39 C19.50768,36.3876 19.80048,36.384 19.80048,36.3816 L19.80048,36.3792 L19.80048,36.3732 C18.60048,35.484 19.12608,34.4412 18.43008,33.7824 C18.06288,33.4356 17.46048,33.2136 17.02848,32.9628 C16.81608,32.8392 16.52328,32.712 16.33608,32.5524 C16.15008,32.3928 15.93288,32.2272 15.75168,32.064 C15.32688,31.6824 14.86488,31.3296 14.32488,31.1268 C13.81008,30.9336 13.26408,30.798 12.71688,30.7356 C12.16848,30.672 11.62248,30.702 11.07408,30.7212 C11.03928,30.7224 11.00088,30.7236 10.96608,30.7248 L10.45368,34.4364 C10.60728,34.4508 10.75848,34.4748 10.90848,34.5096 C11.45088,34.6344 11.92728,34.8912 12.33768,35.2668 C12.75408,35.6472 13.11048,36.0984 13.43808,36.5568 C13.80288,37.0704 14.14488,37.6008 14.49288,38.1252 C14.83968,38.6472 15.19248,39.1668 15.58608,39.6564 C15.96648,40.128 16.40568,40.5984 16.94208,40.8948 C16.94688,40.8984 16.95168,40.902 16.95648,40.9044 C17.60568,41.028 18.26808,40.992 18.92448,40.956 C19.25208,40.938 19.57968,40.92 19.90728,40.9212 C20.15928,40.9224 20.42208,40.9224 20.67408,40.9656 C20.22768,40.5672 19.85808,40.0776 19.46808,39.6264 L19.20888,39.3432 Z" mask="url(#b)"/>
      <polygon fill="#FF645C" points="8.842 34.709 11.199 35.776 13.864 29.886 11.507 28.82" mask="url(#b)"/>
      <polygon fill="#ED402F" points="3.187 32.153 8.687 34.642 11.352 28.753 5.853 26.264" mask="url(#b)"/>
      <path fill="#EFC684" d="M34.30368,41.44116 C34.54848,41.46516 34.80168,41.45076 35.04768,41.45316 C35.34288,41.45676 35.63928,41.45076 35.93568,41.44236 C36.48648,41.42436 37.03488,41.39436 37.58568,41.37396 C37.50648,41.15916 37.51968,40.90356 37.57728,40.68636 C37.66488,40.35636 37.85688,40.05516 38.08248,39.78756 C37.73808,39.72276 37.39488,39.87516 37.07328,39.97836 C36.69888,40.09836 36.31728,40.10196 35.92848,40.12836 C35.54448,40.15356 35.15688,40.21356 34.84368,40.45356 C34.55088,40.67796 34.28328,41.05716 34.30368,41.44116" mask="url(#b)"/>
      <path fill="#EFC684" d="M34.14948 40.5798C34.23108 40.6278 34.33548 40.6458 34.42668 40.6674 34.49028 40.5834 34.55988 40.5042 34.63308 40.4322 34.94148 40.1238 35.36988 40.0218 35.78988 39.9834 36.21108 39.9462 36.62868 39.9594 37.03548 39.8286 37.41348 39.7074 37.79268 39.549 38.19348 39.6558 38.19468 39.6558 38.19588 39.6558 38.19708 39.657 38.27388 39.5718 38.35308 39.4914 38.43228 39.4146 38.45868 39.3894 38.48628 39.363 38.51388 39.3378 38.13708 39.2994 37.75788 39.3582 37.38588 39.4218 36.97428 39.4926 36.56868 39.5478 36.15108 39.5682 35.73348 39.5886 35.30028 39.6042 34.90668 39.759 34.55748 39.8946 34.17348 40.179 34.14948 40.5798M41.16612 39.3432C41.17812 39.3288 41.19132 39.3168 41.19492 39.3072 41.26452 39.2328 41.33532 39.1596 41.40852 39.0864L41.59092 38.9076C41.59212 38.904 41.61972 38.886 41.62092 38.8812 41.72172 38.7876 41.82612 38.6964 41.93172 38.6088L42.04692 38.5176C42.14772 38.4396 42.25092 38.3652 42.35652 38.2944 42.83892 37.974 43.36212 37.7436 43.91892 37.59 44.01492 37.5636 43.98492 37.4112 43.88892 37.4376 43.26972 37.608 42.68652 37.8696 42.16092 38.2416 41.76132 38.5248 41.40132 38.8596 41.06652 39.2172 41.06052 39.2232 41.05452 39.2304 41.04732 39.2376 40.99932 39.2904 40.95012 39.3432 40.90212 39.3984 40.58172 39.7572 40.28772 40.14 39.95652 40.4904 39.62412 40.8444 39.24972 41.1912 38.79492 41.3808 38.44092 41.5272 37.92852 41.7504 37.70772 41.3268 37.49412 40.9164 37.80252 40.518 38.02932 40.164 38.33052 39.6912 38.74692 39.3096 39.17412 38.9496 39.59652 38.5944 39.94452 38.1504 40.34772 37.7712 40.72932 37.4148 40.98852 36.9096 41.15532 36.408 41.15772 36.4032 41.27772 36.3972 41.28012 36.39 41.28012 36.3876 41.40012 36.384 41.40012 36.3816L41.40012 36.3792 41.40012 36.3732C41.40012 35.484 41.66172 34.4412 42.35772 33.7824 42.72492 33.4356 43.12092 33.2136 43.55292 32.9628 43.76532 32.8392 43.95492 32.712 44.14212 32.5524 44.32812 32.3928 44.49372 32.2272 44.67492 32.064 45.09972 31.6824 45.53532 31.3296 46.07532 31.1268 46.59012 30.9336 47.12412 30.798 47.67132 30.7356 48.21852 30.672 48.75852 30.702 49.30812 30.7212 49.34292 30.7224 49.37652 30.7236 49.41252 30.7248L49.92252 34.4364C49.77012 34.4508 49.61772 34.4748 49.46652 34.5096 48.92532 34.6344 48.44892 34.8912 48.03852 35.2668 47.62092 35.6472 47.26452 36.0984 46.93812 36.5568 46.57212 37.0704 46.23012 37.6008 45.88212 38.1252 45.53532 38.6472 45.18252 39.1668 44.78892 39.6564 44.40852 40.128 43.96932 40.5984 43.43292 40.8948 43.42812 40.8984 43.42332 40.902 43.41852 40.9044 42.76932 41.028 42.10692 40.992 41.45052 40.956 41.12292 40.938 40.79532 40.92 40.46772 40.9212 40.21572 40.9224 39.95292 40.9224 39.70092 40.9656 40.14732 40.5672 40.51692 40.0776 40.90692 39.6264L41.16612 39.3432z" mask="url(#b)"/>
      <polygon fill="#295C7F" points="51.533 34.709 49.176 35.776 46.511 29.886 48.868 28.82" mask="url(#b)"/>
      <polygon fill="#183953" points="57.187 32.153 51.688 34.642 49.023 28.753 54.522 26.264" mask="url(#b)"/>
    </g>
    <g transform="translate(72)">
      <circle cx="30" cy="30" r="30" fill="#EBEBEB"/>
      <polygon fill="#323232" points="38.123 27.45 36.62 28.05 37.222 29.553 38.723 28.953"/>
      <path fill="#656E6B" d="M42.99576,43.014 C42.20376,43.014 41.55816,42.3684 41.55816,41.5764 C41.55816,40.7844 42.20376,40.1388 42.99576,40.1388 C43.78776,40.1388 44.43336,40.7844 44.43336,41.5764 C44.43336,42.3684 43.78776,43.014 42.99576,43.014"/>
      <path fill="#656E6B" d="M46.96824,41.57652 C46.96824,43.77012 45.18984,45.54852 42.99624,45.54852 L42.99624,45.54852 L42.99624,43.61652 L42.99624,43.61652 C44.12184,43.61652 45.03624,42.70332 45.03624,41.57652 C45.03624,40.44972 44.12184,39.53652 42.99624,39.53652 L42.99624,39.53652 L42.99624,37.60452 L42.99624,37.60452 C45.18984,37.60452 46.96824,39.38292 46.96824,41.57652 L46.96824,41.57652 Z M42.99624,39.53652 C41.86944,39.53652 40.95624,40.44972 40.95624,41.57652 C40.95624,42.70332 41.86944,43.61652 42.99624,43.61652 L42.99624,45.54852 C40.80144,45.54852 39.02304,43.77012 39.02304,41.57652 C39.02304,39.38292 40.80144,37.60452 42.99624,37.60452 L42.99624,39.53652 Z"/>
      <path fill="#323232" d="M45.65712,41.57652 C45.65712,43.04652 44.46552,44.23812 42.99552,44.23812 L42.99552,44.23812 L42.99552,43.61652 C44.12232,43.61652 45.03552,42.70332 45.03552,41.57652 C45.03552,40.44972 44.12232,39.53652 42.99552,39.53652 L42.99552,38.91492 L42.99552,38.91492 C44.46552,38.91492 45.65712,40.10652 45.65712,41.57652 L45.65712,41.57652 Z M42.99552,39.53652 C41.86872,39.53652 40.95552,40.44972 40.95552,41.57652 C40.95552,42.70332 41.86872,43.61652 42.99552,43.61652 L42.99552,44.23812 C41.52552,44.23812 40.33512,43.04652 40.33512,41.57652 C40.33512,40.10652 41.52552,38.91492 42.99552,38.91492 L42.99552,39.53652 Z"/>
      <polygon fill="#323232" points="40.942 40.221 40.785 40.492 42.682 41.587 40.795 42.677 40.952 42.948 42.848 41.854 42.848 44.033 43.162 44.033 43.162 41.843 45.049 42.933 45.206 42.66 43.31 41.566 45.196 40.476 45.04 40.204 43.143 41.299 43.143 39.12 42.83 39.12 42.83 41.31"/>
      <path fill="#656E6B" d="M42.0804,38.71464 L41.9052,38.80824 C41.868,38.82864 41.8536,38.87544 41.874,38.91264 L42.672,40.39944 C42.6924,40.43664 42.7392,40.45104 42.7776,40.43064 L42.9516,40.33704 C42.9888,40.31664 43.0032,40.26984 42.984,40.23264 L42.1848,38.74584 C42.1656,38.70864 42.1176,38.69424 42.0804,38.71464"/>
      <path fill="#F3AA1D" d="M42.55632,39.36504 L42.18312,39.56424 C42.10272,39.60744 42.07272,39.70824 42.11592,39.78864 L43.82112,42.96264 C43.86432,43.04304 43.96512,43.07424 44.04432,43.03104 L44.41752,42.83064 C44.49792,42.78864 44.52912,42.68784 44.48592,42.60744 L42.78072,39.43344 C42.73752,39.35304 42.63672,39.32184 42.55632,39.36504"/>
      <path fill="#F3761E" d="M43.15308,35.89284 C40.94628,35.89284 39.05988,37.26804 38.30628,39.20844 L47.99988,39.20844 C47.24628,37.26804 45.35988,35.89284 43.15308,35.89284"/>
      <path fill="#F3AA1D" d="M39.135,27.92328 C39.411,27.75888 39.591,27.78168 39.7842,27.97488 C41.7342,29.92128 43.0986,32.10168 43.5678,34.53048 L39.2442,40.26528 C38.7966,40.85808 38.109,41.42688 37.377,41.64528 L37.377,36.99288 L38.2566,34.57728 L37.377,32.34048 L37.377,28.75848 L39.135,27.92328 Z M37.5522,24.56688 L37.377,24.65808 L37.377,28.56768 L39.0558,27.76728 C39.2382,27.68088 39.3294,27.65328 39.3354,27.52008 C40.0494,26.54808 40.0506,25.62528 39.405,24.74448 L37.5522,24.56688 Z M36.321,29.65728 C36.2526,29.48328 36.3882,29.22888 36.5562,29.14848 L37.377,28.75848 L37.377,32.34048 L36.321,29.65728 Z M37.377,41.64528 C37.0926,41.73048 36.8034,41.76168 36.5178,41.72208 L28.8102,40.64088 C28.203,40.55568 27.6918,40.08768 27.2586,39.65328 L25.5198,37.91448 L15.7902,35.65848 C16.2414,33.34968 18.0582,31.19328 19.1226,31.34808 L30.9714,33.07368 L30.3606,35.32968 C30.0594,36.44448 30.4638,37.38888 31.3254,37.52208 L35.3898,38.14968 C36.0462,38.25168 37.0914,37.77648 37.3614,37.03488 L37.377,36.99288 L37.377,41.64528 Z M37.377,28.56768 L37.377,24.65808 L34.8726,25.97688 L35.9886,28.81128 C36.0558,28.98168 36.3474,29.05848 36.513,28.97928 L37.377,28.56768 Z"/>
      <path fill="#323232" d="M37.55196,24.5664 L39.40596,24.7452 C40.05036,25.6248 40.04916,26.5488 39.33516,27.5196 C38.59236,26.778 39.21996,25.6404 37.55196,24.5664"/>
      <path fill="#656E6B" d="M19.66404,43.014 C18.87204,43.014 18.22644,42.3684 18.22644,41.5764 C18.22644,40.7844 18.87204,40.1388 19.66404,40.1388 C20.45604,40.1388 21.10164,40.7844 21.10164,41.5764 C21.10164,42.3684 20.45604,43.014 19.66404,43.014"/>
      <path fill="#656E6B" d="M23.63652,41.57652 C23.63652,43.77012 21.85812,45.54852 19.66452,45.54852 L19.66452,43.61652 C20.79132,43.61652 21.70452,42.70332 21.70452,41.57652 C21.70452,40.44972 20.79132,39.53652 19.66452,39.53652 L19.66452,37.60452 C21.85812,37.60452 23.63652,39.38292 23.63652,41.57652 L23.63652,41.57652 Z M19.66452,39.53652 C18.53772,39.53652 17.62452,40.44972 17.62452,41.57652 C17.62452,42.70332 18.53772,43.61652 19.66452,43.61652 L19.66452,45.54852 C17.46972,45.54852 15.69132,43.77012 15.69132,41.57652 C15.69132,39.38292 17.46972,37.60452 19.66452,37.60452 L19.66452,39.53652 Z"/>
      <path fill="#323232" d="M22.32528,41.57652 C22.32528,43.04652 21.13368,44.23812 19.66368,44.23812 L19.66368,43.61652 C20.79048,43.61652 21.70368,42.70332 21.70368,41.57652 C21.70368,40.44972 20.79048,39.53652 19.66368,39.53652 L19.66368,38.91492 C21.13368,38.91492 22.32528,40.10652 22.32528,41.57652 L22.32528,41.57652 Z M19.66368,39.53652 C18.53688,39.53652 17.62368,40.44972 17.62368,41.57652 C17.62368,42.70332 18.53688,43.61652 19.66368,43.61652 L19.66368,44.23812 C18.19368,44.23812 17.00328,43.04652 17.00328,41.57652 C17.00328,40.10652 18.19368,38.91492 19.66368,38.91492 L19.66368,39.53652 Z"/>
      <polygon fill="#323232" points="17.61 40.221 17.453 40.492 19.35 41.587 17.463 42.677 17.62 42.948 19.516 41.854 19.516 44.033 19.83 44.033 19.83 41.843 21.717 42.933 21.874 42.66 19.978 41.566 21.864 40.476 21.708 40.204 19.811 41.299 19.811 39.12 19.498 39.12 19.498 41.31"/>
      <path fill="#323232" d="M39.23424,40.27776 L39.01104,40.67136 C38.51064,41.55216 37.54464,42.43176 36.51744,42.38376 L28.76064,42.02616 C28.14984,41.99856 27.58224,41.57736 27.09504,41.18496 L25.14264,39.60936 L16.22904,38.40216 C17.14464,37.45296 18.38784,36.88776 19.69824,36.56496 L25.51944,37.91496 L27.25824,39.65376 C27.69264,40.08696 28.20264,40.55616 28.80984,40.64136 L36.51744,41.72136 C37.53264,41.86416 38.61264,41.09616 39.23424,40.27776"/>
      <mask id="d" fill="white">
        <use xlink:href="#c"/>
      </mask>
      <polygon fill="#323232" points="36.288 25.487 36.515 25.487 36.515 23.042 36.288 23.042" mask="url(#d)"/>
      <path fill="#323232" d="M36.5142,22.40664 L36.2874,22.40664 C36.2118,22.40664 36.1506,22.46784 36.1506,22.54344 L36.1506,22.90704 C36.1506,22.98144 36.2118,23.04264 36.2874,23.04264 L36.5142,23.04264 C36.5898,23.04264 36.651,22.98144 36.651,22.90704 L36.651,22.54344 C36.651,22.46784 36.5898,22.40664 36.5142,22.40664" mask="url(#d)"/>
      <polygon fill="#323232" points="35.741 22.838 36.15 22.838 36.15 22.612 35.741 22.612" mask="url(#d)"/>
      <path fill="#F3761E" d="M35.14788,21.87456 C35.07228,22.08936 35.02428,22.39056 35.02428,22.72536 C35.02428,23.05896 35.07228,23.36016 35.14788,23.57496 C35.53908,23.48976 35.83188,23.14176 35.83188,22.72536 C35.83188,22.30776 35.53908,21.95976 35.14788,21.87456" mask="url(#d)"/>
      <path fill="#323232" d="M36.69156,27.05388 C36.00036,27.05388 35.43636,26.66748 35.43636,26.19348 C35.43636,25.71948 36.00036,25.33308 36.69156,25.33308 C37.38276,25.33308 37.94676,25.71948 37.94676,26.19348 C37.94676,26.66748 37.38276,27.05388 36.69156,27.05388" mask="url(#d)"/>
      <path fill="#F3AA1D" d="M36.71964,26.6532 C36.46644,26.6532 36.26004,26.4468 36.26004,26.1936 C36.26004,25.9404 36.46644,25.7328 36.71964,25.7328 C36.97284,25.7328 37.17924,25.9404 37.17924,26.1936 C37.17924,26.4468 36.97284,26.6532 36.71964,26.6532" mask="url(#d)"/>
      <path fill="#656E6B" d="M36.72984,25.89732 L34.76904,25.89732 C34.60704,25.89732 34.47384,26.03052 34.47384,26.19372 L34.47384,26.19372 C34.47384,26.35572 34.60704,26.48892 34.76904,26.48892 L36.72984,26.48892 C36.89304,26.48892 37.02624,26.35572 37.02624,26.19372 L37.02624,26.19372 C37.02624,26.03052 36.89304,25.89732 36.72984,25.89732" mask="url(#d)"/>
      <path fill="#323232" d="M34.785 26.3916C34.6758 26.3916 34.587 26.3028 34.587 26.1936 34.587 26.0844 34.6758 25.9944 34.785 25.9944 34.8942 25.9944 34.983 26.0844 34.983 26.1936 34.983 26.3028 34.8942 26.3916 34.785 26.3916M31.23528 32.86056C31.07568 33.00576 31.02648 33.08136 30.54408 33.01176 30.06168 32.94096 20.53608 31.55376 20.53608 31.55376 20.53608 31.55376 19.56528 31.50456 19.44528 31.20456 19.32648 30.90456 19.56528 29.55576 19.85088 29.45136 19.99128 29.39976 19.67688 29.42496 20.80248 29.50416 21.95088 29.58456 23.12568 29.51496 23.33688 29.57616 23.75688 29.69616 24.77568 30.25056 26.17008 30.35496 27.56448 30.46056 30.05208 30.32496 30.42648 30.46056 31.06608 30.69096 31.55688 32.56656 31.23528 32.86056" mask="url(#d)"/>
      <path fill="#323232" d="M19.27044,30.86016 L12.28884,29.85936 C12.14964,29.84016 11.99964,29.93496 11.99964,30.07536 L11.99964,30.07536 C11.99964,30.21456 12.07644,30.34416 12.21564,30.36336 L20.51004,31.55256 C21.64764,31.71456 19.50684,30.89376 19.27044,30.86016" mask="url(#d)"/>
      <path fill="#F3761E" d="M26.37948,38.77452 L25.83108,38.22612 L35.58588,39.46812 C36.55068,39.59052 37.57308,38.86932 38.15868,38.09292 L41.06988,34.23252 C40.66188,32.12412 39.50628,30.24612 37.92228,28.50012 L38.27148,28.33332 C39.96108,30.18972 41.19348,32.18772 41.62788,34.43052 L38.54268,38.52132 C37.92348,39.34452 36.83868,40.10892 35.81748,39.97812 L26.37948,38.77452 Z" mask="url(#d)"/>
      <path fill="#FCC556" d="M25.51968,37.91472 C26.47368,37.80072 27.27168,37.57632 28.19088,36.04392 C28.82088,34.99272 29.48688,33.52032 27.82728,33.03552 C26.12208,32.53752 22.21608,31.82232 19.89528,32.47992 C17.54088,33.14832 16.26288,34.60512 15.99168,35.70552 L25.51968,37.91472 Z" mask="url(#d)"/>
      <path fill="#F3AA1D" d="M25.19376,37.61892 C26.04696,37.51692 26.76096,37.31652 27.58416,35.94492 C28.14816,35.00412 28.74336,33.68652 27.25896,33.25212 C25.73256,32.80692 22.23696,32.16732 20.16096,32.75532 C17.98296,33.37212 16.83456,34.74372 16.64616,35.73852 C16.63776,35.77812 16.64136,35.81772 16.65216,35.85852 L24.47136,37.67172 C24.72696,37.66332 24.96936,37.64532 25.19376,37.61892" mask="url(#d)"/>
      <polygon fill="#F3761E" points="26.306 36.6 19.241 34.962 19.192 35.176 26.256 36.816" mask="url(#d)"/>
      <polygon fill="#F3761E" points="26.42 36.204 19.354 34.566 19.305 34.782 26.369 36.42" mask="url(#d)"/>
      <polygon fill="#F3761E" points="26.532 35.808 19.467 34.17 19.418 34.386 26.482 36.024" mask="url(#d)"/>
      <path fill="#323232" d="M15.99168,35.70528 L14.10768,39.36048 L14.27448,39.49008 C14.27448,39.49008 14.84688,39.34248 14.84688,39.15768 C14.84688,38.97288 16.90848,35.91768 16.90848,35.91768 L15.99168,35.70528 Z" mask="url(#d)"/>
      <path fill="#FFFFFF" d="M39.4056,24.74508 C40.05,25.62588 40.05,26.54868 39.3348,27.51948 C39.348,27.53388 39.3612,27.54588 39.3744,27.55788 L39.3348,27.51948 C38.5668,26.67708 39.0816,24.99108 39.4056,24.74508" mask="url(#d)"/>
      <path fill="#CFEEFF" d="M39.56364,24.9834 C40.00164,25.719 39.99204,26.4846 39.49524,27.2826 C39.08244,26.5602 39.30564,25.4802 39.56364,24.9834" mask="url(#d)"/>
      <path fill="#FFFFFF" d="M35.14788,21.87456 C35.07228,22.08936 35.02428,22.39056 35.02428,22.72536 C35.02428,23.05896 35.07228,23.36016 35.14788,23.57496 C35.22348,23.36016 35.27148,23.05896 35.27148,22.72536 C35.27148,22.39056 35.22348,22.08936 35.14788,21.87456" mask="url(#d)"/>
      <path fill="#F3761E" d="M25.22952,41.14656 C25.83312,40.97016 26.17872,40.33896 26.00352,39.73536 C25.82712,39.13296 25.19592,38.78616 24.59232,38.96256 L19.59312,39.74736 L19.59312,39.74736 C19.44912,39.75456 19.30392,39.77736 19.15992,39.81936 C18.18672,40.10376 17.62752,41.12256 17.91072,42.09576 C18.19512,43.06896 19.21392,43.62696 20.18712,43.34376 C20.33112,43.30176 20.46672,43.24296 20.59032,43.17096 L20.59032,43.17096 L25.22952,41.14656 Z" mask="url(#d)"/>
      <path fill="#F3AA1D" d="M24.72072 39.40152C24.36072 39.50712 24.15312 39.88392 24.25872 40.24512 24.36312 40.60512 24.74112 40.81272 25.10112 40.70712 25.46232 40.60152 25.66872 40.22472 25.56432 39.86352 25.45872 39.50352 25.08072 39.29592 24.72072 39.40152M19.35708 40.52496C18.77628 40.69416 18.44148 41.30256 18.61188 41.88456 18.78108 42.46536 19.38948 42.79896 19.97028 42.62976 20.55228 42.46056 20.88588 41.85216 20.71668 41.27016 20.54748 40.68936 19.93788 40.35576 19.35708 40.52496" mask="url(#d)"/>
      <path fill="#E8B185" d="M32.5128,27.96684 L32.4636,27.96684 C31.6524,27.96684 31.3152,28.54644 31.3512,29.35644 L31.6548,36.08604 L33.1956,36.32364 L33.9876,29.44164 C34.0812,28.63644 33.324,27.96684 32.5128,27.96684" mask="url(#d)"/>
      <path fill="#E8B185" d="M24.3378,28.4904 L24.3282,28.5384 C24.1734,29.3352 24.687,30.2412 25.4958,30.3012 L32.3214,30.8088 L32.5122,27.9672 L26.067,27.3228 C24.963,27.2124 26.3166,17.8692 24.3378,28.4904" mask="url(#d)"/>
      <path fill="#323232" d="M33.35496,36.34824 C34.25256,36.53064 35.53416,37.06944 35.39016,38.14944 L31.43616,37.53864 L31.65456,36.08544 L33.35496,36.34824 Z" mask="url(#d)"/>
      <path fill="#F9D7D4" d="M28.33032,20.4846 C28.43112,20.0046 28.70952,19.5006 29.44032,19.4754 C29.75112,19.4646 29.88312,19.1766 29.69232,18.9282 C29.63232,18.8502 29.94072,18.8238 29.74392,18.6522 C29.66592,18.5838 29.91312,18.555 29.82432,18.4326 C29.65512,18.201 29.79432,18.255 29.89512,18.213 C30.13512,18.1134 29.80992,17.7594 29.70912,17.5074 C29.60832,17.2542 29.61672,16.851 29.61672,16.599 C29.61672,16.3458 26.18592,15.8922 26.41272,17.103 C26.63952,18.3138 27.39672,19.6518 27.16992,20.3586 C26.94192,21.0654 28.05312,21.3174 28.33032,20.4846" mask="url(#d)"/>
      <path fill="#183953" d="M27.19152,19.95732 C25.97832,19.97052 25.53552,21.00492 25.30752,22.10652 C25.05432,23.33172 24.75432,26.60652 24.57672,27.39972 C24.40392,28.17492 27.82752,28.44732 28.80552,27.67332 C29.39832,27.20412 28.78632,25.04772 29.08992,23.47212 C29.24352,22.68132 29.05992,20.59692 28.34712,20.23092 C28.07472,20.46492 27.44472,20.44572 27.19152,19.95732" mask="url(#d)"/>
      <path fill="#F9D7D4" d="M27.22548,22.3962 L27.22548,22.3962 C26.92668,22.695 26.74188,23.1078 26.98428,23.4534 L29.35788,26.8362 C29.60028,27.1818 30.03708,27.2658 30.41508,27.0774 C30.79188,26.889 30.89868,26.3658 30.65628,26.0202 L28.28268,22.6374 C28.04028,22.293 27.58308,22.1718 27.22548,22.3962" mask="url(#d)"/>
      <path fill="#FFFFFF" d="M26.63976,21.46368 L26.63976,21.46368 C26.10816,21.79728 25.94736,22.50528 26.28096,23.03568 L27.05376,24.26808 L28.98576,23.05488 L28.21176,21.82248 C27.87816,21.29208 27.17136,21.13008 26.63976,21.46368" mask="url(#d)"/>
      <path fill="#F9D7D4" d="M33.7278,25.35 L29.9478,25.7496 C29.5278,25.794 29.4654,26.2992 29.4654,26.7204 L29.4654,26.7216 C29.4654,27.1428 30.0354,27.3324 30.4362,27.2028 L33.8994,26.0916 C34.8654,25.7808 34.737,25.2432 33.7278,25.35" mask="url(#d)"/>
      <path fill="#F9D7D4" d="M33.88272,25.34088 C34.82592,25.23648 35.57112,25.37448 35.63352,26.22528 C35.69592,27.07728 35.19432,26.41008 35.15592,26.16288 C35.12232,25.94568 34.70592,25.73208 34.48872,26.08008 C34.16952,26.58888 33.91512,26.07048 33.51792,26.19528 C33.12432,26.31888 33.18192,25.41768 33.88272,25.34088" mask="url(#d)"/>
      <path fill="#9E4B0F" d="M29.81136,16.1274 C29.81136,16.5054 29.35176,17.0058 28.67736,17.3298 C28.00176,17.6538 26.78616,18.531 26.89416,18.8154 C27.00216,19.0986 25.93536,18.5178 25.82736,17.3298 C25.71936,16.1406 28.77096,14.115 29.81136,16.1274" mask="url(#d)"/>
      <path fill="#323232" d="M28.47324,20.36988 C28.27764,20.20548 27.97884,19.51548 27.72324,19.12308 L27.72084,19.11948 L27.68844,19.07148 L27.66204,19.03308 L27.63444,18.99348 L27.60444,18.95268 L27.59964,18.94668 C27.58284,18.92388 27.56604,18.90228 27.55044,18.88068 L27.53964,18.86748 L27.51324,18.83268 L27.48084,18.79428 L27.45084,18.75708 L27.41964,18.72108 C27.40044,18.69828 27.38124,18.67668 27.36084,18.65508 L27.35724,18.65028 L27.35004,18.64308 L27.32484,18.61548 L27.29364,18.58308 L27.26004,18.54948 L27.22524,18.51468 C27.20484,18.49548 27.18564,18.47628 27.16524,18.45828 L27.16164,18.45468 L27.12924,18.42588 C27.10764,18.40668 27.08604,18.38868 27.06444,18.37068 L27.06204,18.36828 C27.04164,18.35148 27.02124,18.33468 27.00084,18.31908 L26.99364,18.31428 C26.57124,17.98668 26.12004,17.84748 25.69524,17.89908 C25.54284,17.58348 25.45764,17.22948 25.45764,16.85508 C25.45764,15.52788 26.53404,14.45148 27.86124,14.45148 C28.95684,14.45148 29.87964,15.18348 30.17004,16.18428 C28.41084,16.88508 28.12644,17.67228 28.81044,19.86348 C28.64964,19.99908 28.54284,20.17908 28.47324,20.36988" mask="url(#d)"/>
      <path fill="#55615D" d="M27.8718,14.65488 C28.683,14.67168 29.4126,15.10488 29.7318,15.79248 C29.8866,16.12608 29.5602,16.21488 29.4126,15.94248 C29.1174,15.39888 28.5294,15.02688 27.8658,15.04008 C27.3726,15.04968 27.399,14.64528 27.8718,14.65488" mask="url(#d)"/>
      <polygon fill="#ED402F" points="20.413 23.64 13.177 22.603 12.14 29.839 19.376 30.875" mask="url(#d)"/>
      <polygon fill="#991F1A" points="19.847 27.171 12.611 26.135 12.141 29.838 19.375 30.875" mask="url(#d)"/>
    </g>
    <path fill="#ECECEC" d="M30,60 C13.4316,60 0,46.5684 0,30 C0,13.4316 13.4316,0 30,0 C46.5684,0 60,13.4316 60,30 C60,46.5684 46.5684,60 30,60 Z"/>
    <path fill="#183953" d="M10.65348,19.0116 C10.65348,18.5568 11.02548,18.1848 11.48028,18.1848 L35.95308,18.1848 C36.40788,18.1848 36.77988,18.5568 36.77988,19.0116 L36.77988,35.6712 C36.77988,36.1248 36.40788,35.6292 35.95308,35.6292 L11.48028,35.6292 C11.02548,35.6292 10.65348,35.2572 10.65348,34.8024 L10.65348,19.0116 Z"/>
    <path fill="#2ABB9C" d="M37.60644,35.96616 C37.15164,35.96256 36.77964,36.31176 36.77964,35.85696 L36.77964,22.23576 C36.77964,21.78096 37.15164,21.40896 37.60644,21.40896 L44.33124,21.40896 C44.78604,21.40896 45.38604,21.70296 45.66684,22.06056 L48.94884,29.02536 C49.22844,29.38416 49.45644,30.04896 49.45644,30.50376 L49.45644,35.24376 C49.45644,35.69856 49.08444,36.06816 48.62964,36.06456 L37.60644,35.96616 Z"/>
    <path fill="#969696" d="M9,37.06284 C9,37.51764 9.372,37.88964 9.8268,37.88964 L50.1732,37.88964 C50.628,37.88964 51,37.51764 51,37.06284 L51,35.71164 C51,35.25804 50.628,34.88484 50.1732,34.88484 L9.8268,34.88484 C9.372,34.88484 9,35.25804 9,35.71164 L9,37.06284 Z"/>
    <path fill="#FFFFFF" d="M38.70888,29.0616 C38.25408,29.0628 37.88208,28.6908 37.88208,28.236 L37.88208,23.7204 C37.88208,23.2668 38.25408,22.8936 38.70888,22.8936 L43.62648,22.8936 C44.08128,22.8936 44.60208,23.2356 44.78208,23.6532 L46.79328,28.2984 C46.97328,28.7148 46.74888,29.0568 46.29408,29.0568 L38.70888,29.0616 Z"/>
    <path fill="#323232" d="M39.7986 37.72212C39.7986 36.83292 40.5186 36.11172 41.4078 36.11172 42.297 36.11172 43.0182 36.83292 43.0182 37.72212 43.0182 38.61132 42.297 39.33132 41.4078 39.33132 40.5186 39.33132 39.7986 38.61132 39.7986 37.72212M37.4598 37.72212C37.4598 39.90252 39.2274 41.67132 41.4078 41.67132 43.5882 41.67132 45.357 39.90252 45.357 37.72212 45.357 35.54052 43.5882 33.77412 41.4078 33.77412 39.2274 33.77412 37.4598 35.54052 37.4598 37.72212M15.69096 37.8666C15.69096 36.9774 16.41096 36.2562 17.30016 36.2562 18.18936 36.2562 18.91056 36.9774 18.91056 37.8666 18.91056 38.7558 18.18936 39.477 17.30016 39.477 16.41096 39.477 15.69096 38.7558 15.69096 37.8666M13.35216 37.8666C13.35216 40.047 15.11976 41.8158 17.30016 41.8158 19.48056 41.8158 21.24936 40.047 21.24936 37.8666 21.24936 35.6862 19.48056 33.9174 17.30016 33.9174 15.11976 33.9174 13.35216 35.6862 13.35216 37.8666"/>
    <path fill="#FFAB25" d="M41.40816 39.33156C42.29736 39.33156 43.01856 38.61156 43.01856 37.72236 43.01856 36.83316 42.29736 36.11196 41.40816 36.11196 40.51896 36.11196 39.79896 36.83316 39.79896 37.72236 39.79896 38.61156 40.51896 39.33156 41.40816 39.33156M17.30076 39.47676C18.18996 39.47676 18.90996 38.75556 18.90996 37.86636 18.90996 36.97836 18.18996 36.25596 17.30076 36.25596 16.41156 36.25596 15.69156 36.97836 15.69156 37.86636 15.69156 38.75556 16.41156 39.47676 17.30076 39.47676"/>
    <path fill="#183953" d="M38.37816,30.96336 C38.37816,31.12656 38.51016,31.25856 38.67336,31.25856 L40.28856,31.25856 C40.45056,31.25856 40.58256,31.12656 40.58256,30.96336 C40.58256,30.80016 40.45056,30.66816 40.28856,30.66816 L38.67336,30.66816 C38.51016,30.66816 38.37816,30.80016 38.37816,30.96336"/>
    <path fill="#ED402F" d="M49.99416,32.8638 C49.99416,33.531 49.75296,34.0722 49.45656,34.0722 L49.45656,31.3158 C49.75296,31.3158 49.99416,31.8582 49.99416,32.5242 L49.99416,32.8638 Z"/>
    <path fill="#FFFFFF" d="M18.85344,24.82812 C18.85344,24.91452 18.85584,24.96372 18.89304,25.04532 C18.95664,25.17972 19.10544,25.29012 19.28544,25.29012 C19.65984,25.29012 19.98984,24.94572 19.98984,24.60132 C19.98984,24.22212 19.58184,24.08532 19.27224,24.24012 C19.21104,24.27012 19.17024,24.29172 19.11744,24.33492 C19.09944,24.34932 19.09224,24.36012 19.07304,24.37452 C19.05384,24.38772 19.04664,24.39492 19.03104,24.41532 C19.01424,24.43572 19.00824,24.44052 18.99264,24.45972 C18.96744,24.49212 18.94584,24.52332 18.92664,24.56052 C18.89064,24.63132 18.85344,24.72492 18.85344,24.82812 L18.85344,24.82812 Z M18.09624,28.43172 L19.08024,28.43172 C19.11144,28.43172 19.11984,28.33452 19.13424,28.27212 C19.22784,27.87612 19.32264,27.42132 19.41024,27.02052 C19.46424,26.77932 19.51344,26.54772 19.56864,26.30772 L19.71024,25.65852 L18.70464,25.65732 L18.69984,25.68252 L18.40704,27.00852 C18.32544,27.35052 18.25344,27.72252 18.17184,28.06812 C18.15744,28.12812 18.14544,28.18572 18.13224,28.24812 C18.12264,28.29372 18.09624,28.38012 18.09624,28.43172 L18.09624,28.43172 Z M19.45944,28.43172 L19.79424,26.89692 C19.87344,26.52492 19.97784,26.10132 20.04744,25.74252 C20.06424,25.65852 20.05944,25.66332 20.10504,25.64892 C20.31624,25.58172 20.39184,25.56972 20.61024,25.53252 C20.70024,25.51692 20.79024,25.51092 20.88624,25.49772 C20.97984,25.48452 21.08424,25.48572 21.17184,25.47372 C21.22104,25.46772 21.27984,25.47252 21.32304,25.46652 C21.36864,25.46052 21.42624,25.46412 21.47304,25.46412 C21.81384,25.46412 22.31904,25.46532 22.58064,25.59012 C22.69104,25.64292 22.78344,25.70892 22.85184,25.81092 C23.03064,26.07612 22.93824,26.49612 22.86984,26.79372 L22.53504,28.31292 C22.52664,28.34892 22.52184,28.43172 22.48704,28.43172 L21.52584,28.43172 C21.49584,28.43172 21.50544,28.41372 21.51024,28.39452 L21.84264,26.88732 C21.88464,26.67492 21.93264,26.35332 21.66384,26.28012 C21.54744,26.24892 21.45624,26.25852 21.33384,26.27892 C21.19584,26.30052 21.12864,26.31612 20.99904,26.35332 C20.89464,26.38212 20.89224,26.38812 20.88144,26.43972 L20.80824,26.77572 C20.69304,27.26892 20.58984,27.78972 20.47464,28.28172 C20.46024,28.34652 20.45544,28.43172 20.42064,28.43172 L19.45944,28.43172 Z M23.59224,24.85092 C23.59224,24.95292 23.63064,25.05372 23.69304,25.12932 C23.70504,25.14372 23.70744,25.14972 23.71944,25.16412 C23.74824,25.19652 23.80824,25.23372 23.85024,25.25292 C23.99544,25.31772 24.17304,25.29012 24.30984,25.22652 L24.46104,25.12932 C24.55104,25.04892 24.57984,25.02732 24.65184,24.90372 C24.75384,24.72972 24.77544,24.42372 24.59184,24.28332 C24.19224,23.97612 23.59224,24.38772 23.59224,24.85092 L23.59224,24.85092 Z M22.51704,29.87052 L23.52504,29.87052 L23.58144,29.60172 C23.60184,29.50812 23.61984,29.42772 23.64144,29.33532 L24.23304,26.66412 L24.45504,25.65852 L23.44944,25.65732 L22.98984,27.73092 C22.84944,28.34772 22.71984,28.98612 22.57584,29.59692 L22.51704,29.87052 Z M25.92384,27.71292 C26.06544,27.71292 26.23104,27.64212 26.31504,27.58092 C26.46744,27.47052 26.44584,27.47172 26.47224,27.35292 C26.49024,27.27492 26.68104,26.44332 26.68104,26.39532 C26.68104,26.29452 26.46504,26.28252 26.38584,26.28252 C26.02344,26.28252 25.82904,26.30772 25.60824,26.52612 C25.37784,26.75412 25.20744,27.31932 25.47504,27.58572 C25.60224,27.71172 25.75824,27.71292 25.92384,27.71292 L25.92384,27.71292 Z M24.31224,27.48492 C24.31224,27.25932 24.36144,27.03132 24.41184,26.85132 C24.46464,26.66412 24.53544,26.49372 24.62664,26.33892 C24.63984,26.31612 24.64584,26.30172 24.66024,26.28132 C24.79704,26.07612 24.93624,25.91052 25.14744,25.77012 C25.16904,25.75572 25.18104,25.74732 25.20264,25.73412 C25.46544,25.55892 25.93344,25.44252 26.25744,25.42692 C26.32104,25.42332 26.36544,25.41852 26.43144,25.41852 L26.60544,25.41012 C26.64264,25.41132 26.64744,25.41852 26.68824,25.41972 C26.71824,25.41972 26.74944,25.41852 26.77944,25.41852 L26.95344,25.42692 C27.13584,25.42812 27.43224,25.46532 27.62064,25.48572 C27.72144,25.49772 27.85464,25.50732 27.85464,25.61532 C27.85464,25.71852 27.78024,25.99092 27.75864,26.10252 L27.65904,26.54892 C27.52104,27.13692 27.39744,27.75132 27.26064,28.34532 C27.23544,28.45572 27.28584,28.43172 27.07464,28.43172 L26.25744,28.43172 C26.25984,28.40172 26.28024,28.36692 26.28744,28.33332 C26.26944,28.33812 26.15904,28.39332 26.07144,28.41972 C25.72224,28.52292 25.20984,28.60332 24.85104,28.46052 C24.72384,28.40892 24.65064,28.34532 24.56304,28.25532 C24.52944,28.22172 24.48144,28.15572 24.45744,28.11132 C24.44304,28.08252 24.43104,28.05732 24.41784,28.03092 C24.40224,27.99972 24.39624,27.98052 24.38184,27.94572 C24.33144,27.81492 24.31224,27.64932 24.31224,27.48492 L24.31224,27.48492 Z M28.20264,25.66092 C28.04544,26.33892 27.90504,27.05532 27.74784,27.73332 L27.61344,28.34292 C27.60744,28.37052 27.59784,28.40172 27.59784,28.43172 L28.55904,28.43172 C28.58544,28.43172 28.58784,28.39572 28.59384,28.36812 L28.64904,28.11372 C28.76304,27.56892 28.89624,26.98572 29.01864,26.43852 C29.03064,26.38212 29.03664,26.38572 29.13624,26.35212 C29.32584,26.29092 29.76264,26.19132 29.91624,26.34012 C30.05304,26.47332 30.01824,26.70732 29.97984,26.87652 C29.94864,27.00732 29.64144,28.38972 29.64144,28.43172 L30.62544,28.43172 C30.65064,28.43172 30.65064,28.40892 30.65664,28.38732 L30.86904,27.42492 C30.89304,27.30372 31.07904,26.51412 31.07904,26.38812 C31.14264,26.37372 31.21224,26.33652 31.36824,26.30532 C31.58424,26.26212 31.92864,26.18892 32.03064,26.44452 C32.10144,26.62332 32.01264,26.93412 31.98024,27.09132 C31.94904,27.23772 31.91544,27.38892 31.88064,27.53652 L31.68504,28.43172 L32.66904,28.43172 C32.70144,28.43172 32.70384,28.36572 32.71584,28.31292 C32.72664,28.26972 32.73624,28.22172 32.74584,28.17492 C32.83704,27.73212 32.95344,27.24132 33.05184,26.79372 C33.12024,26.48532 33.21144,26.08452 33.03264,25.81212 C32.96664,25.71252 32.87664,25.64532 32.76264,25.59012 C32.50464,25.46652 31.99224,25.46412 31.65504,25.46412 C31.55664,25.46412 31.48344,25.47012 31.38984,25.47132 L30.76464,25.53612 C30.59664,25.56132 30.69384,25.56612 30.55464,25.53612 C29.92704,25.39932 28.87944,25.46052 28.28184,25.63332 C28.24824,25.64412 28.23624,25.65372 28.20264,25.66092 L28.20264,25.66092 Z"/>
    <path fill="#ED402F" d="M14.29644,28.43172 L15.29484,28.43172 C15.32844,28.43172 15.35484,28.25772 15.36564,28.20612 C15.38244,28.12692 15.40044,28.04412 15.41964,27.95772 C15.45564,27.79332 15.49644,27.62892 15.52884,27.46812 C15.56124,27.30252 15.60324,27.14412 15.63684,26.97852 L15.85284,25.99932 C15.87684,25.89132 15.93324,25.59612 15.97524,25.52292 C16.04844,25.39692 16.14684,25.29492 16.27044,25.22052 C16.47204,25.10052 16.51284,25.14612 16.63284,25.12812 C16.67844,25.12092 16.73004,25.12332 16.77924,25.12332 C16.86204,24.96612 16.75404,24.64092 16.96644,24.85332 L17.06124,24.93972 C17.20524,25.08252 17.29644,25.16532 17.41404,25.32132 C17.48364,25.41372 17.53524,25.48212 17.49084,25.57092 C17.41644,25.71852 17.27484,25.86012 17.15604,25.96932 L16.95204,26.13612 C16.90404,26.17212 16.76964,26.26572 16.71084,26.26692 C16.70484,26.23932 16.69284,26.22252 16.69644,26.18532 C16.70604,26.09532 16.73364,25.98252 16.73364,25.90332 C16.55484,25.86252 16.33884,26.09052 16.22844,26.20092 C16.15044,26.27892 16.03044,26.42172 15.97404,26.52132 C15.91644,26.62332 15.94284,26.65812 16.02204,26.79012 C16.11444,26.94492 16.31604,27.20772 16.44084,27.33252 C16.49844,27.39012 16.57164,27.48012 16.65804,27.50052 C16.71444,27.41652 16.67604,27.41052 16.69164,27.30732 C16.69884,27.26172 16.69164,27.23892 16.69404,27.21132 C16.70604,27.06732 16.65804,27.01572 16.85484,27.01692 C16.90164,27.01692 16.91364,27.00972 16.96164,27.00852 C16.99764,27.00852 17.03364,27.00252 17.07084,26.99652 C17.43564,26.94372 17.68284,26.83332 17.93604,26.58252 C17.96124,26.55852 17.97084,26.54412 17.99244,26.51892 C18.06204,26.44092 18.12684,26.33172 18.17484,26.23092 C18.35244,25.86252 18.40764,25.33812 18.26604,24.93132 C18.21564,24.78612 18.15564,24.69012 18.07284,24.57972 C17.92524,24.38052 17.63964,24.21372 17.38404,24.18492 C17.35044,24.18132 17.25924,24.17892 17.13084,24.17772 L15.22764,24.17772 L14.81964,26.03292 C14.80044,26.12172 14.77884,26.21412 14.76084,26.29812 L14.32524,28.29372 C14.31804,28.32612 14.29764,28.39452 14.29644,28.43172"/>
  </g>
</svg>
