<svg xmlns="http://www.w3.org/2000/svg" width="70" height="70" viewBox="0 0 70 70" xmlns:xlink="http://www.w3.org/1999/xlink">
  <defs>
    <polygon id="a" points="0 70 70 70 70 0 0 0"/>
  </defs>
  <g fill="none" fill-rule="evenodd">
    <circle cx="35" cy="35" r="35" fill="#EBEBEB"/>
    <polygon fill="#323232" points="44.477 32.025 42.724 32.725 43.425 34.478 45.177 33.778"/>
    <path fill="#656E6B" d="M50.16172,50.183 C49.23772,50.183 48.48452,49.4298 48.48452,48.5058 C48.48452,47.5818 49.23772,46.8286 50.16172,46.8286 C51.08572,46.8286 51.83892,47.5818 51.83892,48.5058 C51.83892,49.4298 51.08572,50.183 50.16172,50.183"/>
    <path fill="#656E6B" d="M54.79628,48.50594 C54.79628,51.06514 52.72148,53.13994 50.16228,53.13994 L50.16228,53.13994 L50.16228,50.88594 L50.16228,50.88594 C51.47548,50.88594 52.54228,49.82054 52.54228,48.50594 C52.54228,47.19134 51.47548,46.12594 50.16228,46.12594 L50.16228,46.12594 L50.16228,43.87194 L50.16228,43.87194 C52.72148,43.87194 54.79628,45.94674 54.79628,48.50594 L54.79628,48.50594 Z M50.16228,46.12594 C48.84768,46.12594 47.78228,47.19134 47.78228,48.50594 C47.78228,49.82054 48.84768,50.88594 50.16228,50.88594 L50.16228,53.13994 C47.60168,53.13994 45.52688,51.06514 45.52688,48.50594 C45.52688,45.94674 47.60168,43.87194 50.16228,43.87194 L50.16228,46.12594 Z"/>
    <path fill="#323232" d="M53.26664,48.50594 C53.26664,50.22094 51.87644,51.61114 50.16144,51.61114 L50.16144,51.61114 L50.16144,50.88594 C51.47604,50.88594 52.54144,49.82054 52.54144,48.50594 C52.54144,47.19134 51.47604,46.12594 50.16144,46.12594 L50.16144,45.40074 L50.16144,45.40074 C51.87644,45.40074 53.26664,46.79094 53.26664,48.50594 L53.26664,48.50594 Z M50.16144,46.12594 C48.84684,46.12594 47.78144,47.19134 47.78144,48.50594 C47.78144,49.82054 48.84684,50.88594 50.16144,50.88594 L50.16144,51.61114 C48.44644,51.61114 47.05764,50.22094 47.05764,48.50594 C47.05764,46.79094 48.44644,45.40074 50.16144,45.40074 L50.16144,46.12594 Z"/>
    <polygon fill="#323232" points="47.766 46.924 47.583 47.24 49.796 48.519 47.594 49.79 47.777 50.106 49.989 48.829 49.989 51.372 50.356 51.372 50.356 48.817 52.557 50.088 52.74 49.77 50.528 48.493 52.729 47.222 52.547 46.904 50.334 48.183 50.334 45.64 49.968 45.64 49.968 48.195"/>
    <path fill="#656E6B" d="M49.0938,45.16708 L48.8894,45.27628 C48.846,45.30008 48.8292,45.35468 48.853,45.39808 L49.784,47.13268 C49.8078,47.17608 49.8624,47.19288 49.9072,47.16908 L50.1102,47.05988 C50.1536,47.03608 50.1704,46.98148 50.148,46.93808 L49.2156,45.20348 C49.1932,45.16008 49.1372,45.14328 49.0938,45.16708"/>
    <path fill="#F3AA1D" d="M49.64904,45.92588 L49.21364,46.15828 C49.11984,46.20868 49.08484,46.32628 49.13524,46.42008 L51.12464,50.12308 C51.17504,50.21688 51.29264,50.25328 51.38504,50.20288 L51.82044,49.96908 C51.91424,49.92008 51.95064,49.80248 51.90024,49.70868 L49.91084,46.00568 C49.86044,45.91188 49.74284,45.87548 49.64904,45.92588"/>
    <path fill="#F3761E" d="M50.34526,41.87498 C47.77066,41.87498 45.56986,43.47938 44.69066,45.74318 L55.99986,45.74318 C55.12066,43.47938 52.91986,41.87498 50.34526,41.87498"/>
    <path fill="#F3AA1D" d="M45.6575,32.57716 C45.9795,32.38536 46.1895,32.41196 46.4149,32.63736 C48.6899,34.90816 50.2817,37.45196 50.8291,40.28556 L45.7849,46.97616 C45.2627,47.66776 44.4605,48.33136 43.6065,48.58616 L43.6065,43.15836 L44.6327,40.34016 L43.6065,37.73056 L43.6065,33.55156 L45.6575,32.57716 Z M43.8109,28.66136 L43.6065,28.76776 L43.6065,33.32896 L45.5651,32.39516 C45.7779,32.29436 45.8843,32.26216 45.8913,32.10676 C46.7243,30.97276 46.7257,29.89616 45.9725,28.86856 L43.8109,28.66136 Z M42.3745,34.60016 C42.2947,34.39716 42.4529,34.10036 42.6489,34.00656 L43.6065,33.55156 L43.6065,37.73056 L42.3745,34.60016 Z M43.6065,48.58616 C43.2747,48.68556 42.9373,48.72196 42.6041,48.67576 L33.6119,47.41436 C32.9035,47.31496 32.3071,46.76896 31.8017,46.26216 L29.7731,44.23356 L18.4219,41.60156 C18.9483,38.90796 21.0679,36.39216 22.3097,36.57276 L36.1333,38.58596 L35.4207,41.21796 C35.0693,42.51856 35.5411,43.62036 36.5463,43.77576 L41.2881,44.50796 C42.0539,44.62696 43.2733,44.07256 43.5883,43.20736 L43.6065,43.15836 L43.6065,48.58616 Z M43.6065,33.32896 L43.6065,28.76776 L40.6847,30.30636 L41.9867,33.61316 C42.0651,33.81196 42.4053,33.90156 42.5985,33.80916 L43.6065,33.32896 Z"/>
    <path fill="#323232" d="M43.81062,28.6608 L45.97362,28.8694 C46.72542,29.8956 46.72402,30.9736 45.89102,32.1062 C45.02442,31.241 45.75662,29.9138 43.81062,28.6608"/>
    <path fill="#656E6B" d="M22.94138,50.183 C22.01738,50.183 21.26418,49.4298 21.26418,48.5058 C21.26418,47.5818 22.01738,46.8286 22.94138,46.8286 C23.86538,46.8286 24.61858,47.5818 24.61858,48.5058 C24.61858,49.4298 23.86538,50.183 22.94138,50.183"/>
    <path fill="#656E6B" d="M27.57594,48.50594 C27.57594,51.06514 25.50114,53.13994 22.94194,53.13994 L22.94194,50.88594 C24.25654,50.88594 25.32194,49.82054 25.32194,48.50594 C25.32194,47.19134 24.25654,46.12594 22.94194,46.12594 L22.94194,43.87194 C25.50114,43.87194 27.57594,45.94674 27.57594,48.50594 L27.57594,48.50594 Z M22.94194,46.12594 C21.62734,46.12594 20.56194,47.19134 20.56194,48.50594 C20.56194,49.82054 21.62734,50.88594 22.94194,50.88594 L22.94194,53.13994 C20.38134,53.13994 18.30654,51.06514 18.30654,48.50594 C18.30654,45.94674 20.38134,43.87194 22.94194,43.87194 L22.94194,46.12594 Z"/>
    <path fill="#323232" d="M26.04616,48.50594 C26.04616,50.22094 24.65596,51.61114 22.94096,51.61114 L22.94096,50.88594 C24.25556,50.88594 25.32096,49.82054 25.32096,48.50594 C25.32096,47.19134 24.25556,46.12594 22.94096,46.12594 L22.94096,45.40074 C24.65596,45.40074 26.04616,46.79094 26.04616,48.50594 L26.04616,48.50594 Z M22.94096,46.12594 C21.62636,46.12594 20.56096,47.19134 20.56096,48.50594 C20.56096,49.82054 21.62636,50.88594 22.94096,50.88594 L22.94096,51.61114 C21.22596,51.61114 19.83716,50.22094 19.83716,48.50594 C19.83716,46.79094 21.22596,45.40074 22.94096,45.40074 L22.94096,46.12594 Z"/>
    <polygon fill="#323232" points="20.546 46.924 20.362 47.24 22.576 48.519 20.373 49.79 20.557 50.106 22.769 48.829 22.769 51.372 23.136 51.372 23.136 48.817 25.336 50.088 25.52 49.77 23.308 48.493 25.509 47.222 25.327 46.904 23.113 48.183 23.113 45.64 22.748 45.64 22.748 48.195"/>
    <path fill="#323232" d="M45.77328,46.99072 L45.51288,47.44992 C44.92908,48.47752 43.80208,49.50372 42.60368,49.44772 L33.55408,49.03052 C32.84148,48.99832 32.17928,48.50692 31.61088,48.04912 L29.33308,46.21092 L18.93388,44.80252 C20.00208,43.69512 21.45248,43.03572 22.98128,42.65912 L29.77268,44.23412 L31.80128,46.26272 C32.30808,46.76812 32.90308,47.31552 33.61148,47.41492 L42.60368,48.67492 C43.78808,48.84152 45.04808,47.94552 45.77328,46.99072"/>
    <mask id="b" fill="white">
      <use xlink:href="#a"/>
    </mask>
    <polygon fill="#323232" points="42.336 29.735 42.563 29.735 42.563 26.883 42.336 26.883" mask="url(#b)"/>
    <path fill="#323232" d="M42.5999,26.14108 L42.3353,26.14108 C42.2471,26.14108 42.1757,26.21248 42.1757,26.30068 L42.1757,26.72488 C42.1757,26.81168 42.2471,26.88308 42.3353,26.88308 L42.5999,26.88308 C42.6881,26.88308 42.7595,26.81168 42.7595,26.72488 L42.7595,26.30068 C42.7595,26.21248 42.6881,26.14108 42.5999,26.14108" mask="url(#b)"/>
    <polygon fill="#323232" points="41.698 26.607 42.107 26.607 42.107 26.38 41.698 26.38" mask="url(#b)"/>
    <path fill="#F3761E" d="M41.00586,25.52032 C40.91766,25.77092 40.86166,26.12232 40.86166,26.51292 C40.86166,26.90212 40.91766,27.25352 41.00586,27.50412 C41.46226,27.40472 41.80386,26.99872 41.80386,26.51292 C41.80386,26.02572 41.46226,25.61972 41.00586,25.52032" mask="url(#b)"/>
    <path fill="#323232" d="M42.80682,31.56286 C42.00042,31.56286 41.34242,31.11206 41.34242,30.55906 C41.34242,30.00606 42.00042,29.55526 42.80682,29.55526 C43.61322,29.55526 44.27122,30.00606 44.27122,30.55906 C44.27122,31.11206 43.61322,31.56286 42.80682,31.56286" mask="url(#b)"/>
    <path fill="#F3AA1D" d="M42.83958,31.0954 C42.54418,31.0954 42.30338,30.8546 42.30338,30.5592 C42.30338,30.2638 42.54418,30.0216 42.83958,30.0216 C43.13498,30.0216 43.37578,30.2638 43.37578,30.5592 C43.37578,30.8546 43.13498,31.0954 42.83958,31.0954" mask="url(#b)"/>
    <path fill="#656E6B" d="M42.85148,30.21354 L40.56388,30.21354 C40.37488,30.21354 40.21948,30.36894 40.21948,30.55934 L40.21948,30.55934 C40.21948,30.74834 40.37488,30.90374 40.56388,30.90374 L42.85148,30.90374 C43.04188,30.90374 43.19728,30.74834 43.19728,30.55934 L43.19728,30.55934 C43.19728,30.36894 43.04188,30.21354 42.85148,30.21354" mask="url(#b)"/>
    <path fill="#323232" mask="url(#b)"/>
    <path fill="#323232" d="M36.44116,38.33732 C36.25496,38.50672 36.19756,38.59492 35.63476,38.51372 C35.07196,38.43112 23.95876,36.81272 23.95876,36.81272 C23.95876,36.81272 22.82616,36.75532 22.68616,36.40532 C22.54756,36.05532 22.82616,34.48172 23.15936,34.35992 C23.32316,34.29972 22.95636,34.32912 24.26956,34.42152 C25.60936,34.51532 26.97996,34.43412 27.22636,34.50552 C27.71636,34.64552 28.90496,35.29232 30.53176,35.41412 C32.15856,35.53732 35.06076,35.37912 35.49756,35.53732 C36.24376,35.80612 36.81636,37.99432 36.44116,38.33732" mask="url(#b)"/>
    <path fill="#323232" d="M22.48218,36.00352 L14.33698,34.83592 C14.17458,34.81352 13.99958,34.92412 13.99958,35.08792 L13.99958,35.08792 C13.99958,35.25032 14.08918,35.40152 14.25158,35.42392 L23.92838,36.81132 C25.25558,37.00032 22.75798,36.04272 22.48218,36.00352" mask="url(#b)"/>
    <path fill="#F3761E" d="M30.77606,45.23694 L30.13626,44.59714 L41.51686,46.04614 C42.64246,46.18894 43.83526,45.34754 44.51846,44.44174 L47.91486,39.93794 C47.43886,37.47814 46.09066,35.28714 44.24266,33.25014 L44.65006,33.05554 C46.62126,35.22134 48.05906,37.55234 48.56586,40.16894 L44.96646,44.94154 C44.24406,45.90194 42.97846,46.79374 41.78706,46.64114 L30.77606,45.23694 Z" mask="url(#b)"/>
    <path fill="#FCC556" d="M29.77296,44.23384 C30.88596,44.10084 31.81696,43.83904 32.88936,42.05124 C33.62436,40.82484 34.40136,39.10704 32.46516,38.54144 C30.47576,37.96044 25.91876,37.12604 23.21116,37.89324 C20.46436,38.67304 18.97336,40.37264 18.65696,41.65644 L29.77296,44.23384 Z" mask="url(#b)"/>
    <path fill="#F3AA1D" d="M29.39272,43.88874 C30.38812,43.76974 31.22112,43.53594 32.18152,41.93574 C32.83952,40.83814 33.53392,39.30094 31.80212,38.79414 C30.02132,38.27474 25.94312,37.52854 23.52112,38.21454 C20.98012,38.93414 19.64032,40.53434 19.42052,41.69494 C19.41072,41.74114 19.41492,41.78734 19.42752,41.83494 L28.54992,43.95034 C28.84812,43.94054 29.13092,43.91954 29.39272,43.88874" mask="url(#b)"/>
    <polygon fill="#F3761E" points="30.691 42.699 22.448 40.788 22.39 41.039 30.632 42.951" mask="url(#b)"/>
    <polygon fill="#F3761E" points="30.823 42.238 22.58 40.327 22.522 40.579 30.764 42.49" mask="url(#b)"/>
    <polygon fill="#F3761E" points="30.955 41.776 22.711 39.865 22.654 40.117 30.896 42.028" mask="url(#b)"/>
    <path fill="#323232" d="M18.65696,41.65616 L16.45896,45.92056 L16.65356,46.07176 C16.65356,46.07176 17.32136,45.89956 17.32136,45.68396 C17.32136,45.46836 19.72656,41.90396 19.72656,41.90396 L18.65696,41.65616 Z" mask="url(#b)"/>
    <path fill="#FFFFFF" d="M45.9732,28.86926 C46.725,29.89686 46.725,30.97346 45.8906,32.10606 C45.906,32.12286 45.9214,32.13686 45.9368,32.15086 L45.8906,32.10606 C44.9946,31.12326 45.5952,29.15626 45.9732,28.86926" mask="url(#b)"/>
    <path fill="#CFEEFF" d="M46.15758,29.1473 C46.66858,30.0055 46.65738,30.8987 46.07778,31.8297 C45.59618,30.9869 45.85658,29.7269 46.15758,29.1473" mask="url(#b)"/>
    <path fill="#FFFFFF" mask="url(#b)"/>
    <path fill="#F3761E" d="M29.43444,48.00432 C30.13864,47.79852 30.54184,47.06212 30.33744,46.35792 C30.13164,45.65512 29.39524,45.25052 28.69104,45.45632 L22.85864,46.37192 L22.85864,46.37192 C22.69064,46.38032 22.52124,46.40692 22.35324,46.45592 C21.21784,46.78772 20.56544,47.97632 20.89584,49.11172 C21.22764,50.24712 22.41624,50.89812 23.55164,50.56772 C23.71964,50.51872 23.87784,50.45012 24.02204,50.36612 L24.02204,50.36612 L29.43444,48.00432 Z" mask="url(#b)"/>
    <path fill="#F3AA1D" d="M28.84084 45.96844C28.42084 46.09164 28.17864 46.53124 28.30184 46.95264 28.42364 47.37264 28.86464 47.61484 29.28464 47.49164 29.70604 47.36844 29.94684 46.92884 29.82504 46.50744 29.70184 46.08744 29.26084 45.84524 28.84084 45.96844M22.58326 47.27912C21.90566 47.47652 21.51506 48.18632 21.71386 48.86532 21.91126 49.54292 22.62106 49.93212 23.29866 49.73472 23.97766 49.53732 24.36686 48.82752 24.16946 48.14852 23.97206 47.47092 23.26086 47.08172 22.58326 47.27912" mask="url(#b)"/>
    <path fill="#E8B185" d="M37.9316,32.62798 L37.8742,32.62798 C36.9278,32.62798 36.5344,33.30418 36.5764,34.24918 L36.9306,42.10038 L38.7282,42.37758 L39.6522,34.34858 C39.7614,33.40918 38.878,32.62798 37.9316,32.62798" mask="url(#b)"/>
    <path fill="#E8B185" d="M28.3941,33.2388 L28.3829,33.2948 C28.2023,34.2244 28.8015,35.2814 29.7451,35.3514 L37.7083,35.9436 L37.9309,32.6284 L30.4115,31.8766 C29.1235,31.7478 30.7027,20.8474 28.3941,33.2388" mask="url(#b)"/>
    <path fill="#323232" d="M38.91412,42.40628 C39.96132,42.61908 41.45652,43.24768 41.28852,44.50768 L36.67552,43.79508 L36.93032,42.09968 L38.91412,42.40628 Z" mask="url(#b)"/>
    <path fill="#F9D7D4" d="M33.05204,23.8987 C33.16964,23.3387 33.49444,22.7507 34.34704,22.7213 C34.70964,22.7087 34.86364,22.3727 34.64104,22.0829 C34.57104,21.9919 34.93084,21.9611 34.70124,21.7609 C34.61024,21.6811 34.89864,21.6475 34.79504,21.5047 C34.59764,21.2345 34.76004,21.2975 34.87764,21.2485 C35.15764,21.1323 34.77824,20.7193 34.66064,20.4253 C34.54304,20.1299 34.55284,19.6595 34.55284,19.3655 C34.55284,19.0701 30.55024,18.5409 30.81484,19.9535 C31.07944,21.3661 31.96284,22.9271 31.69824,23.7517 C31.43224,24.5763 32.72864,24.8703 33.05204,23.8987" mask="url(#b)"/>
    <path fill="#183953" d="M31.72344,23.28354 C30.30804,23.29894 29.79144,24.50574 29.52544,25.79094 C29.23004,27.22034 28.88004,31.04094 28.67284,31.96634 C28.47124,32.87074 32.46544,33.18854 33.60644,32.28554 C34.29804,31.73814 33.58404,29.22234 33.93824,27.38414 C34.11744,26.46154 33.90324,24.02974 33.07164,23.60274 C32.75384,23.87574 32.01884,23.85334 31.72344,23.28354" mask="url(#b)"/>
    <path fill="#F9D7D4" d="M31.76306,26.1289 L31.76306,26.1289 C31.41446,26.4775 31.19886,26.9591 31.48166,27.3623 L34.25086,31.3089 C34.53366,31.7121 35.04326,31.8101 35.48426,31.5903 C35.92386,31.3705 36.04846,30.7601 35.76566,30.3569 L32.99646,26.4103 C32.71366,26.0085 32.18026,25.8671 31.76306,26.1289" mask="url(#b)"/>
    <path fill="#FFFFFF" d="M31.07972,25.04096 L31.07972,25.04096 C30.45952,25.43016 30.27192,26.25616 30.66112,26.87496 L31.56272,28.31276 L33.81672,26.89736 L32.91372,25.45956 C32.52452,24.84076 31.69992,24.65176 31.07972,25.04096" mask="url(#b)"/>
    <path fill="#F9D7D4" d="M39.3491,29.575 L34.9391,30.0412 C34.4491,30.093 34.3763,30.6824 34.3763,31.1738 L34.3763,31.1752 C34.3763,31.6666 35.0413,31.8878 35.5089,31.7366 L39.5493,30.4402 C40.6763,30.0776 40.5265,29.4504 39.3491,29.575" mask="url(#b)"/>
    <path fill="#F9D7D4" d="M39.52984,29.56436 C40.63024,29.44256 41.49964,29.60356 41.57244,30.59616 C41.64524,31.59016 41.06004,30.81176 41.01524,30.52336 C40.97604,30.26996 40.49024,30.02076 40.23684,30.42676 C39.86444,31.02036 39.56764,30.41556 39.10424,30.56116 C38.64504,30.70536 38.71224,29.65396 39.52984,29.56436" mask="url(#b)"/>
    <path fill="#9E4B0F" d="M34.77992,18.8153 C34.77992,19.2563 34.24372,19.8401 33.45692,20.2181 C32.66872,20.5961 31.25052,21.6195 31.37652,21.9513 C31.50252,22.2817 30.25792,21.6041 30.13192,20.2181 C30.00592,18.8307 33.56612,16.4675 34.77992,18.8153" mask="url(#b)"/>
    <path fill="#323232" d="M33.21878,23.76486 C32.99058,23.57306 32.64198,22.76806 32.34378,22.31026 L32.34098,22.30606 L32.30318,22.25006 L32.27238,22.20526 L32.24018,22.15906 L32.20518,22.11146 L32.19958,22.10446 C32.17998,22.07786 32.16038,22.05266 32.14218,22.02746 L32.12958,22.01206 L32.09878,21.97146 L32.06098,21.92666 L32.02598,21.88326 L31.98958,21.84126 C31.96718,21.81466 31.94478,21.78946 31.92098,21.76426 L31.91678,21.75866 L31.90838,21.75026 L31.87898,21.71806 L31.84258,21.68026 L31.80338,21.64106 L31.76278,21.60046 C31.73898,21.57806 31.71658,21.55566 31.69278,21.53466 L31.68858,21.53046 L31.65078,21.49686 C31.62558,21.47446 31.60038,21.45346 31.57518,21.43246 L31.57238,21.42966 C31.54858,21.41006 31.52478,21.39046 31.50098,21.37226 L31.49258,21.36666 C30.99978,20.98446 30.47338,20.82206 29.97778,20.88226 C29.79998,20.51406 29.70058,20.10106 29.70058,19.66426 C29.70058,18.11586 30.95638,16.86006 32.50478,16.86006 C33.78298,16.86006 34.85958,17.71406 35.19838,18.88166 C33.14598,19.69926 32.81418,20.61766 33.61218,23.17406 C33.42458,23.33226 33.29998,23.54226 33.21878,23.76486" mask="url(#b)"/>
    <path fill="#55615D" d="M32.5171,17.09736 C33.4635,17.11696 34.3147,17.62236 34.6871,18.42456 C34.8677,18.81376 34.4869,18.91736 34.3147,18.59956 C33.9703,17.96536 33.2843,17.53136 32.5101,17.54676 C31.9347,17.55796 31.9655,17.08616 32.5171,17.09736" mask="url(#b)"/>
    <polygon fill="#ED402F" points="23.815 27.58 15.373 26.37 14.163 34.812 22.605 36.02" mask="url(#b)"/>
    <polygon fill="#991F1A" points="23.155 31.7 14.713 30.49 14.164 34.811 22.605 36.02" mask="url(#b)"/>
  </g>
</svg>
