<svg xmlns="http://www.w3.org/2000/svg" width="104" height="60" viewBox="0 0 104 60" xmlns:xlink="http://www.w3.org/1999/xlink">
  <defs>
    <polygon id="a" points="88.088 0 .688 0 .688 55.095 88.088 55.095 88.088 0"/>
    <polygon id="c" points="103.184 6 103.184 1.166 0 1.166 0 6"/>
    <polygon id="e" points="0 60 103.184 60 103.184 0 0 0"/>
  </defs>
  <g fill="none" fill-rule="evenodd">
    <path fill="#C8C8C8" d="M35.72484,55.16616 C35.80164,55.90056 36.39324,56.48496 37.14204,56.48496 L66.04044,56.48496 C66.79284,56.48496 67.37964,55.90056 67.46004,55.16616 L35.72484,55.16616 L35.72484,55.16616 Z"/>
    <path fill="#323232" d="M10.24308,54.90756 L92.94108,54.90756 L95.09988,54.90756 L95.09988,2.35236 C95.09988,1.16556 94.14108,0.18756 92.94108,0.18756 L10.24308,0.18756 C9.04188,0.18756 8.07588,1.16556 8.07588,2.35236 L8.07588,54.90756 L10.24308,54.90756 Z"/>
    <g transform="translate(7.2)">
      <mask id="b" fill="white">
        <use xlink:href="#a"/>
      </mask>
      <path fill="#424242" d="M1.06392,54.71868 L87.71232,54.71868 L87.71232,2.35188 C87.71232,1.26228 86.82792,0.37668 85.74192,0.37668 L3.04272,0.37668 C1.95192,0.37668 1.06392,1.26228 1.06392,2.35188 L1.06392,54.71868 Z M87.89952,55.09548 L0.87552,55.09548 C0.77232,55.09548 0.68832,55.01028 0.68832,54.90708 L0.68832,2.35188 C0.68832,1.05468 1.74432,-0.00012 3.04272,-0.00012 L85.74192,-0.00012 C87.03552,-0.00012 88.08792,1.05468 88.08792,2.35188 L88.08792,54.90708 C88.08792,55.01028 88.00392,55.09548 87.89952,55.09548 L87.89952,55.09548 Z" mask="url(#b)"/>
    </g>
    <g transform="translate(0 54)">
      <mask id="d" fill="white">
        <use xlink:href="#c"/>
      </mask>
      <path fill="#E1E1E1" d="M103.12644,1.16616 L67.46004,1.16616 C67.37964,1.90056 66.79164,2.48496 66.03924,2.48496 L37.14204,2.48496 C36.39324,2.48496 35.80164,1.90056 35.72484,1.16616 L0.05484,1.16616 C0.04284,1.34136 -0.00036,1.50696 -0.00036,1.68696 L-0.00036,3.25656 C-0.00036,5.84736 2.09604,5.99976 4.69764,5.99976 L98.48724,5.99976 C101.06964,5.99976 103.18524,5.84736 103.18524,3.25656 L103.18524,1.68696 C103.18524,1.50696 103.14324,1.34136 103.12644,1.16616" mask="url(#d)"/>
    </g>
    <mask id="f" fill="white">
      <use xlink:href="#e"/>
    </mask>
    <polygon fill="#ECECEC" points="13.472 49.579 89.713 49.579 89.713 5.395 13.472 5.395" mask="url(#f)"/>
    <path fill="#FFFFFF" d="M55.3962,31.51932 C55.3962,33.64092 53.6766,35.36052 51.555,35.36052 C49.4334,35.36052 47.7138,33.64092 47.7138,31.51932 C47.7138,29.39772 49.4334,27.67812 51.555,27.67812 C53.6766,27.67812 55.3962,29.39772 55.3962,31.51932" mask="url(#f)"/>
    <path fill="#22415B" d="M51.55524,27.95772 C49.59084,27.95772 47.99364,29.55492 47.99364,31.51932 C47.99364,33.48372 49.59084,35.08092 51.55524,35.08092 C53.51964,35.08092 55.11684,33.48372 55.11684,31.51932 C55.11684,29.55492 53.51964,27.95772 51.55524,27.95772 M51.55524,35.36052 C49.43724,35.36052 47.71404,33.63732 47.71404,31.51932 C47.71404,29.40132 49.43724,27.67812 51.55524,27.67812 C53.67324,27.67812 55.39644,29.40132 55.39644,31.51932 C55.39644,33.63732 53.67324,35.36052 51.55524,35.36052" mask="url(#f)"/>
    <path fill="#22415B" d="M52.42152,29.94096 L52.42152,29.94096 C52.35912,29.87976 52.27512,29.84136 52.18272,29.84136 L50.92872,29.84136 C50.83512,29.84136 50.75112,29.87976 50.68872,29.94096 C50.62752,30.00216 50.59032,30.08736 50.59032,30.17976 L50.59032,32.85936 C50.59032,32.95176 50.62752,33.03696 50.68872,33.09816 C50.75112,33.15936 50.83512,33.19656 50.92872,33.19656 L52.18272,33.19656 C52.27512,33.19656 52.35912,33.15936 52.42152,33.09816 L52.42152,33.09816 C52.48272,33.03696 52.52112,32.95176 52.52112,32.85936 L52.52112,30.17976 C52.52112,30.08736 52.48272,30.00216 52.42152,29.94096" mask="url(#f)"/>
    <path fill="#FFFFFF" d="M52.26324,32.85888 C52.26324,32.88048 52.25364,32.90088 52.23924,32.91648 L52.23924,32.91648 C52.22484,32.93088 52.20444,32.93928 52.18284,32.93928 L50.92884,32.93928 C50.90604,32.93928 50.88564,32.93088 50.87124,32.91648 C50.85684,32.90088 50.84724,32.88048 50.84724,32.85888 L50.84724,30.18048 C50.84724,30.15768 50.85684,30.13728 50.87124,30.12288 C50.88564,30.10848 50.90604,30.09888 50.92884,30.09888 L52.18284,30.09888 C52.20444,30.09888 52.22484,30.10848 52.23924,30.12288 L52.23924,30.12288 C52.25364,30.13728 52.26324,30.15768 52.26324,30.18048 L52.26324,32.85888 Z" mask="url(#f)"/>
    <path fill="#E84131" d="M51.55524 32.59728C51.49404 32.59728 51.44604 32.64648 51.44604 32.70768 51.44604 32.76768 51.49404 32.81688 51.55524 32.81688 51.61644 32.81688 51.66564 32.76768 51.66564 32.70768 51.66564 32.64648 51.61644 32.59728 51.55524 32.59728M51.1128 32.3376L51.9972 32.3376 51.9972 30.3996 51.1128 30.3996 51.1128 32.3376zM51.0276 30.2292L50.9424 30.2292 50.9424 30.3144 50.9424 32.424 50.9424 32.5104 51.0276 32.5104 52.0824 32.5104 52.1688 32.5104 52.1688 32.424 52.1688 30.3144 52.1688 30.2292 52.0824 30.2292 51.0276 30.2292z" mask="url(#f)"/>
    <path fill="#FFFFFF" d="M27.19284,31.51932 C27.19284,33.64092 25.47324,35.36052 23.35164,35.36052 C21.23004,35.36052 19.51044,33.64092 19.51044,31.51932 C19.51044,29.39772 21.23004,27.67812 23.35164,27.67812 C25.47324,27.67812 27.19284,29.39772 27.19284,31.51932" mask="url(#f)"/>
    <path fill="#22415B" d="M23.35188,27.9576 C21.38748,27.9576 19.79028,29.5548 19.79028,31.5192 C19.79028,33.4836 21.38748,35.0808 23.35188,35.0808 C25.31628,35.0808 26.91348,33.4836 26.91348,31.5192 C26.91348,29.5548 25.31628,27.9576 23.35188,27.9576 M23.35188,35.3604 C21.23388,35.3604 19.51068,33.6372 19.51068,31.5192 C19.51068,29.4012 21.23388,27.678 23.35188,27.678 C25.46988,27.678 27.19308,29.4012 27.19308,31.5192 C27.19308,33.6372 25.46988,35.3604 23.35188,35.3604" mask="url(#f)"/>
    <path fill="#FFFFFF" d="M24.1818,32.78976 C23.9694,33.00216 23.6766,33.13416 23.3526,33.13416 C23.0274,33.13416 22.7346,33.00216 22.5222,32.78976 C22.3098,32.57736 22.179,32.28456 22.179,31.96056 C22.179,31.63656 22.3098,31.34256 22.5222,31.13016 C22.7346,30.91776 23.0274,30.78576 23.3526,30.78576 C23.6766,30.78576 23.9694,30.91776 24.1818,31.13016 C24.3942,31.34256 24.525,31.63656 24.525,31.96056 C24.525,32.28456 24.3942,32.57736 24.1818,32.78976" mask="url(#f)"/>
    <path fill="#22415B" d="M24.1818,32.78976 C23.9694,33.00216 23.6766,33.13416 23.3526,33.13416 C23.0274,33.13416 22.7346,33.00216 22.5222,32.78976 C22.3098,32.57736 22.179,32.28456 22.179,31.96056 C22.179,31.63656 22.3098,31.34256 22.5222,31.13016 C22.7346,30.91776 23.0274,30.78576 23.3526,30.78576 C23.6766,30.78576 23.9694,30.91776 24.1818,31.13016 C24.3942,31.34256 24.525,31.63656 24.525,31.96056 C24.525,32.28456 24.3942,32.57736 24.1818,32.78976 M24.423,30.88896 C24.1482,30.61536 23.7702,30.44496 23.3526,30.44496 C22.9338,30.44496 22.5546,30.61536 22.281,30.88896 C22.0062,31.16256 21.837,31.54176 21.837,31.96056 C21.837,32.37816 22.0062,32.75736 22.281,33.03096 C22.5546,33.30576 22.9338,33.47496 23.3526,33.47496 C23.7702,33.47496 24.1482,33.30576 24.423,33.03096 C24.6966,32.75736 24.867,32.37816 24.867,31.96056 C24.867,31.54176 24.6966,31.16256 24.423,30.88896" mask="url(#f)"/>
    <path fill="#E84131" d="M23.02128,30.32232 C23.12808,30.29832 23.23848,30.28632 23.35248,30.28632 C23.46528,30.28632 23.57568,30.29832 23.68248,30.32232 L23.96448,29.98992 L24.00288,29.94432 L23.96928,29.89512 L23.76888,29.59872 L23.74608,29.56392 L23.70408,29.56392 L23.36208,29.56392 L23.34168,29.56392 L22.99968,29.56392 L22.95768,29.56392 L22.93488,29.59872 L22.73448,29.89512 L22.70088,29.94432 L22.73928,29.98992 L23.02128,30.32232 Z" mask="url(#f)"/>
    <path fill="#FFFFFF" d="M36.59388,31.51932 C36.59388,33.64092 34.87428,35.36052 32.75268,35.36052 C30.63108,35.36052 28.91148,33.64092 28.91148,31.51932 C28.91148,29.39772 30.63108,27.67812 32.75268,27.67812 C34.87428,27.67812 36.59388,29.39772 36.59388,31.51932" mask="url(#f)"/>
    <path fill="#22415B" d="M32.75292,27.9576 C30.78852,27.9576 29.19132,29.5548 29.19132,31.5192 C29.19132,33.4836 30.78852,35.0808 32.75292,35.0808 C34.71732,35.0808 36.31452,33.4836 36.31452,31.5192 C36.31452,29.5548 34.71732,27.9576 32.75292,27.9576 M32.75292,35.3604 C30.63492,35.3604 28.91172,33.6372 28.91172,31.5192 C28.91172,29.4012 30.63492,27.678 32.75292,27.678 C34.87092,27.678 36.59412,29.4012 36.59412,31.5192 C36.59412,33.6372 34.87092,35.3604 32.75292,35.3604" mask="url(#f)"/>
    <path fill="#FFFFFF" d="M31.7952,32.86956 C31.7076,32.95836 31.5852,33.01236 31.4508,33.01236 C31.3164,33.01236 31.1952,32.95836 31.1064,32.86956 C31.0188,32.78196 30.9636,32.65956 30.9636,32.52516 C30.9636,32.39076 31.0188,32.26956 31.1064,32.18076 C31.1952,32.09316 31.3164,32.03916 31.4508,32.03916 C31.5852,32.03916 31.7076,32.09316 31.7952,32.18076 C31.8828,32.26956 31.938,32.39076 31.938,32.52516 C31.938,32.65956 31.8828,32.78196 31.7952,32.86956" mask="url(#f)"/>
    <path fill="#FFFFFF" d="M33.3462 32.45688L32.1906 32.45688C32.1738 32.27928 32.0958 32.11968 31.9758 32.00088 31.8414 31.86528 31.6554 31.78248 31.4514 31.78248 31.2462 31.78248 31.0602 31.86528 30.9258 32.00088 30.867 32.05968 30.8178 32.12808 30.7818 32.20368 30.7746 32.14008 30.771 32.06088 30.7746 31.96008 30.7794 31.75968 30.8334 31.52088 30.975 31.35648 31.077 31.24008 31.2282 31.15968 31.4478 31.15968L31.4562 30.90408C31.4562 30.90408 31.4034 30.90168 31.4058 30.85968 31.4106 30.79488 31.5066 30.74808 31.5486 30.73128L32.265 30.73128C32.2866 30.75168 32.3166 30.79128 32.313 30.85488 32.3094 30.91608 32.2398 30.93408 32.2182 30.93768L32.0118 30.93768 31.8834 30.93768 31.8834 31.06608 31.8834 31.46328C31.8426 31.55928 31.7754 31.82568 32.283 31.82568L33.2418 31.82568 33.285 31.82568 33.3198 31.79808C33.321 31.79688 33.7866 31.44528 33.7866 31.03128 33.7866 30.66528 33.6762 30.30288 33.6762 30.30168 33.5502 30.20208 33.3618 30.23808 33.219 30.23808 33.1374 30.23808 33.0942 30.22248 33.075 30.19968 33.0582 30.18048 33.0534 30.14928 33.0534 30.11808 33.0534 30.10608 33.243 30.04968 33.3126 30.03048 33.3486 30.03528 33.423 30.04848 33.5106 30.07848 33.597 30.10368 33.6258 30.12288 33.6258 30.12288 33.8142 30.20808 34.0158 30.36528 34.0506 30.65208 34.1226 31.24248 34.1142 31.70568 34.1118 31.78368 34.1034 31.78248 34.095 31.78248 34.0854 31.78248 33.8802 31.78248 33.6954 31.86528 33.561 32.00088 33.441 32.11968 33.363 32.27928 33.3462 32.45688M34.43016 32.18136C34.51776 32.26896 34.57296 32.39136 34.57296 32.52576 34.57296 32.66016 34.51776 32.78256 34.43016 32.87016 34.34256 32.95776 34.22016 33.01296 34.08576 33.01296 33.95136 33.01296 33.83016 32.95776 33.74136 32.87016 33.65376 32.78256 33.59856 32.66016 33.59856 32.52576 33.59856 32.39136 33.65376 32.26896 33.74136 32.18136 33.83016 32.09256 33.95136 32.03856 34.08576 32.03856 34.22016 32.03856 34.34256 32.09256 34.43016 32.18136M34.47936 30.35832C34.50816 30.34632 34.59456 30.31392 34.65816 30.34872 34.69296 30.36792 34.71096 30.39192 34.71936 30.41832 34.73136 30.45432 34.73256 30.49992 34.73256 30.54072 34.73256 30.55752 34.71456 30.58152 34.69056 30.60432 34.66536 30.62712 34.63536 30.64392 34.61136 30.64392 34.56816 30.64392 34.43256 30.55152 34.32696 30.47352 34.38936 30.42672 34.45416 30.37752 34.47936 30.35832" mask="url(#f)"/>
    <path fill="#22415B" d="M34.47936,30.35832 C34.50816,30.34632 34.59456,30.31392 34.65816,30.34872 C34.69296,30.36792 34.71096,30.39192 34.71936,30.41832 C34.73136,30.45432 34.73256,30.49992 34.73256,30.54072 C34.73256,30.55752 34.71456,30.58152 34.69056,30.60432 C34.66536,30.62712 34.63536,30.64392 34.61136,30.64392 C34.56816,30.64392 34.43256,30.55152 34.32696,30.47352 C34.38936,30.42672 34.45416,30.37752 34.47936,30.35832 M34.43016,32.18112 C34.51776,32.26872 34.57296,32.39112 34.57296,32.52552 C34.57296,32.65992 34.51776,32.78232 34.43016,32.86992 C34.34256,32.95752 34.22016,33.01272 34.08576,33.01272 C33.95136,33.01272 33.83016,32.95752 33.74136,32.86992 C33.65376,32.78232 33.59856,32.65992 33.59856,32.52552 C33.59856,32.39112 33.65376,32.26872 33.74136,32.18112 C33.83016,32.09352 33.95136,32.03832 34.08576,32.03832 C34.22016,32.03832 34.34256,32.09352 34.43016,32.18112 M33.34656,32.45712 L32.19096,32.45712 C32.17416,32.27952 32.09496,32.11992 31.97616,31.99992 C31.84176,31.86552 31.65576,31.78272 31.45056,31.78272 C31.24536,31.78272 31.06056,31.86552 30.92616,31.99992 C30.86736,32.05872 30.81816,32.12712 30.78096,32.20272 C30.77376,32.14032 30.77136,32.06112 30.77376,31.96032 C30.77976,31.75872 30.83376,31.52112 30.97536,31.35672 C31.07616,31.24032 31.22856,31.15992 31.44816,31.15992 L31.45656,30.90432 C31.45656,30.90432 31.40376,30.90072 31.40616,30.85992 C31.41096,30.79512 31.50696,30.74832 31.54896,30.73152 L32.26416,30.73152 C32.28696,30.75192 32.31696,30.79152 32.31336,30.85512 C32.30976,30.91632 32.24016,30.93432 32.21856,30.93792 L32.01216,30.93792 L31.88376,30.93792 L31.88376,31.06512 L31.88376,31.46352 C31.84296,31.55952 31.77576,31.82472 32.28216,31.82472 L33.24216,31.82472 L33.28416,31.82472 L33.32016,31.79832 C33.32016,31.79712 33.78696,31.44552 33.78696,31.03152 C33.78696,30.66432 33.67656,30.30312 33.67656,30.30192 C33.55056,30.20112 33.36216,30.23832 33.21936,30.23832 C33.13776,30.23832 33.09456,30.22272 33.07416,30.19992 C33.05736,30.18072 33.05376,30.14952 33.05376,30.11832 C33.05376,30.10512 33.24336,30.04992 33.31296,30.02952 C33.34896,30.03552 33.42216,30.04872 33.51096,30.07752 C33.59736,30.10272 33.62616,30.12312 33.62616,30.12312 C33.81336,30.20832 34.01616,30.36552 34.05096,30.65232 C34.12176,31.24272 34.11456,31.70592 34.11216,31.78272 L34.08576,31.78272 C33.88056,31.78272 33.69456,31.86552 33.56016,31.99992 C33.44136,32.11992 33.36216,32.27952 33.34656,32.45712 M31.79496,32.86992 C31.70736,32.95752 31.58496,33.01272 31.45056,33.01272 C31.31616,33.01272 31.19496,32.95752 31.10616,32.86992 C31.01856,32.78232 30.96336,32.65992 30.96336,32.52552 C30.96336,32.39112 31.01856,32.26872 31.10616,32.18112 C31.19496,32.09352 31.31616,32.03832 31.45056,32.03832 C31.58496,32.03832 31.70736,32.09352 31.79496,32.18112 C31.88376,32.26872 31.93776,32.39112 31.93776,32.52552 C31.93776,32.65992 31.88376,32.78232 31.79496,32.86992 M34.86456,30.79152 C34.93776,30.72312 34.98816,30.62952 34.98816,30.54072 C34.98816,30.48072 34.98576,30.41112 34.96056,30.33792 C34.93296,30.25512 34.88016,30.17952 34.77936,30.12432 C34.58616,30.01872 34.35936,30.13272 34.35936,30.13272 L34.34856,30.13752 L34.33776,30.14592 C34.33776,30.14592 34.25856,30.20592 34.18056,30.26472 C33.91176,29.83512 33.32016,29.77272 33.31776,29.77272 L33.29256,29.77032 L33.26856,29.77632 C33.26736,29.77752 32.79816,29.90832 32.79816,30.11832 C32.79816,30.19992 32.81616,30.29232 32.88336,30.36912 C32.94816,30.44232 33.05256,30.49392 33.21936,30.49392 C33.31656,30.49392 33.40056,30.51192 33.46056,30.49152 C33.49536,30.63792 33.53136,30.83112 33.53136,31.03152 C33.53136,31.26552 33.28776,31.49352 33.19656,31.56912 L32.28216,31.56912 C32.11176,31.56912 32.12256,31.55592 32.12256,31.55592 L32.13936,31.52592 L32.13936,31.49232 L32.13936,31.19352 L32.22576,31.19352 L32.23176,31.19352 L32.24016,31.19232 C32.24016,31.19232 32.54976,31.15872 32.56776,30.87072 C32.58456,30.60792 32.36856,30.49152 32.36736,30.49152 L32.33856,30.47472 L32.30496,30.47472 L31.52736,30.47472 L31.50576,30.47472 L31.48536,30.48312 C31.48416,30.48312 31.16856,30.58752 31.15176,30.84312 C31.14816,30.88152 31.15176,30.91512 31.15896,30.94512 C31.00056,30.99312 30.87816,31.07952 30.78216,31.18992 C30.59616,31.40472 30.52656,31.70472 30.51936,31.95312 C30.51336,32.16912 30.53136,32.31432 30.56496,32.40912 C30.59976,32.50392 30.65016,32.56032 30.71136,32.58912 C30.72576,32.76912 30.80496,32.92992 30.92616,33.05112 C31.06056,33.18552 31.24536,33.26832 31.45056,33.26832 C31.65576,33.26832 31.84176,33.18552 31.97616,33.05112 C32.06856,32.95872 32.13576,32.84232 32.16936,32.71272 L33.36696,32.71272 C33.40056,32.84232 33.46896,32.95872 33.56016,33.05112 C33.69456,33.18552 33.88056,33.26832 34.08576,33.26832 C34.29096,33.26832 34.47696,33.18552 34.61136,33.05112 C34.74576,32.91672 34.82856,32.73072 34.82856,32.52552 C34.82856,32.32032 34.74576,32.13432 34.61136,31.99992 C34.54056,31.92912 34.45536,31.87272 34.36056,31.83552 C34.36416,31.72272 34.37256,31.28712 34.32216,30.77472 C34.42896,30.84192 34.54296,30.90072 34.61136,30.90072 C34.70376,30.90072 34.79616,30.85512 34.86456,30.79152" mask="url(#f)"/>
    <path fill="#E84131" d="M33.86052 32.52552C33.86052 32.65032 33.96132 32.75112 34.08612 32.75112 34.20972 32.75112 34.31052 32.65032 34.31052 32.52552 34.31052 32.40072 34.20972 32.29992 34.08612 32.29992 33.96132 32.29992 33.86052 32.40072 33.86052 32.52552M31.4508 32.30016C31.326 32.30016 31.2252 32.40096 31.2252 32.52576 31.2252 32.65056 31.326 32.75016 31.4508 32.75016 31.5756 32.75016 31.6764 32.65056 31.6764 32.52576 31.6764 32.40096 31.5756 32.30016 31.4508 32.30016" mask="url(#f)"/>
    <path fill="#FFFFFF" d="M45.99504,31.51932 C45.99504,33.64092 44.27544,35.36052 42.15384,35.36052 C40.03224,35.36052 38.31264,33.64092 38.31264,31.51932 C38.31264,29.39772 40.03224,27.67812 42.15384,27.67812 C44.27544,27.67812 45.99504,29.39772 45.99504,31.51932" mask="url(#f)"/>
    <path fill="#22415B" d="M42.15408,27.95772 C40.18968,27.95772 38.59248,29.55492 38.59248,31.51932 C38.59248,33.48372 40.18968,35.08092 42.15408,35.08092 C44.11848,35.08092 45.71568,33.48372 45.71568,31.51932 C45.71568,29.55492 44.11848,27.95772 42.15408,27.95772 M42.15408,35.36052 C40.03608,35.36052 38.31288,33.63732 38.31288,31.51932 C38.31288,29.40132 40.03608,27.67812 42.15408,27.67812 C44.27208,27.67812 45.99528,29.40132 45.99528,31.51932 C45.99528,33.63732 44.27208,35.36052 42.15408,35.36052" mask="url(#f)"/>
    <path fill="#22415B" d="M43.79208,32.11752 C43.86768,32.04192 43.91448,31.93632 43.91448,31.82112 L43.91448,30.26352 C43.91448,30.14712 43.86648,30.04152 43.79088,29.96592 C43.71408,29.88912 43.60848,29.84112 43.49208,29.84112 L40.79928,29.84112 C40.68288,29.84112 40.57728,29.88912 40.50168,29.96592 C40.42488,30.04152 40.37688,30.14712 40.37688,30.26352 L40.37688,31.82112 C40.37688,31.93632 40.42368,32.04192 40.49928,32.11752 C40.41288,32.20512 40.05888,32.67192 40.05888,32.77512 C40.05888,32.89032 40.10688,32.99712 40.18248,33.07272 C40.25928,33.14952 40.36488,33.19632 40.48128,33.19632 L43.82688,33.19632 C43.94328,33.19632 44.04888,33.14952 44.12568,33.07272 C44.20128,32.99712 44.24928,32.89032 44.24928,32.77512 C44.24928,32.58432 43.89168,32.21712 43.79208,32.11752" mask="url(#f)"/>
    <path fill="#FFFFFF" d="M40.62876 30.26364C40.62876 30.21684 40.64796 30.17484 40.67916 30.14364 40.71036 30.11244 40.75236 30.09324 40.79916 30.09324L43.49196 30.09324C43.53876 30.09324 43.58196 30.11244 43.61316 30.14364 43.64316 30.17484 43.66236 30.21684 43.66236 30.26364L43.66236 31.82124C43.66236 31.86804 43.64316 31.91124 43.61316 31.94244 43.58196 31.97244 43.53876 31.99164 43.49196 31.99164L40.79916 31.99164C40.75236 31.99164 40.71036 31.97244 40.67916 31.94244 40.64796 31.91124 40.62876 31.86804 40.62876 31.82124L40.62876 30.26364zM43.99776 32.77488C43.99776 32.82168 43.97856 32.86368 43.94736 32.89488 43.91616 32.92608 43.87416 32.94528 43.82736 32.94528L40.48056 32.94528C40.43376 32.94528 40.39176 32.92608 40.36056 32.89488 40.32936 32.86368 40.31016 32.82168 40.31016 32.77488 40.35696 32.60328 40.61376 32.35848 40.67856 32.29368 40.70976 32.26248 40.75296 32.24328 40.79976 32.24328L43.49256 32.24328C43.53936 32.24328 43.58136 32.26248 43.61256 32.29368 43.69296 32.37408 44.02176 32.68488 43.99776 32.77488" mask="url(#f)"/>
    <polygon fill="#E84131" points="40.824 31.774 43.469 31.774 43.469 30.311 40.824 30.311" mask="url(#f)"/>
    <polygon fill="#E84131" points="41.711 32.744 42.598 32.744 42.598 32.492 41.711 32.492" mask="url(#f)"/>
    <path fill="#FFFFFF" d="M64.79724,31.51932 C64.79724,33.64092 63.07764,35.36052 60.95604,35.36052 C58.83444,35.36052 57.11484,33.64092 57.11484,31.51932 C57.11484,29.39772 58.83444,27.67812 60.95604,27.67812 C63.07764,27.67812 64.79724,29.39772 64.79724,31.51932" mask="url(#f)"/>
    <path fill="#22415B" d="M60.95628,27.95772 C58.99188,27.95772 57.39468,29.55492 57.39468,31.51932 C57.39468,33.48372 58.99188,35.08092 60.95628,35.08092 C62.92068,35.08092 64.51788,33.48372 64.51788,31.51932 C64.51788,29.55492 62.92068,27.95772 60.95628,27.95772 M60.95628,35.36052 C58.83828,35.36052 57.11508,33.63732 57.11508,31.51932 C57.11508,29.40132 58.83828,27.67812 60.95628,27.67812 C63.07428,27.67812 64.79748,29.40132 64.79748,31.51932 C64.79748,33.63732 63.07428,35.36052 60.95628,35.36052" mask="url(#f)"/>
    <polygon fill="#22415B" points="60.412 30.151 61.501 30.151 61.501 29.854 60.412 29.854" mask="url(#f)"/>
    <path fill="#22415B" d="M62.90472,30.48636 C62.81472,30.39636 62.68872,30.33996 62.55192,30.33996 L59.36112,30.33996 C59.22312,30.33996 59.09832,30.39636 59.00832,30.48636 C58.91712,30.57636 58.86072,30.70236 58.86072,30.83916 L58.86072,32.68476 C58.86072,32.82276 58.91712,32.94756 59.00832,33.03876 C59.09832,33.12876 59.22312,33.18516 59.36112,33.18516 L62.55192,33.18516 C62.68872,33.18516 62.81472,33.12876 62.90472,33.03876 C62.99472,32.94756 63.05112,32.82276 63.05112,32.68476 L63.05112,30.83916 C63.05112,30.70236 62.99472,30.57636 62.90472,30.48636" mask="url(#f)"/>
    <path fill="#FFFFFF" d="M62.75352,32.68512 C62.75352,32.74032 62.72952,32.79072 62.69352,32.82792 C62.65752,32.86392 62.60712,32.88672 62.55192,32.88672 L59.36112,32.88672 C59.30592,32.88672 59.25552,32.86392 59.21832,32.82792 C59.18112,32.79072 59.15952,32.74032 59.15952,32.68512 L59.15952,30.83952 C59.15952,30.78432 59.18112,30.73392 59.21832,30.69672 C59.25552,30.65952 59.30592,30.63792 59.36112,30.63792 L62.55192,30.63792 C62.60712,30.63792 62.65752,30.65952 62.69352,30.69672 C62.72952,30.73392 62.75352,30.78432 62.75352,30.83952 L62.75352,32.68512 Z" mask="url(#f)"/>
    <path fill="#22415B" d="M60.95616,30.83208 C60.69936,30.83208 60.46656,30.93648 60.29856,31.10448 C60.13056,31.27248 60.02616,31.50528 60.02616,31.76208 C60.02616,32.01888 60.13056,32.25168 60.29856,32.41968 C60.46656,32.58888 60.69936,32.69208 60.95616,32.69208 C61.21296,32.69208 61.44576,32.58888 61.61376,32.41968 C61.78176,32.25168 61.88616,32.01888 61.88616,31.76208 C61.88616,31.50528 61.78176,31.27248 61.61376,31.10448 C61.44576,30.93648 61.21296,30.83208 60.95616,30.83208" mask="url(#f)"/>
    <path fill="#FFFFFF" d="M61.40352,32.20932 C61.28952,32.32332 61.13112,32.39532 60.95592,32.39532 C60.78192,32.39532 60.62352,32.32332 60.50952,32.20932 C60.39432,32.09532 60.32352,31.93692 60.32352,31.76172 C60.32352,31.58772 60.39432,31.42932 60.50952,31.31532 C60.62352,31.20012 60.78192,31.12932 60.95592,31.12932 C61.13112,31.12932 61.28952,31.20012 61.40352,31.31532 C61.51752,31.42932 61.58832,31.58772 61.58832,31.76172 C61.58832,31.93692 61.51752,32.09532 61.40352,32.20932" mask="url(#f)"/>
    <path fill="#E84131" d="M61.99296 31.60908L62.61456 31.60908 62.61456 31.31148 61.88976 31.31148C61.94016 31.40268 61.97496 31.50228 61.99296 31.60908M59.25816 31.60908L59.90016 31.60908C59.91696 31.50228 59.95296 31.40268 60.00336 31.31148L59.25816 31.31148 59.25816 31.60908zM60.95616 31.24992C60.67296 31.24992 60.44376 31.47912 60.44376 31.76232 60.44376 32.04552 60.67296 32.27472 60.95616 32.27472 61.23936 32.27472 61.46856 32.04552 61.46856 31.76232 61.46856 31.47912 61.23936 31.24992 60.95616 31.24992" mask="url(#f)"/>
    <path fill="#FFFFFF" d="M74.1984,31.51932 C74.1984,33.64092 72.4788,35.36052 70.3572,35.36052 C68.2356,35.36052 66.516,33.64092 66.516,31.51932 C66.516,29.39772 68.2356,27.67812 70.3572,27.67812 C72.4788,27.67812 74.1984,29.39772 74.1984,31.51932" mask="url(#f)"/>
    <path fill="#22415B" d="M70.35744,27.95772 C68.39304,27.95772 66.79584,29.55492 66.79584,31.51932 C66.79584,33.48372 68.39304,35.08092 70.35744,35.08092 C72.32184,35.08092 73.91904,33.48372 73.91904,31.51932 C73.91904,29.55492 72.32184,27.95772 70.35744,27.95772 M70.35744,35.36052 C68.23944,35.36052 66.51624,33.63732 66.51624,31.51932 C66.51624,29.40132 68.23944,27.67812 70.35744,27.67812 C72.47544,27.67812 74.19864,29.40132 74.19864,31.51932 C74.19864,33.63732 72.47544,35.36052 70.35744,35.36052" mask="url(#f)"/>
    <path fill="#22415B" d="M72.34884,30.17436 L72.34884,30.17436 C72.28524,30.11076 72.19764,30.07116 72.10044,30.07116 L68.61444,30.07116 C68.51724,30.07116 68.42964,30.11076 68.36604,30.17436 L68.36604,30.17436 C68.30244,30.23916 68.26284,30.32676 68.26284,30.42276 L68.26284,32.61516 C68.26284,32.71236 68.30244,32.80116 68.36604,32.86476 C68.42964,32.92836 68.51724,32.96796 68.61444,32.96796 L72.10044,32.96796 C72.19764,32.96796 72.28524,32.92836 72.34884,32.86476 C72.41244,32.80116 72.45204,32.71236 72.45204,32.61516 L72.45204,30.42276 C72.45204,30.32676 72.41244,30.23916 72.34884,30.17436" mask="url(#f)"/>
    <path fill="#FFFFFF" d="M72.18468,32.61564 C72.18468,32.63844 72.17508,32.66004 72.15948,32.67564 C72.14388,32.69004 72.12348,32.69964 72.10068,32.69964 L68.61468,32.69964 C68.59188,32.69964 68.57028,32.69004 68.55468,32.67564 C68.54028,32.66004 68.53068,32.63844 68.53068,32.61564 L68.53068,30.42324 C68.53068,30.39924 68.53908,30.37884 68.55468,30.36324 L68.55468,30.36324 C68.57028,30.34764 68.59188,30.33804 68.61468,30.33804 L72.10068,30.33804 C72.12348,30.33804 72.14388,30.34764 72.15948,30.36324 L72.16068,30.36324 C72.17508,30.37884 72.18468,30.39924 72.18468,30.42324 L72.18468,32.61564 Z" mask="url(#f)"/>
    <path fill="#E84131" d="M71.97696 31.40508C71.91336 31.40508 71.86296 31.45668 71.86296 31.51908 71.86296 31.58268 71.91336 31.63308 71.97696 31.63308 72.04056 31.63308 72.09096 31.58268 72.09096 31.51908 72.09096 31.45668 72.04056 31.40508 71.97696 31.40508M68.8428 32.4144L71.5584 32.4144 71.5584 30.6252 68.8428 30.6252 68.8428 32.4144zM68.754 30.4464L68.6652 30.4464 68.6652 30.5352 68.6652 32.5032 68.6652 32.592 68.754 32.592 71.6484 32.592 71.7372 32.592 71.7372 32.5032 71.7372 30.5352 71.7372 30.4464 71.6484 30.4464 68.754 30.4464z" mask="url(#f)"/>
    <path fill="#FFFFFF" d="M83.59944,31.51932 C83.59944,33.64092 81.87984,35.36052 79.75824,35.36052 C77.63664,35.36052 75.91704,33.64092 75.91704,31.51932 C75.91704,29.39772 77.63664,27.67812 79.75824,27.67812 C81.87984,27.67812 83.59944,29.39772 83.59944,31.51932" mask="url(#f)"/>
    <path fill="#22415B" d="M79.75848,27.95772 C77.79408,27.95772 76.19688,29.55492 76.19688,31.51932 C76.19688,33.48372 77.79408,35.08092 79.75848,35.08092 C81.72288,35.08092 83.32008,33.48372 83.32008,31.51932 C83.32008,29.55492 81.72288,27.95772 79.75848,27.95772 M79.75848,35.36052 C77.64048,35.36052 75.91728,33.63732 75.91728,31.51932 C75.91728,29.40132 77.64048,27.67812 79.75848,27.67812 C81.87648,27.67812 83.59968,29.40132 83.59968,31.51932 C83.59968,33.63732 81.87648,35.36052 79.75848,35.36052" mask="url(#f)"/>
    <path fill="#FFFFFF" d="M77.70876,32.22612 L81.80676,32.22612 C81.82116,32.21772 81.84276,32.18172 81.85476,32.15172 L81.85476,31.64652 C81.73836,31.50852 81.32916,31.40772 81.15036,31.36332 C81.03516,31.33572 80.98596,31.32372 80.95356,31.30452 C80.89116,31.26852 80.75076,31.10772 80.37756,30.64092 C80.34036,30.59412 80.31036,30.55692 80.29236,30.53532 C80.22036,30.44772 80.00676,30.37332 79.88556,30.35052 C79.79316,30.33372 79.12836,30.38292 78.96636,30.42612 C78.92916,30.43572 78.89916,30.44292 78.87036,30.45012 C78.77436,30.47292 78.71556,30.48612 78.51516,30.58692 C78.33876,30.67452 77.91996,31.15332 77.66436,31.47132 C77.66316,31.60452 77.66076,32.04132 77.66436,32.14212 C77.66676,32.17932 77.69076,32.20932 77.70876,32.22612" mask="url(#f)"/>
    <path fill="#22415B" d="M77.70876,32.22612 L81.80676,32.22612 C81.82116,32.21772 81.84276,32.18172 81.85476,32.15172 L81.85476,31.64652 C81.73836,31.50852 81.32916,31.40772 81.15036,31.36332 C81.03516,31.33572 80.98596,31.32372 80.95356,31.30452 C80.89116,31.26852 80.75076,31.10772 80.37756,30.64092 C80.34036,30.59412 80.31036,30.55692 80.29236,30.53532 C80.22036,30.44772 80.00676,30.37332 79.88556,30.35052 C79.79316,30.33372 79.12836,30.38292 78.96636,30.42612 C78.92916,30.43572 78.89916,30.44292 78.87036,30.45012 C78.77436,30.47292 78.71556,30.48612 78.51516,30.58692 C78.33876,30.67452 77.91996,31.15332 77.66436,31.47132 C77.66316,31.60452 77.66076,32.04132 77.66436,32.14212 C77.66676,32.17932 77.69076,32.20932 77.70876,32.22612 M81.80916,32.45172 L77.63916,32.45172 L77.61276,32.43492 C77.59596,32.42532 77.44836,32.33172 77.43996,32.15292 C77.43396,32.02692 77.43996,31.45572 77.43996,31.43052 L77.43996,31.39212 L77.46396,31.36212 C77.53116,31.27692 78.12996,30.52812 78.41436,30.38532 C78.63876,30.27252 78.71436,30.25572 78.81876,30.23052 C78.84516,30.22452 78.87396,30.21732 78.90876,30.20772 C79.07676,30.16332 79.78596,30.10212 79.92756,30.12852 C79.93116,30.12972 80.31156,30.20292 80.46636,30.39252 C80.48556,30.41532 80.51556,30.45252 80.55276,30.50052 C80.67396,30.65172 80.99316,31.04892 81.06636,31.10892 C81.08796,31.11612 81.14916,31.13172 81.20436,31.14492 C81.56916,31.23492 81.93756,31.34052 82.06356,31.55292 L82.08036,31.57932 L82.08036,32.18652 L82.07556,32.20212 C82.06716,32.22732 81.99516,32.45172 81.80916,32.45172" mask="url(#f)"/>
    <path fill="#E84131" d="M78.53832,31.1742 L80.29512,31.1742 C80.20392,31.065 80.10912,30.9462 80.07792,30.9066 C80.02872,30.8502 79.97352,30.7902 79.95432,30.7758 C79.92192,30.759 79.78152,30.723 79.65792,30.723 C79.50792,30.723 79.11792,30.7518 78.93072,30.7986 C78.86832,30.8142 78.71352,30.9558 78.53832,31.1742 L78.53832,31.1742 Z M80.85672,31.3998 L78.09432,31.3998 L78.22032,31.2222 C78.60312,30.6822 78.81912,30.5934 78.87672,30.579 C79.08912,30.5262 79.50432,30.4974 79.65792,30.4974 C79.81272,30.4974 80.01552,30.5418 80.08392,30.591 C80.12952,30.6246 80.21592,30.7218 80.25072,30.7614 L80.25312,30.765 C80.37672,30.9222 80.57232,31.1598 80.62032,31.2006 L80.85672,31.3998 Z" mask="url(#f)"/>
    <path fill="#FFFFFF" d="M79.09524,32.29656 C79.09524,32.57616 78.86844,32.80296 78.58884,32.80296 C78.30804,32.80296 78.08124,32.57616 78.08124,32.29656 C78.08124,32.01696 78.30804,31.79016 78.58884,31.79016 C78.86844,31.79016 79.09524,32.01696 79.09524,32.29656" mask="url(#f)"/>
    <path fill="#22415B" d="M78.58848,31.90236 C78.37128,31.90236 78.19488,32.07876 78.19488,32.29596 C78.19488,32.51436 78.37128,32.69076 78.58848,32.69076 C78.80568,32.69076 78.98208,32.51436 78.98208,32.29596 C78.98208,32.07876 78.80568,31.90236 78.58848,31.90236 M78.58848,32.91636 C78.24648,32.91636 77.96928,32.63796 77.96928,32.29596 C77.96928,31.95516 78.24648,31.67676 78.58848,31.67676 C78.93048,31.67676 79.20768,31.95516 79.20768,32.29596 C79.20768,32.63796 78.93048,32.91636 78.58848,32.91636" mask="url(#f)"/>
    <path fill="#FFFFFF" d="M81.38808,32.29656 C81.38808,32.57616 81.16128,32.80296 80.88168,32.80296 C80.60088,32.80296 80.37408,32.57616 80.37408,32.29656 C80.37408,32.01696 80.60088,31.79016 80.88168,31.79016 C81.16128,31.79016 81.38808,32.01696 81.38808,32.29656" mask="url(#f)"/>
    <path fill="#22415B" d="M80.8812,31.90236 C80.664,31.90236 80.4876,32.07876 80.4876,32.29596 C80.4876,32.51436 80.664,32.69076 80.8812,32.69076 C81.0984,32.69076 81.2748,32.51436 81.2748,32.29596 C81.2748,32.07876 81.0984,31.90236 80.8812,31.90236 M80.8812,32.91636 C80.5392,32.91636 80.262,32.63796 80.262,32.29596 C80.262,31.95516 80.5392,31.67676 80.8812,31.67676 C81.2232,31.67676 81.5004,31.95516 81.5004,32.29596 C81.5004,32.63796 81.2232,32.91636 80.8812,32.91636" mask="url(#f)"/>
    <path fill="#E84131" d="M78.58848 32.09952C78.47928 32.09952 78.39168 32.18832 78.39168 32.29632 78.39168 32.40552 78.47928 32.49312 78.58848 32.49312 78.69768 32.49312 78.78528 32.40552 78.78528 32.29632 78.78528 32.18832 78.69768 32.09952 78.58848 32.09952M80.8812 32.09952C80.772 32.09952 80.6844 32.18832 80.6844 32.29632 80.6844 32.40552 80.772 32.49312 80.8812 32.49312 80.9904 32.49312 81.078 32.40552 81.078 32.29632 81.078 32.18832 80.9904 32.09952 80.8812 32.09952" mask="url(#f)"/>
    <path fill="#183953" d="M46.9626,19.22112 C46.9626,19.32072 46.965,19.37712 47.0082,19.46952 C47.0814,19.62312 47.2506,19.74912 47.4558,19.74912 C47.8842,19.74912 48.261,19.35552 48.261,18.96192 C48.261,18.52872 47.7954,18.37152 47.4414,18.54792 C47.3718,18.58392 47.3238,18.60912 47.2638,18.65712 C47.2434,18.67392 47.235,18.68592 47.2134,18.70272 C47.1918,18.71832 47.1834,18.72552 47.1654,18.74832 C47.1474,18.77352 47.1402,18.77832 47.1222,18.80112 C47.0934,18.83712 47.0682,18.87312 47.0466,18.91512 C47.0046,18.99672 46.9626,19.10352 46.9626,19.22112 L46.9626,19.22112 Z M46.0974,23.33952 L47.2218,23.33952 C47.2578,23.33952 47.2662,23.22912 47.283,23.15832 C47.3898,22.70352 47.4978,22.18392 47.5986,21.72672 C47.6598,21.45072 47.7162,21.18672 47.7798,20.91192 L47.9418,20.17032 L46.7934,20.16912 L46.7874,20.19672 L46.4526,21.71352 C46.359,22.10352 46.2774,22.52952 46.1838,22.92432 C46.1682,22.99272 46.1538,23.05752 46.1382,23.12952 C46.1274,23.18232 46.0974,23.28072 46.0974,23.33952 L46.0974,23.33952 Z M47.655,23.33952 L48.0378,21.58512 C48.1278,21.16032 48.2478,20.67672 48.3282,20.26632 C48.3462,20.17032 48.3414,20.17512 48.393,20.15832 C48.6342,20.08272 48.7206,20.06952 48.9702,20.02632 C49.0722,20.00832 49.1754,20.00112 49.2846,19.98672 C49.3926,19.97112 49.5126,19.97352 49.6134,19.95912 C49.6686,19.95192 49.7358,19.95672 49.785,19.95072 C49.8366,19.94352 49.9026,19.94832 49.9566,19.94832 C50.3454,19.94832 50.9238,19.94952 51.2226,20.09232 C51.3486,20.15232 51.4542,20.22792 51.5322,20.34432 C51.7362,20.64792 51.6306,21.12672 51.5538,21.46752 L51.1698,23.20392 C51.1614,23.24472 51.1554,23.33952 51.1158,23.33952 L50.0166,23.33952 C49.983,23.33952 49.9926,23.31792 49.9986,23.29752 L50.379,21.57432 C50.427,21.33192 50.4822,20.96472 50.175,20.88072 C50.0418,20.84472 49.9374,20.85672 49.797,20.87832 C49.6386,20.90352 49.563,20.92152 49.4142,20.96352 C49.2954,20.99712 49.2918,21.00312 49.2798,21.06312 L49.197,21.44712 C49.065,22.01112 48.9474,22.60632 48.8154,23.16912 C48.7986,23.24112 48.7926,23.33952 48.7542,23.33952 L47.655,23.33952 Z M52.3782,19.24752 C52.3782,19.36392 52.4214,19.47912 52.4934,19.56552 C52.5066,19.58232 52.5102,19.58832 52.5234,19.60392 C52.557,19.64232 52.6254,19.68432 52.6722,19.70592 C52.839,19.78032 53.043,19.74912 53.1978,19.67712 L53.3718,19.56552 C53.4738,19.47312 53.5074,19.44912 53.5902,19.30752 C53.7054,19.10832 53.7294,18.75792 53.5206,18.59832 C53.0634,18.24792 52.3782,18.71832 52.3782,19.24752 L52.3782,19.24752 Z M51.1506,24.98352 L52.3014,24.98352 L52.3662,24.67752 C52.3902,24.57072 52.4106,24.47832 52.4334,24.37272 L53.1102,21.31992 L53.3646,20.17032 L52.215,20.16912 L51.6894,22.53912 C51.5298,23.24232 51.381,23.97192 51.2178,24.67032 L51.1506,24.98352 Z M55.0434,22.51752 C55.2042,22.51752 55.3938,22.43592 55.4898,22.36752 C55.6638,22.24032 55.6398,22.24272 55.671,22.10592 C55.6902,22.01832 55.9086,21.06672 55.9086,21.01272 C55.9086,20.89752 55.6614,20.88312 55.5714,20.88312 C55.1562,20.88312 54.9342,20.91192 54.6822,21.16152 C54.4194,21.42192 54.2238,22.06752 54.531,22.37352 C54.675,22.51632 54.8538,22.51752 55.0434,22.51752 L55.0434,22.51752 Z M53.2002,22.25832 C53.2002,21.99912 53.2566,21.73992 53.3154,21.53352 C53.3754,21.31992 53.4558,21.12432 53.5602,20.94792 C53.5758,20.92152 53.583,20.90592 53.5986,20.88192 C53.7558,20.64672 53.9142,20.45832 54.1554,20.29752 C54.1806,20.28192 54.1938,20.27232 54.2178,20.25552 C54.519,20.05632 55.0542,19.92312 55.4238,19.90512 C55.497,19.90152 55.5474,19.89672 55.623,19.89672 L55.8222,19.88712 C55.8654,19.88712 55.869,19.89552 55.917,19.89672 L56.0214,19.89672 L56.2206,19.90512 C56.4282,19.90752 56.7678,19.94952 56.9826,19.97352 C57.0978,19.98672 57.2502,19.99632 57.2502,20.12112 C57.2502,20.23872 57.165,20.55072 57.1398,20.67672 L57.027,21.18672 C56.8686,21.85992 56.727,22.56192 56.571,23.24112 C56.5422,23.36712 56.5998,23.33952 56.3586,23.33952 L55.4238,23.33952 C55.4274,23.30592 55.4502,23.26632 55.4586,23.22792 C55.4382,23.23152 55.311,23.29632 55.2114,23.32632 C54.813,23.44392 54.2262,23.53512 53.817,23.37192 C53.6718,23.31432 53.5878,23.23992 53.4882,23.13792 C53.4498,23.09952 53.3946,23.02392 53.367,22.97352 C53.3502,22.94112 53.337,22.91232 53.3214,22.88112 C53.3046,22.84632 53.2974,22.82352 53.2806,22.78392 C53.223,22.63512 53.2002,22.44552 53.2002,22.25832 L53.2002,22.25832 Z M57.6474,20.17272 C57.4674,20.94792 57.3078,21.76632 57.1266,22.54152 L56.9742,23.23752 C56.967,23.26872 56.9562,23.30472 56.9562,23.33952 L58.0542,23.33952 C58.0854,23.33952 58.0878,23.29872 58.095,23.26752 L58.1574,22.97592 C58.2882,22.35312 58.4406,21.68712 58.5798,21.06192 C58.5942,20.99712 58.6002,21.00072 58.7142,20.96352 C58.9314,20.89272 59.4306,20.77872 59.6058,20.94912 C59.7618,21.10152 59.7222,21.36792 59.6778,21.56232 C59.643,21.71112 59.2914,23.29152 59.2914,23.33952 L60.4158,23.33952 C60.4446,23.33952 60.4458,23.31432 60.4518,23.28912 L60.6942,22.18992 C60.723,22.05072 60.9354,21.14832 60.9354,21.00312 C61.0074,20.98752 61.0866,20.94432 61.2654,20.90952 C61.5126,20.86032 61.9062,20.77512 62.0226,21.06792 C62.103,21.27312 62.001,21.62712 61.9638,21.80832 C61.9302,21.97512 61.8906,22.14672 61.851,22.31712 L61.6278,23.33952 L62.7522,23.33952 C62.7882,23.33952 62.7918,23.26392 62.8062,23.20272 C62.8182,23.15352 62.829,23.09952 62.8398,23.04672 C62.943,22.54032 63.0762,21.97992 63.1902,21.46752 C63.2682,21.11472 63.3714,20.65632 63.1674,20.34552 C63.0918,20.23152 62.9898,20.15592 62.859,20.09232 C62.5638,19.95072 61.9794,19.94832 61.593,19.94832 C61.4802,19.94832 61.3974,19.95552 61.2894,19.95672 L60.5754,20.02992 C60.3834,20.05992 60.495,20.06472 60.3354,20.02992 C59.619,19.87392 58.4214,19.94352 57.7374,20.14152 C57.7002,20.15352 57.6858,20.16432 57.6474,20.17272 L57.6474,20.17272 Z" mask="url(#f)"/>
    <path fill="#ED402F" d="M41.7546,23.33952 L42.8958,23.33952 C42.9342,23.33952 42.9642,23.14032 42.9762,23.08272 C42.9966,22.99152 43.017,22.89672 43.0386,22.79832 C43.0794,22.60992 43.1262,22.42272 43.1622,22.23912 C43.1994,22.04832 43.2474,21.86712 43.2858,21.67872 L43.533,20.55912 C43.5606,20.43672 43.6242,20.09832 43.6734,20.01552 C43.7574,19.87152 43.869,19.75512 44.0106,19.66992 C44.2398,19.53192 44.2866,19.58472 44.4246,19.56432 C44.4774,19.55592 44.5362,19.55832 44.5914,19.55832 C44.6862,19.37952 44.5638,19.00752 44.8062,19.24992 L44.9142,19.34832 C45.0786,19.51272 45.183,19.60632 45.3174,19.78512 C45.3978,19.89072 45.4566,19.96872 45.4062,20.06952 C45.321,20.23872 45.1578,20.40072 45.0234,20.52552 L44.7894,20.71632 C44.7342,20.75712 44.5806,20.86392 44.5146,20.86512 C44.5074,20.83392 44.4942,20.81472 44.4978,20.77152 C44.5074,20.66952 44.541,20.53992 44.541,20.44992 C44.3358,20.40312 44.0886,20.66352 43.9626,20.78952 C43.8738,20.87952 43.737,21.04152 43.6722,21.15672 C43.6062,21.27312 43.6374,21.31272 43.7262,21.46272 C43.833,21.64032 44.0622,21.94032 44.205,22.08312 C44.271,22.14792 44.355,22.25232 44.4534,22.27632 C44.5182,22.17912 44.4738,22.17192 44.4918,22.05432 C44.5002,22.00272 44.4918,21.97632 44.4954,21.94392 C44.5074,21.78072 44.4534,21.72192 44.679,21.72192 C44.7318,21.72192 44.7462,21.71352 44.8002,21.71352 C44.841,21.71232 44.883,21.70632 44.925,21.70032 C45.3426,21.63912 45.6258,21.51312 45.9138,21.22632 C45.9426,21.19872 45.9534,21.18192 45.9786,21.15312 C46.0578,21.06432 46.1322,20.93952 46.1874,20.82432 C46.3902,20.40312 46.4538,19.80432 46.2918,19.33992 C46.2342,19.17312 46.1646,19.06392 46.071,18.93672 C45.9018,18.70992 45.5766,18.51912 45.2838,18.48672 C45.2454,18.48192 45.1398,18.47952 44.9946,18.47712 L42.8178,18.47712 L42.3522,20.59752 C42.3306,20.69952 42.3054,20.80512 42.285,20.90232 L41.787,23.18232 C41.7786,23.21952 41.7558,23.29752 41.7546,23.33952" mask="url(#f)"/>
  </g>
</svg>
