<svg xmlns="http://www.w3.org/2000/svg" width="70" height="70" viewBox="0 0 70 70" xmlns:xlink="http://www.w3.org/1999/xlink">
  <defs>
    <polygon id="a" points="0 70 70 70 70 0 0 0"/>
  </defs>
  <g fill="none" fill-rule="evenodd">
    <mask id="b" fill="white">
      <use xlink:href="#a"/>
    </mask>
    <circle cx="35" cy="35" r="35" fill="#EBEBEB" mask="url(#b)"/>
    <polygon fill="#F2E6CD" points="22.505 45.737 47.167 45.737 47.167 24.675 22.505 24.675" mask="url(#b)"/>
    <polygon fill="#F2E6CD" points="24.347 35.405 34.768 35.405 34.768 28.284 24.347 28.284" mask="url(#b)"/>
    <polygon fill="#183953" points="24.959 33.895 25.028 33.895 25.028 28.753 24.959 28.753" mask="url(#b)"/>
    <polygon fill="#183953" points="25.089 33.895 25.428 33.895 25.428 28.753 25.089 28.753" mask="url(#b)"/>
    <polygon fill="#183953" points="25.089 34.852 25.428 34.852 25.428 34.076 25.089 34.076" mask="url(#b)"/>
    <polygon fill="#183953" points="26.029 34.852 26.314 34.852 26.314 28.753 26.029 28.753" mask="url(#b)"/>
    <polygon fill="#183953" points="27.615 34.852 27.953 34.852 27.953 34.076 27.615 34.076" mask="url(#b)"/>
    <polygon fill="#183953" points="28.251 34.852 28.589 34.852 28.589 34.076 28.251 34.076" mask="url(#b)"/>
    <polygon fill="#183953" points="28.886 34.852 29.225 34.852 29.225 34.076 28.886 34.076" mask="url(#b)"/>
    <polygon fill="#183953" points="29.522 34.852 29.86 34.852 29.86 34.076 29.522 34.076" mask="url(#b)"/>
    <polygon fill="#183953" points="31.923 34.852 32.261 34.852 32.261 34.076 31.923 34.076" mask="url(#b)"/>
    <polygon fill="#183953" points="31.329 34.852 31.668 34.852 31.668 34.076 31.329 34.076" mask="url(#b)"/>
    <polygon fill="#183953" points="32.558 34.852 32.897 34.852 32.897 34.076 32.558 34.076" mask="url(#b)"/>
    <polygon fill="#183953" points="33.194 34.852 33.532 34.852 33.532 34.076 33.194 34.076" mask="url(#b)"/>
    <polygon fill="#183953" points="26.466 34.852 26.646 34.852 26.646 28.753 26.466 28.753" mask="url(#b)"/>
    <polygon fill="#183953" points="26.818 34.852 26.908 34.852 26.908 28.753 26.818 28.753" mask="url(#b)"/>
    <polygon fill="#183953" points="28.808 33.895 28.898 33.895 28.898 28.753 28.808 28.753" mask="url(#b)"/>
    <polygon fill="#183953" points="29.315 33.895 29.405 33.895 29.405 28.753 29.315 28.753" mask="url(#b)"/>
    <polygon fill="#183953" points="30.155 34.852 30.245 34.852 30.245 28.753 30.155 28.753" mask="url(#b)"/>
    <polygon fill="#183953" points="32.509 33.895 32.599 33.895 32.599 28.753 32.509 28.753" mask="url(#b)"/>
    <polygon fill="#183953" points="26.972 34.852 27.396 34.852 27.396 28.753 26.972 28.753" mask="url(#b)"/>
    <polygon fill="#183953" points="28.318 33.895 28.689 33.895 28.689 28.753 28.318 28.753" mask="url(#b)"/>
    <polygon fill="#183953" points="30.317 34.852 30.688 34.852 30.688 28.753 30.317 28.753" mask="url(#b)"/>
    <polygon fill="#183953" points="31.977 33.895 32.348 33.895 32.348 28.753 31.977 28.753" mask="url(#b)"/>
    <polygon fill="#183953" points="27.916 33.895 28.202 33.895 28.202 28.753 27.916 28.753" mask="url(#b)"/>
    <polygon fill="#183953" points="29.509 33.895 29.795 33.895 29.795 28.753 29.509 28.753" mask="url(#b)"/>
    <polygon fill="#183953" points="31.528 33.895 31.814 33.895 31.814 28.753 31.528 28.753" mask="url(#b)"/>
    <polygon fill="#183953" points="32.756 33.895 33.041 33.895 33.041 28.753 32.756 28.753" mask="url(#b)"/>
    <polygon fill="#183953" points="33.824 34.852 34.11 34.852 34.11 28.753 33.824 28.753" mask="url(#b)"/>
    <polygon fill="#183953" points="27.621 33.895 27.79 33.895 27.79 28.753 27.621 28.753" mask="url(#b)"/>
    <polygon fill="#183953" points="28.966 33.895 29.135 33.895 29.135 28.753 28.966 28.753" mask="url(#b)"/>
    <polygon fill="#183953" points="30.806 34.852 30.975 34.852 30.975 28.753 30.806 28.753" mask="url(#b)"/>
    <polygon fill="#183953" points="31.139 33.895 31.308 33.895 31.308 28.753 31.139 28.753" mask="url(#b)"/>
    <polygon fill="#183953" points="33.158 33.895 33.327 33.895 33.327 28.753 33.158 28.753" mask="url(#b)"/>
    <polygon fill="#183953" points="33.478 33.895 33.647 33.895 33.647 28.753 33.478 28.753" mask="url(#b)"/>
    <polygon fill="#183953" points="25.621 34.852 25.753 34.852 25.753 28.753 25.621 28.753" mask="url(#b)"/>
    <path fill="#183953" d="M28.32116 43.8081L28.95396 42.6937C29.02116 42.5061 28.93016 42.2905 28.79856 42.0903L28.45696 41.5443 27.55256 42.1099 28.19096 43.1501C28.30156 43.3041 28.39956 43.5351 28.32116 43.8081L28.32116 43.8081zM27.27956 44.5081L27.31736 44.1497 27.89276 44.1049C28.16436 44.0937 28.23716 43.7759 28.22876 43.6093 28.21896 43.4455 28.10836 43.2509 27.99496 43.0745L27.27396 43.0815 27.25436 42.7595 26.74056 43.6625 27.27956 44.5081zM27.22356 40.1583L25.94116 40.1457C25.74516 40.1765 25.60096 40.3613 25.48896 40.5727L25.17676 41.1369 26.11056 41.6535 26.70976 40.5909C26.79236 40.4187 26.94776 40.2213 27.22356 40.1583L27.22356 40.1583zM28.34076 40.7295L28.00896 40.8709 27.68976 40.3879C27.54836 40.1569 27.23616 40.2465 27.09476 40.3347 26.95616 40.4229 26.83996 40.6147 26.74056 40.7981L27.09616 41.4253 26.82316 41.5989 27.86196 41.6115 28.34076 40.7295zM24.50196 42.8071L25.11096 43.9341C25.23416 44.0909 25.46516 44.1287 25.70596 44.1231L26.34856 44.1231 26.34856 43.0549 25.12916 43.0465C24.93876 43.0577 24.69096 43.0185 24.50196 42.8071L24.50196 42.8071zM24.45996 41.5527L24.74416 41.7753 24.47676 42.2877C24.34236 42.5243 24.57336 42.7539 24.71896 42.8337 24.86316 42.9121 25.08716 42.9219 25.29576 42.9191L25.67236 42.3045 25.95656 42.4585 25.46236 41.5443 24.45996 41.5527zM45.44246 42.8022C45.43126 41.6094 44.49186 40.6336 43.31166 40.5678L43.31166 40.4698C43.31166 40.4012 43.25426 40.3438 43.18426 40.3438 43.11426 40.3438 43.05826 40.4012 43.05826 40.4698L43.05826 40.5678C41.89486 40.6336 40.96526 41.58 40.92746 42.7504 40.91206 42.8078 40.90226 42.868 40.90226 42.9296L41.12766 42.9296C41.12766 42.8932 41.13326 42.8568 41.14166 42.8232L41.15286 42.8232 41.15286 42.7882C41.21166 42.6216 41.36986 42.5026 41.55466 42.5026 41.79126 42.5026 41.98306 42.6944 41.98306 42.9296L42.20846 42.9296C42.20846 42.6944 42.40026 42.5026 42.63546 42.5026 42.85106 42.5026 43.02886 42.6622 43.05826 42.8694L43.05826 44.0104C43.05826 44.1224 42.96726 44.212 42.85666 44.212 42.74606 44.212 42.65646 44.1224 42.65646 44.0104 42.65646 43.9404 42.59906 43.8844 42.52906 43.8844 42.45906 43.8844 42.40306 43.9404 42.40306 44.0104 42.40306 44.261 42.60606 44.4654 42.85666 44.4654 43.10726 44.4654 43.31166 44.261 43.31166 44.0104L43.31166 42.8232 43.30186 42.8232C43.34946 42.6398 43.51746 42.5026 43.71626 42.5026 43.95146 42.5026 44.14326 42.6944 44.14326 42.9296L44.36866 42.9296C44.36866 42.9156 44.36726 42.9016 44.36726 42.8876L44.36866 42.8876C44.36866 42.6524 44.56046 42.4606 44.79566 42.4606 45.00846 42.4606 45.18486 42.6174 45.21706 42.8204L45.21706 42.8232 45.21706 42.8232C45.21986 42.8442 45.22266 42.8666 45.22266 42.8876L45.44806 42.8876C45.44806 42.8582 45.44666 42.8302 45.44246 42.8022M39.80088 41.286L39.80088 40.3004 37.14228 40.3004 37.14228 41.286C37.14228 41.9776 37.67148 42.546 38.34488 42.609L38.34488 44.2568 37.45448 44.2568 37.45448 44.5088 39.48868 44.5088 39.48868 44.2568 38.59688 44.2568 38.59688 42.609C39.27168 42.546 39.80088 41.9776 39.80088 41.286" mask="url(#b)"/>
    <polygon fill="#183953" points="21.307 27.293 48.366 27.293 48.366 23.155 21.307 23.155" mask="url(#b)"/>
    <path fill="#EFC684" d="M30.41626,48.34802 C30.13066,48.37602 29.83526,48.35922 29.54966,48.36202 C29.20386,48.36622 28.85806,48.35922 28.51226,48.34942 C27.86966,48.32842 27.22986,48.29342 26.58866,48.26962 C26.67966,48.01902 26.66426,47.72082 26.59706,47.46742 C26.49486,47.08242 26.27086,46.73102 26.00906,46.41882 C26.40946,46.34322 26.80986,46.52102 27.18506,46.64142 C27.62186,46.78142 28.06706,46.78562 28.52206,46.81642 C28.96866,46.84582 29.42086,46.91582 29.78626,47.19582 C30.12786,47.45762 30.44006,47.90002 30.41626,48.34802" mask="url(#b)"/>
    <path fill="#EFC684" d="M30.59644,47.3431 C30.50124,47.3991 30.37944,47.4201 30.27304,47.4453 C30.19884,47.3473 30.11764,47.2549 30.03224,47.1709 C29.67244,46.8111 29.17264,46.6921 28.68264,46.6473 C28.19124,46.6039 27.70404,46.6193 27.22944,46.4667 C26.78844,46.3253 26.34604,46.1405 25.87844,46.2651 C25.87704,46.2651 25.87564,46.2651 25.87424,46.2665 C25.78464,46.1671 25.69224,46.0733 25.59984,45.9837 C25.56764,45.9543 25.53684,45.9235 25.50464,45.8941 C25.94424,45.8493 26.38664,45.9179 26.82064,45.9921 C27.30084,46.0747 27.77404,46.1391 28.26124,46.1629 C28.74844,46.1867 29.25244,46.2049 29.71304,46.3855 C30.12044,46.5437 30.56844,46.8755 30.59644,47.3431" mask="url(#b)"/>
    <path fill="#EFC684" d="M22.41036,45.9004 C22.39636,45.8836 22.38096,45.8696 22.37676,45.8584 C22.29556,45.7716 22.21296,45.6862 22.12756,45.6008 L21.91476,45.3922 C21.91336,45.388 21.88116,45.367 21.87976,45.3614 C21.76216,45.2522 21.64036,45.1458 21.51716,45.0436 L21.38276,44.9372 C21.26516,44.8462 21.14476,44.7594 21.02156,44.6768 C20.45876,44.303 19.84836,44.0342 19.19876,43.855 C19.08676,43.8242 19.12176,43.6464 19.23376,43.6772 C19.95616,43.876 20.63656,44.1812 21.24976,44.6152 C21.71596,44.9456 22.13596,45.3362 22.52656,45.7534 C22.53356,45.7604 22.54056,45.7688 22.54896,45.7772 C22.60496,45.8388 22.66236,45.9004 22.71836,45.9648 C23.09216,46.3834 23.43516,46.83 23.82156,47.2388 C24.20936,47.6518 24.64616,48.0564 25.17676,48.2776 C25.58976,48.4484 26.18756,48.7088 26.44516,48.2146 C26.69436,47.7358 26.33456,47.271 26.06996,46.858 C25.71856,46.3064 25.23136,45.8612 24.73436,45.4412 C24.24156,45.0268 23.83556,44.5088 23.36516,44.0664 C22.91996,43.6506 22.61756,43.0612 22.42296,42.476 C22.42016,42.4704 22.76176,42.4634 22.75896,42.455 C22.75896,42.4522 23.10056,42.448 23.10056,42.4452 L23.10056,42.4424 L23.10056,42.4354 C21.70056,41.398 22.31376,40.1814 21.50176,39.4128 C21.07336,39.0082 20.37056,38.7492 19.86656,38.4566 C19.61876,38.3124 19.27716,38.164 19.05876,37.9778 C18.84176,37.7916 18.58836,37.5984 18.37696,37.408 C17.88136,36.9628 17.34236,36.5512 16.71236,36.3146 C16.11176,36.0892 15.47476,35.931 14.83636,35.8582 C14.19656,35.784 13.55956,35.819 12.91976,35.8414 C12.87916,35.8428 12.83436,35.8442 12.79376,35.8456 L12.19596,40.1758 C12.37516,40.1926 12.55156,40.2206 12.72656,40.2612 C13.35936,40.4068 13.91516,40.7064 14.39396,41.1446 C14.87976,41.5884 15.29556,42.1148 15.67776,42.6496 C16.10336,43.2488 16.50236,43.8676 16.90836,44.4794 C17.31296,45.0884 17.72456,45.6946 18.18376,46.2658 C18.62756,46.816 19.13996,47.3648 19.76576,47.7106 C19.77136,47.7148 19.77696,47.719 19.78256,47.7218 C20.53996,47.866 21.31276,47.824 22.07856,47.782 C22.46076,47.761 22.84296,47.74 23.22516,47.7414 C23.51916,47.7428 23.82576,47.7428 24.11976,47.7932 C23.59896,47.3284 23.16776,46.7572 22.71276,46.2308 L22.41036,45.9004 Z" mask="url(#b)"/>
    <polygon fill="#FF645C" points="10.315 40.494 13.065 41.739 16.174 34.868 13.425 33.623" mask="url(#b)"/>
    <polygon fill="#ED402F" points="3.719 37.512 10.135 40.416 13.244 33.545 6.828 30.641" mask="url(#b)"/>
    <path fill="#EFC684" d="M40.02096,48.34802 C40.30656,48.37602 40.60196,48.35922 40.88896,48.36202 C41.23336,48.36622 41.57916,48.35922 41.92496,48.34942 C42.56756,48.32842 43.20736,48.29342 43.84996,48.26962 C43.75756,48.01902 43.77296,47.72082 43.84016,47.46742 C43.94236,47.08242 44.16636,46.73102 44.42956,46.41882 C44.02776,46.34322 43.62736,46.52102 43.25216,46.64142 C42.81536,46.78142 42.37016,46.78562 41.91656,46.81642 C41.46856,46.84582 41.01636,46.91582 40.65096,47.19582 C40.30936,47.45762 39.99716,47.90002 40.02096,48.34802" mask="url(#b)"/>
    <path fill="#EFC684" d="M39.84106 47.3431C39.93626 47.3991 40.05806 47.4201 40.16446 47.4453 40.23866 47.3473 40.31986 47.2549 40.40526 47.1709 40.76506 46.8111 41.26486 46.6921 41.75486 46.6473 42.24626 46.6039 42.73346 46.6193 43.20806 46.4667 43.64906 46.3253 44.09146 46.1405 44.55906 46.2651 44.56046 46.2651 44.56186 46.2651 44.56326 46.2665 44.65286 46.1671 44.74526 46.0733 44.83766 45.9837 44.86846 45.9543 44.90066 45.9235 44.93286 45.8941 44.49326 45.8493 44.05086 45.9179 43.61686 45.9921 43.13666 46.0747 42.66346 46.1391 42.17626 46.1629 41.68906 46.1867 41.18366 46.2049 40.72446 46.3855 40.31706 46.5437 39.86906 46.8755 39.84106 47.3431M48.02714 45.9004C48.04114 45.8836 48.05654 45.8696 48.06074 45.8584 48.14194 45.7716 48.22454 45.6862 48.30994 45.6008L48.52274 45.3922C48.52414 45.388 48.55634 45.367 48.55774 45.3614 48.67534 45.2522 48.79714 45.1458 48.92034 45.0436L49.05474 44.9372C49.17234 44.8462 49.29274 44.7594 49.41594 44.6768 49.97874 44.303 50.58914 44.0342 51.23874 43.855 51.35074 43.8242 51.31574 43.6464 51.20374 43.6772 50.48134 43.876 49.80094 44.1812 49.18774 44.6152 48.72154 44.9456 48.30154 45.3362 47.91094 45.7534 47.90394 45.7604 47.89694 45.7688 47.88854 45.7772 47.83254 45.8388 47.77514 45.9004 47.71914 45.9648 47.34534 46.3834 47.00234 46.83 46.61594 47.2388 46.22814 47.6518 45.79134 48.0564 45.26074 48.2776 44.84774 48.4484 44.24994 48.7088 43.99234 48.2146 43.74314 47.7358 44.10294 47.271 44.36754 46.858 44.71894 46.3064 45.20474 45.8612 45.70314 45.4412 46.19594 45.0268 46.60194 44.5088 47.07234 44.0664 47.51754 43.6506 47.81994 43.0612 48.01454 42.476 48.01734 42.4704 48.15734 42.4634 48.16014 42.455 48.16014 42.4522 48.30014 42.448 48.30014 42.4452L48.30014 42.4424 48.30014 42.4354C48.30014 41.398 48.60534 40.1814 49.41734 39.4128 49.84574 39.0082 50.30774 38.7492 50.81174 38.4566 51.05954 38.3124 51.28074 38.164 51.49914 37.9778 51.71614 37.7916 51.90934 37.5984 52.12074 37.408 52.61634 36.9628 53.12454 36.5512 53.75454 36.3146 54.35514 36.0892 54.97814 35.931 55.61654 35.8582 56.25494 35.784 56.88494 35.819 57.52614 35.8414 57.56674 35.8428 57.60594 35.8442 57.64794 35.8456L58.24294 40.1758C58.06514 40.1926 57.88734 40.2206 57.71094 40.2612 57.07954 40.4068 56.52374 40.7064 56.04494 41.1446 55.55774 41.5884 55.14194 42.1148 54.76114 42.6496 54.33414 43.2488 53.93514 43.8676 53.52914 44.4794 53.12454 45.0884 52.71294 45.6946 52.25374 46.2658 51.80994 46.816 51.29754 47.3648 50.67174 47.7106 50.66614 47.7148 50.66054 47.719 50.65494 47.7218 49.89754 47.866 49.12474 47.824 48.35894 47.782 47.97674 47.761 47.59454 47.74 47.21234 47.7414 46.91834 47.7428 46.61174 47.7428 46.31774 47.7932 46.83854 47.3284 47.26974 46.7572 47.72474 46.2308L48.02714 45.9004z" mask="url(#b)"/>
    <polygon fill="#295C7F" points="60.122 40.494 57.373 41.739 54.263 34.868 57.013 33.623" mask="url(#b)"/>
    <polygon fill="#183953" points="66.719 37.512 60.302 40.416 57.193 33.545 63.609 30.641" mask="url(#b)"/>
  </g>
</svg>
