<svg xmlns="http://www.w3.org/2000/svg" width="39" height="60" viewBox="0 0 39 60">
  <g fill="none" fill-rule="evenodd">
    <path fill="#FFD7B7" d="M2.68704,21.8724 L2.68704,21.8724 C1.69104,22.8804 1.71264,24.5088 2.70744,25.5168 L20.90064,43.9548 C21.89544,44.9628 23.54784,44.9424 24.54504,43.9344 C25.54104,42.9264 25.51944,41.2992 24.52344,40.29 L6.33024,21.852 C5.33544,20.8428 3.68304,20.8644 2.68704,21.8724"/>
    <polygon fill="#FFD7B7" points="34.841 55.09 20.863 57.82 18.718 46.837 8.887 32.644 29.665 28.585"/>
    <path fill="#FFD7B7" d="M2.93364 30.15684L2.93364 30.15684C1.93764 31.16484 1.96044 32.79324 2.95404 33.80124L21.14724 52.23924C22.14204 53.24724 23.79564 53.22684 24.79164 52.21884 25.78884 51.21084 25.76604 49.58364 24.77124 48.57444L6.57684 30.13644C5.58204 29.12724 3.92964 29.14884 2.93364 30.15684M.9768 11.71824L.9768 11.71824C-.0192 12.72624.0024 14.35464.9972 15.36264L18.5256 33.10704C19.5216 34.11384 21.174 34.09344 22.17 33.08544 23.1672 32.07744 23.1456 30.45024 22.1484 29.44224L4.6212 11.69784C3.624 10.68864 1.9728 10.71024.9768 11.71824"/>
    <path fill="#183953" d="M23.5434,0 L10.7994,0 C8.3322,0 6.3126,2.0196 6.3126,4.4868 L6.3126,38.3208 C6.3126,40.788 8.3322,42.8076 10.7994,42.8076 L23.5434,42.8076 C26.0118,42.8076 28.0302,40.788 28.0302,38.3208 L28.0302,4.4868 C28.0302,2.0196 26.0118,0 23.5434,0"/>
    <path fill="#FFFFFF" d="M26.05752,3.58968 L8.28552,3.58968 C8.25072,3.58968 8.22312,3.61848 8.22312,3.65208 L8.22312,38.79528 C8.22312,38.83008 8.25072,38.85888 8.28552,38.85888 L26.05752,38.85888 C26.09232,38.85888 26.11992,38.83008 26.11992,38.79528 L26.11992,3.65208 C26.11992,3.61848 26.09232,3.58968 26.05752,3.58968"/>
    <path fill="#5085A1" d="M20.46408 1.05888L13.87968 1.05888C13.70088 1.05888 13.55448 1.20528 13.55448 1.38288L13.55448 1.38408C13.55448 1.56168 13.70088 1.70808 13.87968 1.70808L20.46408 1.70808C20.64288 1.70808 20.78808 1.56168 20.78808 1.38408L20.78808 1.38288C20.78808 1.20528 20.64288 1.05888 20.46408 1.05888M17.17164 39.67464C16.56564 39.67464 16.07484 40.16544 16.07484 40.77144 16.07484 41.37744 16.56564 41.86944 17.17164 41.86944 17.77764 41.86944 18.26844 41.37744 18.26844 40.77144 18.26844 40.16544 17.77764 39.67464 17.17164 39.67464"/>
    <path fill="#FFD7B7" d="M1.227 28.46184L1.227 28.46184C.2298 29.46984.2442 31.10904 1.2474 32.10624L4.6614 35.49504C5.6646 36.49224 7.3086 36.48264 8.3046 35.47464 9.3018 34.46664 9.2898 32.82984 8.2842 31.83144L4.8702 28.44144C3.8646 27.44184 2.2242 27.45384 1.227 28.46184M.7398 19.9392L.7398 19.9392C-.2562 20.9472-.243 22.5864.7602 23.5836L3.6678 26.4696C4.671 27.4668 6.315 27.4572 7.3122 26.4492 8.3082 25.4412 8.2962 23.8044 7.2906 22.806L4.383 19.9188C3.3774 18.9192 1.7358 18.9312.7398 19.9392"/>
    <polygon fill="#ED402F" points="35.863 50.525 18.199 53.975 19.376 60 37.713 60"/>
    <path fill="#FFD7B7" d="M30.99204,44.43372 L29.20644,44.78292 L28.96884,42.53532 L27.05244,24.48972 C26.72724,21.43212 28.26804,20.20692 30.11364,19.61052 C31.12884,19.28172 31.37124,19.00092 31.47084,19.93212 L33.66444,40.58772 C33.85404,42.37692 32.65284,44.10972 30.99204,44.43372"/>
    <path fill="#FFF2E8" d="M6.99456 22.99848L6.13176 22.15848C4.35696 22.41888 3.39816 23.48328 3.12096 25.21728L3.92976 26.03568C6.13656 28.25928 8.86176 24.77208 6.99456 22.99848M30.59004 19.47144C31.26684 19.29144 31.38204 19.10064 31.44684 19.71024L31.85244 23.53224C30.36444 23.35104 30.48204 21.00144 30.59004 19.47144M7.99548 32.223L7.13268 31.383C5.35788 31.6434 4.39908 32.7078 4.12188 34.4418L4.93068 35.2614C7.13748 37.4838 9.86268 33.9966 7.99548 32.223"/>
    <path fill="#ED402F" d="M16.21176,23.319 L13.81176,20.919 L14.48856,20.2422 L16.21176,21.9606 L19.85496,18.3174 L20.53176,18.999 L16.21176,23.319 Z M17.17176,16.119 C14.52216,16.119 12.37176,18.2694 12.37176,20.919 C12.37176,23.5686 14.52216,25.719 17.17176,25.719 C19.82136,25.719 21.97176,23.5686 21.97176,20.919 C21.97176,18.2694 19.82136,16.119 17.17176,16.119 L17.17176,16.119 Z"/>
  </g>
</svg>
