<svg xmlns="http://www.w3.org/2000/svg" width="80" height="80" viewBox="0 0 80 80">
  <g fill="none" fill-rule="evenodd">
    <circle cx="40" cy="40" r="40" fill="#FFFFFF"/>
    <path fill="#22415B" d="M40,80 C17.9490909,80 0,62.0509091 0,40 C0,17.9490909 17.9490909,0 40,0 C62.0509091,0 80,17.9490909 80,40 C80,62.0509091 62.0509091,80 40,80 L40,80 Z M40,2.90909091 C19.5490909,2.90909091 2.90909091,19.5490909 2.90909091,40 C2.90909091,60.4509091 19.5490909,77.0909091 40,77.0909091 C60.4509091,77.0909091 77.0909091,60.4509091 77.0909091,40 C77.0909091,19.5490909 60.4509091,2.90909091 40,2.90909091 L40,2.90909091 Z"/>
    <g transform="translate(29.673 22.4)">
      <path fill="#22415B" d="M19.3454545,1.16363636 L19.3454545,1.16363636 C18.7054545,0.523636364 17.8327273,0.116363636 16.8436364,0.116363636 L3.78181818,0.116363636 C2.82181818,0.116363636 1.92,0.523636364 1.28,1.16363636 C0.64,1.80363636 0.232727273,2.67636364 0.232727273,3.66545455 L0.232727273,31.5636364 C0.232727273,32.5236364 0.64,33.4254545 1.28,34.0654545 C1.92,34.7054545 2.79272727,35.0836364 3.78181818,35.0836364 L16.8436364,35.0836364 C17.8036364,35.0836364 18.6763636,34.6763636 19.3454545,34.0363636 L19.3454545,34.0363636 C19.9854545,33.3963636 20.3636364,32.5236364 20.3636364,31.5345455 L20.3636364,3.66545455 C20.3927273,2.67636364 19.9854545,1.80363636 19.3454545,1.16363636 L19.3454545,1.16363636 Z"/>
      <path fill="#FFFFFF" d="M17.6872727,31.5636364 C17.6872727,31.7963636 17.6,32 17.4254545,32.1454545 L17.4254545,32.1454545 C17.28,32.2909091 17.0763636,32.3781818 16.8436364,32.3781818 L3.78181818,32.3781818 C3.54909091,32.3781818 3.34545455,32.2909091 3.2,32.1163636 C3.05454545,31.9709091 2.93818182,31.7381818 2.93818182,31.5345455 L2.93818182,3.66545455 C2.93818182,3.43272727 3.02545455,3.22909091 3.2,3.05454545 C3.34545455,2.90909091 3.54909091,2.79272727 3.78181818,2.79272727 L16.8436364,2.79272727 C17.0763636,2.79272727 17.28,2.88 17.4254545,3.02545455 L17.4254545,3.02545455 C17.5709091,3.17090909 17.6872727,3.40363636 17.6872727,3.63636364 L17.6872727,31.5636364 L17.6872727,31.5636364 Z"/>
      <path fill="#E84131" d="M10.3272727 28.8290909C9.68727273 28.8290909 9.19272727 29.3527273 9.19272727 29.9636364 9.19272727 30.6036364 9.71636364 31.0981818 10.3272727 31.0981818 10.9381818 31.0981818 11.4618182 30.5745455 11.4618182 29.9636364 11.4618182 29.3527273 10.9672727 28.8290909 10.3272727 28.8290909L10.3272727 28.8290909zM4.82909091 4.16L3.92727273 4.16 3.92727273 5.06181818 3.92727273 27.0254545 3.92727273 27.9272727 4.82909091 27.9272727 15.8254545 27.9272727 16.7272727 27.9272727 16.7272727 27.0254545 16.7272727 5.06181818 16.7272727 4.16 15.8254545 4.16 4.82909091 4.16 4.82909091 4.16zM14.9236364 26.1236364L5.70181818 26.1236364 5.70181818 5.96363636 14.9236364 5.96363636 14.9236364 26.1236364 14.9236364 26.1236364z"/>
    </g>
  </g>
</svg>
