<svg xmlns="http://www.w3.org/2000/svg" width="80" height="80" viewBox="0 0 80 80">
  <g fill="none" fill-rule="evenodd">
    <circle cx="40" cy="40" r="40" fill="#FFFFFF"/>
    <path fill="#22415B" d="M40,80 C17.9490909,80 0,62.0509091 0,40 C0,17.9490909 17.9490909,0 40,0 C62.0509091,0 80,17.9490909 80,40 C80,62.0509091 62.0509091,80 40,80 L40,80 Z M40,2.90909091 C19.5490909,2.90909091 2.90909091,19.5490909 2.90909091,40 C2.90909091,60.4509091 19.5490909,77.0909091 40,77.0909091 C60.4509091,77.0909091 77.0909091,60.4509091 77.0909091,40 C77.0909091,19.5490909 60.4509091,2.90909091 40,2.90909091 L40,2.90909091 Z"/>
    <g transform="translate(18.036 22.4)">
      <rect width="11.345" height="3.113" x="16.291" y=".262" fill="#22415B"/>
      <path fill="#22415B" d="M42.24,6.83636364 C41.3090909,5.90545455 40,5.29454545 38.5745455,5.29454545 L5.35272727,5.29454545 C3.92727273,5.29454545 2.61818182,5.87636364 1.68727273,6.83636364 C0.756363636,7.76727273 0.145454545,9.07636364 0.145454545,10.5018182 L0.145454545,29.7309091 C0.145454545,31.1563636 0.727272727,32.4654545 1.68727273,33.3963636 C2.61818182,34.3272727 3.92727273,34.9090909 5.35272727,34.9090909 L38.5745455,34.9090909 C40,34.9090909 41.3090909,34.3272727 42.24,33.3963636 C43.1709091,32.4654545 43.7818182,31.1563636 43.7818182,29.7309091 L43.7818182,10.5018182 C43.7818182,9.07636364 43.2,7.79636364 42.24,6.83636364 L42.24,6.83636364 Z"/>
      <path fill="#FFFFFF" d="M40.6690909,29.7309091 C40.6690909,30.3127273 40.4363636,30.8363636 40.0581818,31.2145455 C39.68,31.5927273 39.1563636,31.8254545 38.5745455,31.8254545 L5.35272727,31.8254545 C4.77090909,31.8254545 4.24727273,31.5927273 3.86909091,31.2145455 C3.49090909,30.8363636 3.25818182,30.3127273 3.25818182,29.7309091 L3.25818182,10.5018182 C3.25818182,9.92 3.49090909,9.39636364 3.86909091,9.01818182 C4.24727273,8.64 4.77090909,8.40727273 5.35272727,8.40727273 L38.5745455,8.40727273 C39.1563636,8.40727273 39.68,8.64 40.0581818,9.01818182 C40.4363636,9.39636364 40.6690909,9.92 40.6690909,10.5018182 L40.6690909,29.7309091 L40.6690909,29.7309091 Z"/>
      <path fill="#22415B" d="M21.9636364,10.4436364 C19.2872727,10.4436364 16.8727273,11.52 15.1272727,13.2945455 C13.3818182,15.04 12.3054545,17.4545455 12.3054545,20.1309091 C12.3054545,22.8072727 13.3818182,25.2218182 15.1272727,26.9672727 C16.8727273,28.7127273 19.2872727,29.8181818 21.9636364,29.8181818 C24.64,29.8181818 27.0545455,28.7418182 28.8,26.9672727 C30.5454545,25.2218182 31.6509091,22.8072727 31.6509091,20.1309091 C31.6509091,17.4545455 30.5745455,15.04 28.8,13.2945455 C27.0545455,11.52 24.64,10.4436364 21.9636364,10.4436364 L21.9636364,10.4436364 Z"/>
      <path fill="#FFFFFF" d="M26.6181818,24.7854545 C25.4254545,25.9781818 23.7672727,26.7054545 21.9636364,26.7054545 C20.16,26.7054545 18.5018182,25.9781818 17.3090909,24.7854545 C16.1163636,23.5927273 15.3890909,21.9345455 15.3890909,20.1309091 C15.3890909,18.2981818 16.1163636,16.6690909 17.3090909,15.4763636 C18.5018182,14.2836364 20.16,13.5563636 21.9636364,13.5563636 C23.7963636,13.5563636 25.4254545,14.2836364 26.6181818,15.4763636 C27.8109091,16.6690909 28.5381818,18.3272727 28.5381818,20.1309091 C28.5381818,21.9345455 27.8109091,23.5927273 26.6181818,24.7854545 L26.6181818,24.7854545 Z"/>
      <path fill="#E84131" d="M32.7563636 18.5309091L39.2436364 18.5309091 39.2436364 15.4181818 31.68 15.4181818C32.2036364 16.3781818 32.5818182 17.4254545 32.7563636 18.5309091L32.7563636 18.5309091zM4.27636364 18.5309091L10.9672727 18.5309091C11.1418182 17.4254545 11.52 16.3781818 12.0436364 15.4181818L4.27636364 15.4181818 4.27636364 18.5309091 4.27636364 18.5309091zM21.9636364 14.8072727C19.0254545 14.8072727 16.64 17.1927273 16.64 20.1309091 16.64 23.0690909 19.0254545 25.4545455 21.9636364 25.4545455 24.9018182 25.4545455 27.2872727 23.0690909 27.2872727 20.1309091 27.2872727 17.1927273 24.9018182 14.8072727 21.9636364 14.8072727L21.9636364 14.8072727z"/>
    </g>
  </g>
</svg>
