<svg xmlns="http://www.w3.org/2000/svg" width="64" height="64" viewBox="0 0 64 64">
  <g fill="none" fill-rule="evenodd">
    <rect width="64" height="64" fill="#22415B" rx="2"/>
    <path fill="#FFFFFF" d="M44.5182812,29.5288353 L19.7794949,29.5288353 C19.348285,29.5288353 18.9532605,29.7067471 18.6667923,29.9932152 C18.3833396,30.2796834 18.2024124,30.6716924 18.2024124,31.1029024 L18.2024124,47.2205051 C18.2024124,47.651715 18.3833396,48.0467395 18.6667923,48.3332077 C18.9532605,48.6196758 19.348285,48.7975876 19.7794949,48.7975876 L44.5182812,48.7975876 C44.9494911,48.7975876 45.3415002,48.6196758 45.6279683,48.3332077 C45.9144365,48.0467395 46.0923483,47.651715 46.0923483,47.2205051 L46.0923483,31.1029024 C46.0923483,30.6716924 45.9144365,30.2796834 45.6279683,29.9932152 C45.3415002,29.7067471 44.9494911,29.5288353 44.5182812,29.5288353 L44.5182812,29.5288353 Z M32.1458726,45.0162081 C33.0294007,45.0162081 33.7500942,44.2955145 33.7500942,43.4150019 L33.7500942,38.3279306 C34.4526951,37.8273652 34.9110441,37.0041462 34.9110441,36.0723709 C34.9110441,34.5465511 33.6747079,33.3071994 32.1458726,33.3071994 C30.6230682,33.3071994 29.3837165,34.5465511 29.3837165,36.0723709 C29.3837165,37.0041462 29.8420656,37.8273652 30.5446664,38.3279306 L30.5446664,43.4150019 C30.5446664,44.2955145 31.26536,45.0162081 32.1458726,45.0162081 L32.1458726,45.0162081 Z M25.3852243,26.3234075 L38.9125518,26.3234075 L38.9125518,20.9649453 C38.9125518,19.3818319 38.2642292,17.9434602 37.2178666,16.9001131 C36.1745194,15.8537505 34.7361478,15.2054278 33.1530343,15.2054278 L31.1417263,15.2054278 C29.5616283,15.2054278 28.1232567,15.8537505 27.0768941,16.9001131 C26.0335469,17.9434602 25.3852243,19.3818319 25.3852243,20.9649453 L25.3852243,26.3234075 Z M19.7794949,26.3234075 L22.1797965,26.3234075 L22.1797965,20.9649453 C22.1797965,18.4983038 23.1899736,16.2578213 24.812288,14.6324915 C26.4346023,13.0101772 28.6781003,12 31.1417263,12 L33.1530343,12 C35.6196758,12 37.8601583,13.0101772 39.4854881,14.6324915 C41.104787,16.2578213 42.1179796,18.4983038 42.1179796,20.9649453 L42.1179796,26.3234075 L44.5182812,26.3234075 C45.8360347,26.3234075 47.0301545,26.8601583 47.8955899,27.7255937 C48.7610253,28.591029 49.2977761,29.7881643 49.2977761,31.1029024 L49.2977761,47.2205051 C49.2977761,48.5382586 48.7610253,49.7323784 47.8955899,50.5978138 C47.0301545,51.4632492 45.8360347,52 44.5182812,52 L19.7794949,52 C18.4617414,52 17.2676216,51.4632492 16.4021862,50.5978138 C15.5367508,49.7323784 15,48.5382586 15,47.2205051 L15,31.1029024 C15,29.7881643 15.5367508,28.591029 16.4021862,27.7255937 C17.2676216,26.8601583 18.4617414,26.3234075 19.7794949,26.3234075 L19.7794949,26.3234075 Z"/>
  </g>
</svg>
