<svg xmlns="http://www.w3.org/2000/svg" width="80" height="80" viewBox="0 0 80 80">
  <g fill="none" fill-rule="evenodd">
    <circle cx="40" cy="40" r="40" fill="#FFFFFF"/>
    <path fill="#22415B" d="M40,80 C17.9490909,80 0,62.0509091 0,40 C0,17.9490909 17.9490909,0 40,0 C62.0509091,0 80,17.9490909 80,40 C80,62.0509091 62.0509091,80 40,80 L40,80 Z M40,2.90909091 C19.5490909,2.90909091 2.90909091,19.5490909 2.90909091,40 C2.90909091,60.4509091 19.5490909,77.0909091 40,77.0909091 C60.4509091,77.0909091 77.0909091,60.4509091 77.0909091,40 C77.0909091,19.5490909 60.4509091,2.90909091 40,2.90909091 L40,2.90909091 Z"/>
    <g transform="translate(18.036 22.4)">
      <path fill="#22415B" d="M39.0109091,23.8254545 C39.7963636,23.04 40.2909091,21.9345455 40.2909091,20.7418182 L40.2909091,4.53818182 C40.2909091,3.34545455 39.7963636,2.24 39.0109091,1.42545455 C38.2254545,0.64 37.12,0.145454545 35.8981818,0.145454545 L7.85454545,0.145454545 C6.63272727,0.145454545 5.55636364,0.64 4.74181818,1.42545455 C3.95636364,2.21090909 3.46181818,3.31636364 3.46181818,4.53818182 L3.46181818,20.7709091 C3.46181818,21.9636364 3.95636364,23.0690909 4.74181818,23.8545455 C3.84,24.7563636 0.145454545,29.6145455 0.145454545,30.6909091 C0.145454545,31.8836364 0.64,32.9890909 1.42545455,33.8036364 C2.21090909,34.6181818 3.31636364,35.0836364 4.53818182,35.0836364 L39.3890909,35.0836364 C40.6109091,35.0836364 41.6872727,34.5890909 42.5018182,33.8036364 C43.2872727,33.0181818 43.7818182,31.9127273 43.7818182,30.6909091 C43.7818182,28.6836364 40.0581818,24.8727273 39.0109091,23.8254545 L39.0109091,23.8254545 Z"/>
      <path fill="#FFFFFF" d="M6.08 4.53818182C6.08 4.04363636 6.28363636 3.60727273 6.60363636 3.28727273 6.92363636 2.96727273 7.36 2.76363636 7.85454545 2.76363636L35.8981818 2.76363636C36.3927273 2.76363636 36.8290909 2.96727273 37.1490909 3.28727273 37.4690909 3.60727273 37.6727273 4.04363636 37.6727273 4.53818182L37.6727273 20.7709091C37.6727273 21.2654545 37.4690909 21.7018182 37.1490909 22.0218182 36.8290909 22.3418182 36.3927273 22.5454545 35.8981818 22.5454545L7.85454545 22.5454545C7.36 22.5454545 6.92363636 22.3418182 6.60363636 22.0218182 6.28363636 21.7018182 6.08 21.2654545 6.08 20.7709091L6.08 4.53818182 6.08 4.53818182zM41.1636364 30.6618182C41.1636364 31.1563636 40.96 31.5927273 40.64 31.9127273 40.32 32.2327273 39.8836364 32.4363636 39.3890909 32.4363636L4.53818182 32.4363636C4.04363636 32.4363636 3.60727273 32.2327273 3.28727273 31.9127273 2.96727273 31.5927273 2.76363636 31.1563636 2.76363636 30.6618182 3.25818182 28.8581818 5.93454545 26.3272727 6.60363636 25.6581818 6.92363636 25.3381818 7.36 25.1345455 7.85454545 25.1345455L35.8981818 25.1345455C36.3927273 25.1345455 36.8290909 25.3381818 37.1490909 25.6581818 37.9927273 26.5018182 41.4254545 29.7309091 41.1636364 30.6618182L41.1636364 30.6618182z"/>
      <g fill="#E84131" transform="translate(7.855 4.945)">
        <rect width="27.549" height="15.244" x=".262" y=".058"/>
        <rect width="9.222" height="2.618" x="9.484" y="22.807"/>
      </g>
    </g>
  </g>
</svg>
