<?xml version="1.0" encoding="utf-8"?>
<!-- Generator: Adobe Illustrator 19.0.0, SVG Export Plug-In . SVG Version: 6.00 Build 0)  -->
<svg version="1.1" id="Layer_1" xmlns="http://www.w3.org/2000/svg" xmlns:xlink="http://www.w3.org/1999/xlink" x="0px" y="0px"
	 viewBox="0 0 80 80" enable-background="new 0 0 80 80" xml:space="preserve">
<g id="XMLID_5_">
	<circle id="XMLID_243_" fill="#FFFFFF" cx="40" cy="40" r="40"/>
	<g id="XMLID_229_">
		<path id="XMLID_245_" fill="#22415B" d="M40,80C17.9,80,0,62.1,0,40S17.9,0,40,0s40,17.9,40,40S62.1,80,40,80z M40,2.9
			C19.5,2.9,2.9,19.5,2.9,40S19.5,77.1,40,77.1S77.1,60.5,77.1,40S60.5,2.9,40,2.9z"/>
	</g>
	<path id="XMLID_134_" fill-rule="evenodd" clip-rule="evenodd" fill="#22415B" d="M32.7,18.2h14.6c3.6,0,6.5,2.8,6.5,6.2v31.2
		c0,3.4-2.9,6.2-6.5,6.2H32.7c-3.6,0-6.5-2.8-6.5-6.2V24.4C26.2,21,29.1,18.2,32.7,18.2z M28.7,25.5v29c0,2.6,2.1,4.8,4.8,4.8h13
		c2.6,0,4.8-2.1,4.8-4.8v-29c0-2.6-2.1-4.8-4.8-4.8h-13C30.9,20.7,28.7,22.9,28.7,25.5z"/>
	<path id="XMLID_132_" fill-rule="evenodd" clip-rule="evenodd" fill="#FFFFFF" d="M33.3,20.7h13.3c2.5,0,4.6,2.1,4.6,4.6v29.4
		c0,2.5-2.1,4.6-4.6,4.6H33.3c-2.5,0-4.6-2.1-4.6-4.6V25.3C28.7,22.8,30.8,20.7,33.3,20.7z"/>
	<g id="XMLID_11_">
		<polygon id="XMLID_131_" fill-rule="evenodd" clip-rule="evenodd" fill="#E84131" points="40,26.5 41.8,27.9 43.7,29.2 43,31.3 
			42.3,33.5 40,33.5 37.7,33.5 37,31.3 36.3,29.2 38.2,27.9 		"/>
		<path id="XMLID_17_" fill-rule="evenodd" clip-rule="evenodd" fill="#FFFFFF" d="M38.8,30.8h-0.9v0.1l0.3,0.2v1.3l-0.3,0.2
			l0.1,0.1h1.5c0,0,0.3-0.7,0.3-0.7l-0.2-0.1l-0.3,0.4h-0.6V31L38.8,30.8L38.8,30.8L38.8,30.8z M40.1,30.9c0,0,0,1.3,0,1.3l-0.2,0.2
			l0.1,0.2h0.8l0.1-0.1l-0.2-0.2v-0.9l0.5,0.8l0.5-0.8v0.9l-0.2,0.2l0.1,0.1h0.8l0.1-0.2L42,32.3c0,0,0-1.3,0-1.3
			c0,0,0.3-0.1,0.3-0.1l0-0.2h-0.8L41,31.4h0l-0.5-0.7h-0.8l0,0.2C39.8,30.9,40.1,30.9,40.1,30.9z"/>
		<path id="XMLID_14_" fill-rule="evenodd" clip-rule="evenodd" fill="#FFFFFF" d="M42.7,29.1v-0.2h-4.6l-0.7,0.5v0.2h0.1l0.7-0.5
			H42.7L42.7,29.1z M41.3,29.4l0.2-0.2h0.2l-0.3,0.4h-3l0.2-0.2H41.3z"/>
	</g>
	<g id="XMLID_9_">
		<path id="XMLID_8_" fill-rule="evenodd" clip-rule="evenodd" fill="#E84131" d="M35,46.9l0.6-0.1c0,0.1,0,0.2,0.1,0.3
			c0.1,0.1,0.1,0.1,0.2,0.1c0.1,0,0.2-0.1,0.3-0.2c0.1-0.1,0.1-0.3,0.2-0.7c-0.1,0.2-0.3,0.2-0.5,0.2c-0.2,0-0.4-0.1-0.6-0.3
			C35,46.1,35,45.9,35,45.6c0-0.3,0.1-0.5,0.3-0.7c0.2-0.2,0.4-0.3,0.7-0.3c0.3,0,0.5,0.1,0.7,0.4c0.2,0.2,0.3,0.6,0.3,1.2
			c0,0.5-0.1,0.9-0.3,1.2c-0.2,0.2-0.5,0.4-0.8,0.4c-0.2,0-0.4-0.1-0.6-0.2C35.2,47.3,35.1,47.1,35,46.9L35,46.9z M36.3,45.6
			c0-0.2,0-0.3-0.1-0.4c-0.1-0.1-0.2-0.2-0.3-0.2c-0.1,0-0.2,0-0.3,0.1c-0.1,0.1-0.1,0.2-0.1,0.4c0,0.2,0,0.3,0.1,0.4
			c0.1,0.1,0.2,0.1,0.3,0.1c0.1,0,0.2,0,0.3-0.1C36.3,45.9,36.3,45.8,36.3,45.6L36.3,45.6z"/>
		<path id="XMLID_7_" fill-rule="evenodd" clip-rule="evenodd" fill="#E84131" d="M37.3,46.9l0.6-0.1c0,0.1,0,0.2,0.1,0.3
			c0.1,0.1,0.1,0.1,0.2,0.1c0.1,0,0.2-0.1,0.3-0.2c0.1-0.1,0.1-0.3,0.2-0.7c-0.1,0.2-0.3,0.2-0.5,0.2c-0.2,0-0.4-0.1-0.6-0.3
			c-0.2-0.2-0.3-0.4-0.3-0.7c0-0.3,0.1-0.5,0.3-0.7c0.2-0.2,0.4-0.3,0.7-0.3c0.3,0,0.5,0.1,0.7,0.4c0.2,0.2,0.3,0.6,0.3,1.2
			c0,0.5-0.1,0.9-0.3,1.2c-0.2,0.2-0.5,0.4-0.8,0.4c-0.2,0-0.4-0.1-0.6-0.2C37.5,47.3,37.4,47.1,37.3,46.9L37.3,46.9z M38.6,45.6
			c0-0.2,0-0.3-0.1-0.4c-0.1-0.1-0.2-0.2-0.3-0.2c-0.1,0-0.2,0-0.3,0.1c-0.1,0.1-0.1,0.2-0.1,0.4c0,0.2,0,0.3,0.1,0.4
			c0.1,0.1,0.2,0.1,0.3,0.1c0.1,0,0.2,0,0.3-0.1C38.6,45.9,38.6,45.8,38.6,45.6L38.6,45.6z"/>
		<path id="XMLID_4_" fill-rule="evenodd" clip-rule="evenodd" fill="#E84131" d="M39.6,46.9l0.6-0.1c0,0.1,0,0.2,0.1,0.3
			c0.1,0.1,0.1,0.1,0.2,0.1c0.1,0,0.2-0.1,0.3-0.2c0.1-0.1,0.1-0.3,0.2-0.7c-0.1,0.2-0.3,0.2-0.5,0.2c-0.2,0-0.4-0.1-0.6-0.3
			c-0.2-0.2-0.3-0.4-0.3-0.7c0-0.3,0.1-0.5,0.3-0.7c0.2-0.2,0.4-0.3,0.7-0.3c0.3,0,0.5,0.1,0.7,0.4c0.2,0.2,0.3,0.6,0.3,1.2
			c0,0.5-0.1,0.9-0.3,1.2c-0.2,0.2-0.5,0.4-0.8,0.4c-0.2,0-0.4-0.1-0.6-0.2C39.8,47.3,39.7,47.1,39.6,46.9L39.6,46.9z M40.9,45.6
			c0-0.2,0-0.3-0.1-0.4c-0.1-0.1-0.2-0.2-0.3-0.2c-0.1,0-0.2,0-0.3,0.1c-0.1,0.1-0.1,0.2-0.1,0.4c0,0.2,0,0.3,0.1,0.4
			c0.1,0.1,0.2,0.1,0.3,0.1c0.1,0,0.2,0,0.3-0.1C40.9,45.9,40.9,45.8,40.9,45.6L40.9,45.6z"/>
		<polygon id="XMLID_108_" fill-rule="evenodd" clip-rule="evenodd" fill="#E84131" points="42.1,47.6 42.1,47 42.6,47 42.6,47.6 
			42.1,47.6 		"/>
		<path id="XMLID_3_" fill-rule="evenodd" clip-rule="evenodd" fill="#E84131" d="M43.1,46.9l0.6-0.1c0,0.1,0,0.2,0.1,0.3
			c0.1,0.1,0.1,0.1,0.2,0.1c0.1,0,0.2-0.1,0.3-0.2c0.1-0.1,0.1-0.3,0.2-0.7c-0.1,0.2-0.3,0.2-0.5,0.2c-0.2,0-0.4-0.1-0.6-0.3
			c-0.2-0.2-0.3-0.4-0.3-0.7c0-0.3,0.1-0.5,0.3-0.7c0.2-0.2,0.4-0.3,0.7-0.3c0.3,0,0.5,0.1,0.7,0.4c0.2,0.2,0.3,0.6,0.3,1.2
			c0,0.5-0.1,0.9-0.3,1.2c-0.2,0.2-0.5,0.4-0.8,0.4c-0.2,0-0.4-0.1-0.6-0.2C43.2,47.3,43.2,47.1,43.1,46.9L43.1,46.9z M44.4,45.6
			c0-0.2,0-0.3-0.1-0.4c-0.1-0.1-0.2-0.2-0.3-0.2c-0.1,0-0.2,0-0.3,0.1c-0.1,0.1-0.1,0.2-0.1,0.4c0,0.2,0,0.3,0.1,0.4
			c0.1,0.1,0.2,0.1,0.3,0.1c0.1,0,0.2,0,0.3-0.1C44.4,45.9,44.4,45.8,44.4,45.6L44.4,45.6z"/>
	</g>
	<g id="XMLID_10_">
		<polygon id="XMLID_115_" fill-rule="evenodd" clip-rule="evenodd" fill="#E84131" points="30.1,41.3 30.1,38.7 32,38.7 32,39.1 
			30.7,39.1 30.7,39.8 31.8,39.8 31.8,40.2 30.7,40.2 30.7,41.3 30.1,41.3 		"/>
		<polygon id="XMLID_98_" fill-rule="evenodd" clip-rule="evenodd" fill="#E84131" points="32.4,41.3 32.4,38.7 32.9,38.7 
			32.9,41.3 32.4,41.3 		"/>
		<polygon id="XMLID_97_" fill-rule="evenodd" clip-rule="evenodd" fill="#E84131" points="33.4,41.3 33.4,38.7 33.9,38.7 35,40.5 
			35,38.7 35.5,38.7 35.5,41.3 35,41.3 33.9,39.6 33.9,41.3 33.4,41.3 		"/>
		<polygon id="XMLID_96_" fill-rule="evenodd" clip-rule="evenodd" fill="#E84131" points="36.1,41.3 36.1,38.7 38.1,38.7 
			38.1,39.1 36.6,39.1 36.6,39.7 38,39.7 38,40.2 36.6,40.2 36.6,40.9 38.1,40.9 38.1,41.3 36.1,41.3 		"/>
		<path id="XMLID_95_" fill-rule="evenodd" clip-rule="evenodd" fill="#E84131" d="M40.8,40.4v-0.4H42V41c-0.1,0.1-0.3,0.2-0.5,0.3
			c-0.2,0.1-0.4,0.1-0.6,0.1c-0.3,0-0.5-0.1-0.7-0.2c-0.2-0.1-0.4-0.3-0.5-0.5c-0.1-0.2-0.2-0.5-0.2-0.7c0-0.3,0.1-0.5,0.2-0.7
			c0.1-0.2,0.3-0.4,0.5-0.5c0.2-0.1,0.4-0.1,0.6-0.1c0.3,0,0.6,0.1,0.8,0.2c0.2,0.1,0.3,0.3,0.4,0.6l-0.5,0.1c0-0.1-0.1-0.2-0.2-0.3
			c-0.1-0.1-0.2-0.1-0.4-0.1c-0.2,0-0.4,0.1-0.6,0.2c-0.1,0.1-0.2,0.4-0.2,0.7c0,0.3,0.1,0.6,0.2,0.7c0.1,0.2,0.3,0.2,0.6,0.2
			c0.1,0,0.2,0,0.3-0.1c0.1,0,0.2-0.1,0.3-0.2v-0.3H40.8L40.8,40.4z"/>
		<path id="XMLID_1_" fill-rule="evenodd" clip-rule="evenodd" fill="#E84131" d="M42.4,40c0-0.3,0-0.5,0.1-0.7
			c0.1-0.1,0.1-0.3,0.2-0.4c0.1-0.1,0.2-0.2,0.3-0.2c0.2-0.1,0.4-0.1,0.6-0.1c0.4,0,0.7,0.1,0.9,0.4c0.2,0.2,0.4,0.6,0.4,1
			c0,0.4-0.1,0.8-0.3,1c-0.2,0.2-0.5,0.4-0.9,0.4c-0.4,0-0.7-0.1-0.9-0.4C42.5,40.8,42.4,40.4,42.4,40L42.4,40z M42.9,40
			c0,0.3,0.1,0.5,0.2,0.7c0.1,0.2,0.3,0.2,0.5,0.2c0.2,0,0.4-0.1,0.5-0.2c0.1-0.2,0.2-0.4,0.2-0.7c0-0.3-0.1-0.5-0.2-0.7
			c-0.1-0.2-0.3-0.2-0.5-0.2c-0.2,0-0.4,0.1-0.5,0.2C43,39.5,42.9,39.7,42.9,40L42.9,40z"/>
		<polygon id="XMLID_92_" fill-rule="evenodd" clip-rule="evenodd" fill="#E84131" points="45.4,41.3 45.4,38.7 45.9,38.7 
			45.9,40.9 47.3,40.9 47.3,41.3 45.4,41.3 		"/>
		<path id="XMLID_2_" fill-rule="evenodd" clip-rule="evenodd" fill="#E84131" d="M47.6,38.7h1c0.2,0,0.4,0,0.5,0.1
			c0.2,0,0.3,0.1,0.4,0.2c0.1,0.1,0.2,0.3,0.3,0.4c0.1,0.2,0.1,0.4,0.1,0.6c0,0.2,0,0.4-0.1,0.6c-0.1,0.2-0.2,0.4-0.3,0.5
			c-0.1,0.1-0.2,0.2-0.4,0.2c-0.1,0-0.3,0.1-0.5,0.1h-1V38.7L47.6,38.7z M48.2,39.1v1.8h0.4c0.1,0,0.3,0,0.3,0
			c0.1,0,0.2-0.1,0.2-0.1c0.1-0.1,0.1-0.1,0.1-0.3c0-0.1,0.1-0.3,0.1-0.5c0-0.2,0-0.4-0.1-0.5c0-0.1-0.1-0.2-0.2-0.3
			c-0.1-0.1-0.1-0.1-0.2-0.1c-0.1,0-0.2,0-0.4,0H48.2z"/>
	</g>
</g>
</svg>
