<svg xmlns="http://www.w3.org/2000/svg" width="50" height="50" viewBox="0 0 50 50" xmlns:xlink="http://www.w3.org/1999/xlink">
  <defs>
    <polygon id="a" points="49.906 49.65 49.906 .094 0 .094 0 49.65 49.906 49.65"/>
    <polygon id="c" points="0 49.906 49.906 49.906 49.906 .35 0 .35"/>
  </defs>
  <g fill="none" fill-rule="evenodd">
    <g transform="translate(0 .256)">
      <mask id="b" fill="white">
        <use xlink:href="#a"/>
      </mask>
      <path fill="#ECECEC" d="M49.9057394,24.871993 C49.9057394,38.5566084 38.7339085,49.6503147 24.9529225,49.6503147 C11.1719366,49.6503147 0.000105633803,38.5566084 0.000105633803,24.871993 C0.000105633803,11.1873776 11.1719366,0.0936713287 24.9529225,0.0936713287 C38.7339085,0.0936713287 49.9057394,11.1873776 49.9057394,24.871993" mask="url(#b)"/>
    </g>
    <mask id="d" fill="white">
      <use xlink:href="#c"/>
    </mask>
    <polygon fill="#76AA60" points="9.981 35.526 39.924 35.526 39.924 21.572 9.981 21.572" mask="url(#d)"/>
    <polygon fill="#90C67B" points="11.722 33.841 38.184 33.841 38.184 23.258 11.722 23.258" mask="url(#d)"/>
    <path fill="#76AA60" d="M15.0373239 23.2575175C15.0373239 25.0756993 13.553169 26.5494755 11.7221831 26.5494755L11.7221831 23.2575175 15.0373239 23.2575175zM34.8687676 23.2575175C34.8687676 25.0756993 36.3529225 26.5494755 38.1839085 26.5494755L38.1839085 23.2575175 34.8687676 23.2575175zM15.0373239 34.1112937C15.0373239 32.2931119 13.553169 30.8196853 11.7221831 30.8196853L11.7221831 34.1112937 15.0373239 34.1112937zM34.8687676 34.1112937C34.8687676 32.2931119 36.3529225 30.8196853 38.1839085 30.8196853L38.1839085 34.1112937 34.8687676 34.1112937zM24.9528521 24.6728322C27.1084859 24.6728322 28.8563732 26.4081469 28.8563732 28.5490559 28.8563732 30.6896154 27.1084859 32.4252797 24.9528521 32.4252797 22.7972183 32.4252797 21.049331 30.6896154 21.049331 28.5490559 21.049331 26.4081469 22.7972183 24.6728322 24.9528521 24.6728322" mask="url(#d)"/>
    <polygon fill="#76AA60" points="9.981 21.402 39.924 21.402 39.924 14.729 9.981 14.729" mask="url(#d)"/>
    <polygon fill="#90C67B" points="9.981 21.721 39.924 21.721 39.924 21.083 9.981 21.083" mask="url(#d)"/>
    <polygon fill="#90C67B" points="9.981 20.005 39.924 20.005 39.924 19.366 9.981 19.366" mask="url(#d)"/>
    <polygon fill="#90C67B" points="9.981 18.288 39.924 18.288 39.924 17.65 9.981 17.65" mask="url(#d)"/>
    <polygon fill="#90C67B" points="9.981 16.572 39.924 16.572 39.924 15.933 9.981 15.933" mask="url(#d)"/>
    <polygon fill="#FFD573" points="23.567 35.526 26.339 35.526 26.339 18.443 23.567 18.443" mask="url(#d)"/>
    <polygon fill="#F2A900" points="23.567 21.572 26.339 21.572 26.339 14.729 23.567 14.729" mask="url(#d)"/>
  </g>
</svg>
