<svg xmlns="http://www.w3.org/2000/svg" width="80" height="80" viewBox="0 0 80 80" xmlns:xlink="http://www.w3.org/1999/xlink">
  <defs>
    <polygon id="a" points="80 40 80 80 0 80 0 40 0 .001 80 .001"/>
  </defs>
  <g fill="none" fill-rule="evenodd">
    <path fill="#FFFFFF" d="M80,40 C80,62.0914286 62.0914286,80 40,80 C17.9085714,80 0,62.0914286 0,40 C0,17.9085714 17.9085714,0 40,0 C62.0914286,0 80,17.9085714 80,40"/>
    <mask id="b" fill="white">
      <use xlink:href="#a"/>
    </mask>
    <path fill="#22415B" d="M40,2.90914286 C19.5485714,2.90914286 2.90857143,19.548 2.90857143,40.0005714 C2.90857143,60.452 19.5485714,77.0908571 40,77.0908571 C60.4514286,77.0908571 77.0914286,60.452 77.0914286,40.0005714 C77.0914286,19.548 60.4514286,2.90914286 40,2.90914286 M40,80.0005714 C17.944,80.0005714 0,62.0565714 0,40.0005714 C0,17.9445714 17.944,0.000571428571 40,0.000571428571 C62.056,0.000571428571 80,17.9445714 80,40.0005714 C80,62.0565714 62.056,80.0005714 40,80.0005714" mask="url(#b)"/>
    <path fill="#FFFFFF" d="M18.6539429,47.3617143 L61.3305143,47.3617143 C61.4779429,47.2771429 61.7053714,46.8965714 61.8288,46.58 L61.8288,41.3262857 C60.6128,39.8897143 56.3602286,38.8428571 54.4905143,38.3822857 C53.2893714,38.0862857 52.7888,37.9582857 52.4505143,37.7651429 C51.7956571,37.3914286 50.3362286,35.7114286 46.4448,30.8531429 C46.0585143,30.3708571 45.7476571,29.9822857 45.5556571,29.7491429 C44.8139429,28.8417143 42.5899429,28.0657143 41.3202286,27.8268571 C40.3670857,27.6485714 33.4333714,28.1662857 31.7533714,28.6142857 C31.3670857,28.7171429 31.0459429,28.7925714 30.7533714,28.8622857 C29.7499429,29.0988571 29.1442286,29.2417143 27.0493714,30.2897143 C25.2150857,31.2062857 20.8493714,36.1845714 18.1933714,39.5068571 C18.1819429,40.8931429 18.1476571,45.4314286 18.1956571,46.4874286 C18.2139429,46.876 18.4653714,47.1845714 18.6539429,47.3617143"/>
    <path fill="#22415B" d="M18.6539429,47.3617143 L61.3305143,47.3617143 C61.4779429,47.2771429 61.7053714,46.8965714 61.8288,46.58 L61.8288,41.3262857 C60.6128,39.8897143 56.3602286,38.8428571 54.4905143,38.3822857 C53.2893714,38.0862857 52.7888,37.9582857 52.4505143,37.7651429 C51.7956571,37.3914286 50.3362286,35.7114286 46.4448,30.8531429 C46.0585143,30.3708571 45.7476571,29.9822857 45.5556571,29.7491429 C44.8139429,28.8417143 42.5899429,28.0657143 41.3202286,27.8268571 C40.3670857,27.6485714 33.4333714,28.1662857 31.7533714,28.6142857 C31.3670857,28.7171429 31.0459429,28.7925714 30.7533714,28.8622857 C29.7499429,29.0988571 29.1442286,29.2417143 27.0493714,30.2897143 C25.2150857,31.2062857 20.8493714,36.1845714 18.1933714,39.5068571 C18.1819429,40.8931429 18.1476571,45.4314286 18.1956571,46.4874286 C18.2139429,46.876 18.4653714,47.1845714 18.6539429,47.3617143 M61.3602286,49.708 L17.9305143,49.708 L17.6528,49.54 C17.4768,49.4348571 15.9373714,48.4588571 15.8528,46.5937143 C15.7933714,45.2862857 15.8493714,39.3342857 15.8516571,39.0817143 L15.8550857,38.6794286 L16.1042286,38.3651429 C16.8059429,37.4794286 23.0379429,29.6725714 26.0002286,28.1914286 C28.3396571,27.0211429 29.1259429,26.836 30.2139429,26.5788571 C30.4882286,26.5148571 30.7876571,26.444 31.1488,26.348 C32.9019429,25.8805714 40.2882286,25.2462857 41.7545143,25.5205714 C41.7945143,25.5285714 45.7613714,26.2942857 47.3716571,28.2634286 C47.5659429,28.5011429 47.8825143,28.8965714 48.2756571,29.3868571 C49.5385143,30.9628571 52.8539429,35.1034286 53.6173714,35.7251429 C53.8413714,35.8062857 54.4825143,35.964 55.0516571,36.1045714 C58.8608,37.0428571 62.6893714,38.1434286 64.0093714,40.3537143 L64.1750857,40.6314286 L64.1750857,46.9468571 L64.1248,47.1125714 C64.0459429,47.3777143 63.2905143,49.708 61.3602286,49.708"/>
    <path fill="#E84131" d="M27.2931429,36.4066286 L45.588,36.4066286 C44.6348571,35.2672 43.6531429,34.0317714 43.3308571,33.6237714 C42.8188571,33.0329143 42.2348571,32.4134857 42.0451429,32.2603429 C41.7011429,32.0832 40.236,31.7037714 38.9571429,31.7037714 C37.396,31.7037714 33.3342857,32.0020571 31.3834286,32.4900571 C30.7331429,32.6523429 29.1148571,34.1323429 27.2931429,36.4066286 L27.2931429,36.4066286 Z M51.4325714,38.7529143 L22.6702857,38.7529143 L23.9845714,36.9003429 C27.9731429,31.2832 30.2211429,30.3620571 30.8142857,30.2134857 C33.0302857,29.6603429 37.356,29.3574857 38.9571429,29.3574857 C40.5594286,29.3574857 42.6737143,29.8249143 43.3925714,30.3392 C43.8657143,30.6763429 44.7605714,31.6900571 45.1228571,32.1094857 L45.156,32.1494857 C46.4405714,33.7757714 48.476,36.2580571 48.98,36.6832 L51.4325714,38.7529143 Z"/>
    <path fill="#FFFFFF" d="M33.0929143,48.0945143 C33.0929143,51.0099429 30.7294857,53.3722286 27.8152,53.3722286 C24.8997714,53.3722286 22.5363429,51.0099429 22.5363429,48.0945143 C22.5363429,45.1790857 24.8997714,42.8168 27.8152,42.8168 C30.7294857,42.8168 33.0929143,45.1790857 33.0929143,48.0945143"/>
    <path fill="#22415B" d="M27.8149714,43.9893714 C25.5509714,43.9893714 23.7098286,45.8305143 23.7098286,48.0945143 C23.7098286,50.3585143 25.5509714,52.1996571 27.8149714,52.1996571 C30.0789714,52.1996571 31.9201143,50.3585143 31.9201143,48.0945143 C31.9201143,45.8305143 30.0789714,43.9893714 27.8149714,43.9893714 M27.8149714,54.5459429 C24.2584,54.5459429 21.3635429,51.6510857 21.3635429,48.0945143 C21.3635429,44.5379429 24.2584,41.6430857 27.8149714,41.6430857 C31.3715429,41.6430857 34.2664,44.5379429 34.2664,48.0945143 C34.2664,51.6510857 31.3715429,54.5459429 27.8149714,54.5459429"/>
    <path fill="#FFFFFF" d="M56.9700571,48.0945143 C56.9700571,51.0099429 54.6066286,53.3722286 51.6923429,53.3722286 C48.7769143,53.3722286 46.4134857,51.0099429 46.4134857,48.0945143 C46.4134857,45.1790857 48.7769143,42.8168 51.6923429,42.8168 C54.6066286,42.8168 56.9700571,45.1790857 56.9700571,48.0945143"/>
    <path fill="#22415B" d="M51.692,43.9893714 C49.428,43.9893714 47.5868571,45.8305143 47.5868571,48.0945143 C47.5868571,50.3585143 49.428,52.1996571 51.692,52.1996571 C53.956,52.1996571 55.7971429,50.3585143 55.7971429,48.0945143 C55.7971429,45.8305143 53.956,43.9893714 51.692,43.9893714 M51.692,54.5459429 C48.1354286,54.5459429 45.2405714,51.6510857 45.2405714,48.0945143 C45.2405714,44.5379429 48.1354286,41.6430857 51.692,41.6430857 C55.2485714,41.6430857 58.1434286,44.5379429 58.1434286,48.0945143 C58.1434286,51.6510857 55.2485714,54.5459429 51.692,54.5459429"/>
    <path fill="#E84131" d="M27.8149714 46.0420571C26.6812571 46.0420571 25.7624 46.9620571 25.7624 48.0946286 25.7624 49.2306286 26.6812571 50.1472 27.8149714 50.1472 28.9486857 50.1472 29.8675429 49.2306286 29.8675429 48.0946286 29.8675429 46.9620571 28.9486857 46.0420571 27.8149714 46.0420571M51.692 46.0420571C50.5582857 46.0420571 49.6394286 46.9620571 49.6394286 48.0946286 49.6394286 49.2306286 50.5582857 50.1472 51.692 50.1472 52.8257143 50.1472 53.7445714 49.2306286 53.7445714 48.0946286 53.7445714 46.9620571 52.8257143 46.0420571 51.692 46.0420571"/>
  </g>
</svg>
