<svg xmlns="http://www.w3.org/2000/svg" width="50" height="50" viewBox="0 0 50 50">
  <g fill="none" fill-rule="evenodd">
    <path fill="#ECECEC" d="M25,50 C11.193,50 0,38.807 0,25 C0,11.193 11.193,0 25,0 C38.807,0 50,11.193 50,25 C50,38.807 38.807,50 25,50 Z"/>
    <path fill="#183953" d="M8.8779,15.843 C8.8779,15.464 9.1879,15.154 9.5669,15.154 L29.9609,15.154 C30.3399,15.154 30.6499,15.464 30.6499,15.843 L30.6499,29.726 C30.6499,30.104 30.3399,29.691 29.9609,29.691 L9.5669,29.691 C9.1879,29.691 8.8779,29.381 8.8779,29.002 L8.8779,15.843 Z"/>
    <path fill="#2ABB9C" d="M31.3387,29.9718 C30.9597,29.9688 30.6497,30.2598 30.6497,29.8808 L30.6497,18.5298 C30.6497,18.1508 30.9597,17.8408 31.3387,17.8408 L36.9427,17.8408 C37.3217,17.8408 37.8217,18.0858 38.0557,18.3838 L40.7907,24.1878 C41.0237,24.4868 41.2137,25.0408 41.2137,25.4198 L41.2137,29.3698 C41.2137,29.7488 40.9037,30.0568 40.5247,30.0538 L31.3387,29.9718 Z"/>
    <path fill="#969696" d="M7.5,30.8857 C7.5,31.2647 7.81,31.5747 8.189,31.5747 L41.811,31.5747 C42.19,31.5747 42.5,31.2647 42.5,30.8857 L42.5,29.7597 C42.5,29.3817 42.19,29.0707 41.811,29.0707 L8.189,29.0707 C7.81,29.0707 7.5,29.3817 7.5,29.7597 L7.5,30.8857 Z"/>
    <path fill="#FFFFFF" d="M32.2574,24.218 C31.8784,24.219 31.5684,23.909 31.5684,23.53 L31.5684,19.767 C31.5684,19.389 31.8784,19.078 32.2574,19.078 L36.3554,19.078 C36.7344,19.078 37.1684,19.363 37.3184,19.711 L38.9944,23.582 C39.1444,23.929 38.9574,24.214 38.5784,24.214 L32.2574,24.218 Z"/>
    <path fill="#323232" d="M33.1655 31.4351C33.1655 30.6941 33.7655 30.0931 34.5065 30.0931 35.2475 30.0931 35.8485 30.6941 35.8485 31.4351 35.8485 32.1761 35.2475 32.7761 34.5065 32.7761 33.7655 32.7761 33.1655 32.1761 33.1655 31.4351M31.2165 31.4351C31.2165 33.2521 32.6895 34.7261 34.5065 34.7261 36.3235 34.7261 37.7975 33.2521 37.7975 31.4351 37.7975 29.6171 36.3235 28.1451 34.5065 28.1451 32.6895 28.1451 31.2165 29.6171 31.2165 31.4351M13.0758 31.5555C13.0758 30.8145 13.6758 30.2135 14.4168 30.2135 15.1578 30.2135 15.7588 30.8145 15.7588 31.5555 15.7588 32.2965 15.1578 32.8975 14.4168 32.8975 13.6758 32.8975 13.0758 32.2965 13.0758 31.5555M11.1268 31.5555C11.1268 33.3725 12.5998 34.8465 14.4168 34.8465 16.2338 34.8465 17.7078 33.3725 17.7078 31.5555 17.7078 29.7385 16.2338 28.2645 14.4168 28.2645 12.5998 28.2645 11.1268 29.7385 11.1268 31.5555"/>
    <path fill="#FFAB25" d="M34.5068 32.7763C35.2478 32.7763 35.8488 32.1763 35.8488 31.4353 35.8488 30.6943 35.2478 30.0933 34.5068 30.0933 33.7658 30.0933 33.1658 30.6943 33.1658 31.4353 33.1658 32.1763 33.7658 32.7763 34.5068 32.7763M14.4173 32.8973C15.1583 32.8973 15.7583 32.2963 15.7583 31.5553 15.7583 30.8153 15.1583 30.2133 14.4173 30.2133 13.6763 30.2133 13.0763 30.8153 13.0763 31.5553 13.0763 32.2963 13.6763 32.8973 14.4173 32.8973"/>
    <path fill="#183953" d="M31.9818,25.8028 C31.9818,25.9388 32.0918,26.0488 32.2278,26.0488 L33.5738,26.0488 C33.7088,26.0488 33.8188,25.9388 33.8188,25.8028 C33.8188,25.6668 33.7088,25.5568 33.5738,25.5568 L32.2278,25.5568 C32.0918,25.5568 31.9818,25.6668 31.9818,25.8028"/>
    <path fill="#ED402F" d="M41.6618,27.3865 C41.6618,27.9425 41.4608,28.3935 41.2138,28.3935 L41.2138,26.0965 C41.4608,26.0965 41.6618,26.5485 41.6618,27.1035 L41.6618,27.3865 Z"/>
    <path fill="#FFFFFF" d="M15.7112,20.6901 C15.7112,20.7621 15.7132,20.8031 15.7442,20.8711 C15.7972,20.9831 15.9212,21.0751 16.0712,21.0751 C16.3832,21.0751 16.6582,20.7881 16.6582,20.5011 C16.6582,20.1851 16.3182,20.0711 16.0602,20.2001 C16.0092,20.2251 15.9752,20.2431 15.9312,20.2791 C15.9162,20.2911 15.9102,20.3001 15.8942,20.3121 C15.8782,20.3231 15.8722,20.3291 15.8592,20.3461 C15.8452,20.3631 15.8402,20.3671 15.8272,20.3831 C15.8062,20.4101 15.7882,20.4361 15.7722,20.4671 C15.7422,20.5261 15.7112,20.6041 15.7112,20.6901 L15.7112,20.6901 Z M15.0802,23.6931 L15.9002,23.6931 C15.9262,23.6931 15.9332,23.6121 15.9452,23.5601 C16.0232,23.2301 16.1022,22.8511 16.1752,22.5171 C16.2202,22.3161 16.2612,22.1231 16.3072,21.9231 L16.4252,21.3821 L15.5872,21.3811 L15.5832,21.4021 L15.3392,22.5071 C15.2712,22.7921 15.2112,23.1021 15.1432,23.3901 C15.1312,23.4401 15.1212,23.4881 15.1102,23.5401 C15.1022,23.5781 15.0802,23.6501 15.0802,23.6931 L15.0802,23.6931 Z M16.2162,23.6931 L16.4952,22.4141 C16.5612,22.1041 16.6482,21.7511 16.7062,21.4521 C16.7202,21.3821 16.7162,21.3861 16.7542,21.3741 C16.9302,21.3181 16.9932,21.3081 17.1752,21.2771 C17.2502,21.2641 17.3252,21.2591 17.4052,21.2481 C17.4832,21.2371 17.5702,21.2381 17.6432,21.2281 C17.6842,21.2231 17.7332,21.2271 17.7692,21.2221 C17.8072,21.2171 17.8552,21.2201 17.8942,21.2201 C18.1782,21.2201 18.5992,21.2211 18.8172,21.3251 C18.9092,21.3691 18.9862,21.4241 19.0432,21.5091 C19.1922,21.7301 19.1152,22.0801 19.0582,22.3281 L18.7792,23.5941 C18.7722,23.6241 18.7682,23.6931 18.7392,23.6931 L17.9382,23.6931 C17.9132,23.6931 17.9212,23.6781 17.9252,23.6621 L18.2022,22.4061 C18.2372,22.2291 18.2772,21.9611 18.0532,21.9001 C17.9562,21.8741 17.8802,21.8821 17.7782,21.8991 C17.6632,21.9171 17.6072,21.9301 17.4992,21.9611 C17.4122,21.9851 17.4102,21.9901 17.4012,22.0331 L17.3402,22.3131 C17.2442,22.7241 17.1582,23.1581 17.0622,23.5681 C17.0502,23.6221 17.0462,23.6931 17.0172,23.6931 L16.2162,23.6931 Z M19.6602,20.7091 C19.6602,20.7941 19.6922,20.8781 19.7442,20.9411 C19.7542,20.9531 19.7562,20.9581 19.7662,20.9701 C19.7902,20.9971 19.8402,21.0281 19.8752,21.0441 C19.9962,21.0981 20.1442,21.0751 20.2582,21.0221 L20.3842,20.9411 C20.4592,20.8741 20.4832,20.8561 20.5432,20.7531 C20.6282,20.6081 20.6462,20.3531 20.4932,20.2361 C20.1602,19.9801 19.6602,20.3231 19.6602,20.7091 L19.6602,20.7091 Z M18.7642,24.8921 L19.6042,24.8921 L19.6512,24.6681 C19.6682,24.5901 19.6832,24.5231 19.7012,24.4461 L20.1942,22.2201 L20.3792,21.3821 L19.5412,21.3811 L19.1582,23.1091 C19.0412,23.6231 18.9332,24.1551 18.8132,24.6641 L18.7642,24.8921 Z M21.6032,23.0941 C21.7212,23.0941 21.8592,23.0351 21.9292,22.9841 C22.0562,22.8921 22.0382,22.8931 22.0602,22.7941 C22.0752,22.7291 22.2342,22.0361 22.2342,21.9961 C22.2342,21.9121 22.0542,21.9021 21.9882,21.9021 C21.6862,21.9021 21.5242,21.9231 21.3402,22.1051 C21.1482,22.2951 21.0062,22.7661 21.2292,22.9881 C21.3352,23.0931 21.4652,23.0941 21.6032,23.0941 L21.6032,23.0941 Z M20.2602,22.9041 C20.2602,22.7161 20.3012,22.5261 20.3432,22.3761 C20.3872,22.2201 20.4462,22.0781 20.5222,21.9491 C20.5332,21.9301 20.5382,21.9181 20.5502,21.9011 C20.6642,21.7301 20.7802,21.5921 20.9562,21.4751 C20.9742,21.4631 20.9842,21.4561 21.0022,21.4451 C21.2212,21.2991 21.6112,21.2021 21.8812,21.1891 C21.9342,21.1861 21.9712,21.1821 22.0262,21.1821 L22.1712,21.1751 C22.2022,21.1761 22.2062,21.1821 22.2402,21.1831 C22.2652,21.1831 22.2912,21.1821 22.3162,21.1821 L22.4612,21.1891 C22.6132,21.1901 22.8602,21.2211 23.0172,21.2381 C23.1012,21.2481 23.2122,21.2561 23.2122,21.3461 C23.2122,21.4321 23.1502,21.6591 23.1322,21.7521 L23.0492,22.1241 C22.9342,22.6141 22.8312,23.1261 22.7172,23.6211 C22.6962,23.7131 22.7382,23.6931 22.5622,23.6931 L21.8812,23.6931 C21.8832,23.6681 21.9002,23.6391 21.9062,23.6111 C21.8912,23.6151 21.7992,23.6611 21.7262,23.6831 C21.4352,23.7691 21.0082,23.8361 20.7092,23.7171 C20.6032,23.6741 20.5422,23.6211 20.4692,23.5461 C20.4412,23.5181 20.4012,23.4631 20.3812,23.4261 C20.3692,23.4021 20.3592,23.3811 20.3482,23.3591 C20.3352,23.3331 20.3302,23.3171 20.3182,23.2881 C20.2762,23.1791 20.2602,23.0411 20.2602,22.9041 L20.2602,22.9041 Z M23.5022,21.3841 C23.3712,21.9491 23.2542,22.5461 23.1232,23.1111 L23.0112,23.6191 C23.0062,23.6421 22.9982,23.6681 22.9982,23.6931 L23.7992,23.6931 C23.8212,23.6931 23.8232,23.6631 23.8282,23.6401 L23.8742,23.4281 C23.9692,22.9741 24.0802,22.4881 24.1822,22.0321 C24.1922,21.9851 24.1972,21.9881 24.2802,21.9601 C24.4382,21.9091 24.8022,21.8261 24.9302,21.9501 C25.0442,22.0611 25.0152,22.2561 24.9832,22.3971 C24.9572,22.5061 24.7012,23.6581 24.7012,23.6931 L25.5212,23.6931 C25.5422,23.6931 25.5422,23.6741 25.5472,23.6561 L25.7242,22.8541 C25.7442,22.7531 25.8992,22.0951 25.8992,21.9901 C25.9522,21.9781 26.0102,21.9471 26.1402,21.9211 C26.3202,21.8851 26.6072,21.8241 26.6922,22.0371 C26.7512,22.1861 26.6772,22.4451 26.6502,22.5761 C26.6242,22.6981 26.5962,22.8241 26.5672,22.9471 L26.4042,23.6931 L27.2242,23.6931 C27.2512,23.6931 27.2532,23.6381 27.2632,23.5941 C27.2722,23.5581 27.2802,23.5181 27.2882,23.4791 C27.3642,23.1101 27.4612,22.7011 27.5432,22.3281 C27.6002,22.0711 27.6762,21.7371 27.5272,21.5101 C27.4722,21.4271 27.3972,21.3711 27.3022,21.3251 C27.0872,21.2221 26.6602,21.2201 26.3792,21.2201 C26.2972,21.2201 26.2362,21.2251 26.1582,21.2261 L25.6372,21.2801 C25.4972,21.3011 25.5782,21.3051 25.4622,21.2801 C24.9392,21.1661 24.0662,21.2171 23.5682,21.3611 C23.5402,21.3701 23.5302,21.3781 23.5022,21.3841 L23.5022,21.3841 Z"/>
    <path fill="#ED402F" d="M11.9137,23.6931 L12.7457,23.6931 C12.7737,23.6931 12.7957,23.5481 12.8047,23.5051 C12.8187,23.4391 12.8337,23.3701 12.8497,23.2981 C12.8797,23.1611 12.9137,23.0241 12.9407,22.8901 C12.9677,22.7521 13.0027,22.6201 13.0307,22.4821 L13.2107,21.6661 C13.2307,21.5761 13.2777,21.3301 13.3127,21.2691 C13.3737,21.1641 13.4557,21.0791 13.5587,21.0171 C13.7267,20.9171 13.7607,20.9551 13.8607,20.9401 C13.8987,20.9341 13.9417,20.9361 13.9827,20.9361 C14.0517,20.8051 13.9617,20.5341 14.1387,20.7111 L14.2177,20.7831 C14.3377,20.9021 14.4137,20.9711 14.5117,21.1011 C14.5697,21.1781 14.6127,21.2351 14.5757,21.3091 C14.5137,21.4321 14.3957,21.5501 14.2967,21.6411 L14.1267,21.7801 C14.0867,21.8101 13.9747,21.8881 13.9257,21.8891 C13.9207,21.8661 13.9107,21.8521 13.9137,21.8211 C13.9217,21.7461 13.9447,21.6521 13.9447,21.5861 C13.7957,21.5521 13.6157,21.7421 13.5237,21.8341 C13.4587,21.8991 13.3587,22.0181 13.3117,22.1011 C13.2637,22.1861 13.2857,22.2151 13.3517,22.3251 C13.4287,22.4541 13.5967,22.6731 13.7007,22.7771 C13.7487,22.8251 13.8097,22.9001 13.8817,22.9171 C13.9287,22.8471 13.8967,22.8421 13.9097,22.7561 C13.9157,22.7181 13.9097,22.6991 13.9117,22.6761 C13.9217,22.5561 13.8817,22.5131 14.0457,22.5141 C14.0847,22.5141 14.0947,22.5081 14.1347,22.5071 C14.1647,22.5071 14.1947,22.5021 14.2257,22.4971 C14.5297,22.4531 14.7357,22.3611 14.9467,22.1521 C14.9677,22.1321 14.9757,22.1201 14.9937,22.0991 C15.0517,22.0341 15.1057,21.9431 15.1457,21.8591 C15.2937,21.5521 15.3397,21.1151 15.2217,20.7761 C15.1797,20.6551 15.1297,20.5751 15.0607,20.4831 C14.9377,20.3171 14.6997,20.1781 14.4867,20.1541 C14.4587,20.1511 14.3827,20.1491 14.2757,20.1481 L12.6897,20.1481 L12.3497,21.6941 C12.3337,21.7681 12.3157,21.8451 12.3007,21.9151 L11.9377,23.5781 C11.9317,23.6051 11.9147,23.6621 11.9137,23.6931"/>
  </g>
</svg>
