<svg xmlns="http://www.w3.org/2000/svg" width="64" height="64" viewBox="0 0 64 64">
  <g fill="none" fill-rule="evenodd">
    <rect width="64" height="64" fill="#22415B" rx="2"/>
    <path fill="#FFFFFF" d="M50.7397325,26.8718611 C48.8006337,24.9298287 46.1193382,23.729993 43.1564187,23.729993 C40.1934992,23.729993 37.5122037,24.9298287 35.5731049,26.8718611 C33.6340061,28.8138935 32.4341704,31.4951889 32.4341704,34.4551748 C32.4341704,37.4180943 33.6340061,40.0964562 35.5731049,42.0384886 C37.5122037,43.980521 40.1934992,45.1803567 43.1564187,45.1803567 C46.1193382,45.1803567 48.8006337,43.980521 50.7397325,42.0384886 C52.6788313,40.0964562 53.878667,37.4180943 53.878667,34.4551748 C53.878667,31.4951889 52.6788313,28.8138935 50.7397325,26.8718611 M43.1564187,36.5292185 C44.3005163,36.5292185 45.2275287,35.5992725 45.2275287,34.4551748 C45.2275287,33.9329969 45.0368458,33.4548228 44.7141516,33.0910584 L44.7141516,27.3148322 C44.7141516,26.4582258 44.0130251,25.7570993 43.1564187,25.7570993 C42.2998123,25.7570993 41.5986858,26.4582258 41.5986858,27.3148322 L41.5986858,33.0910584 C41.2759916,33.4548228 41.0853086,33.9329969 41.0853086,34.4551748 C41.0853086,35.5992725 42.0123211,36.5292185 43.1564187,36.5292185 M47.3866463,17.5577329 L47.3866463,17.5577329 C47.3866463,18.4172729 46.6855198,19.1183994 45.8289134,19.1183994 L40.483924,19.1183994 C39.6243839,19.1183994 38.926191,18.4172729 38.926191,17.5577329 C38.926191,16.7011265 39.6243839,16 40.483924,16 L45.8289134,16 C46.6855198,16 47.3866463,16.7011265 47.3866463,17.5577329 M11.2918329,24.6540718 L11.2918329,24.6540718 C11.2918329,23.7974654 11.9900258,23.0963389 12.8495658,23.0963389 L26.0624267,23.0963389 C26.9219667,23.0963389 27.6230932,23.7974654 27.6230932,24.6540718 C27.6230932,25.5136118 26.9219667,26.2147383 26.0624267,26.2147383 L12.8495658,26.2147383 C11.9900258,26.2147383 11.2918329,25.5136118 11.2918329,24.6540718 M7,30.8908707 L7,30.8908707 C7,30.0313307 7.7011265,29.3302042 8.55773293,29.3302042 L21.7735273,29.3302042 C22.6301338,29.3302042 23.3312603,30.0313307 23.3312603,30.8908707 C23.3312603,31.7474771 22.6301338,32.4486036 21.7735273,32.4486036 L8.55773293,32.4486036 C7.7011265,32.4486036 7,31.7474771 7,30.8908707 M12.8319643,36.6465618 L12.8319643,36.6465618 C12.8319643,35.7870218 13.5330908,35.0858953 14.3896973,35.0858953 L23.480873,35.0858953 C24.3374795,35.0858953 25.038606,35.7870218 25.038606,36.6465618 C25.038606,37.5031683 24.3374795,38.2042948 23.480873,38.2042948 L14.3896973,38.2042948 C13.5330908,38.2042948 12.8319643,37.5031683 12.8319643,36.6465618 M11.1568881,42.5489322 C11.1568881,43.4055386 11.855081,44.1095987 12.714621,44.1095987 L27.7727059,44.1095987 C28.6293124,44.1095987 29.3304389,43.4055386 29.3304389,42.5489322 C29.3304389,41.6923257 28.6293124,40.9911992 27.7727059,40.9911992 L12.714621,40.9911992 C11.855081,40.9911992 11.1568881,41.6923257 11.1568881,42.5489322 M43.1564187,20.6145271 C46.9788782,20.6145271 50.4346398,22.1634593 52.9457874,24.6687397 C55.4540014,27.1710866 57,30.6327153 57,34.4551748 C57,38.2776344 55.4540014,41.7392631 52.9457874,44.24161 C50.4346398,46.7468904 46.9788782,48.2958226 43.1564187,48.2958226 C39.3339592,48.2958226 35.875264,46.7468904 33.36705,44.24161 C30.8647031,41.7392631 29.3128374,38.2776344 29.3128374,34.4551748 C29.3128374,30.6327153 30.8647031,27.1710866 33.36705,24.6687397 C35.875264,22.1634593 39.3339592,20.6145271 43.1564187,20.6145271"/>
  </g>
</svg>
