<svg xmlns="http://www.w3.org/2000/svg" width="64" height="64" viewBox="0 0 64 64">
  <g fill="none" fill-rule="evenodd">
    <rect width="64" height="64" fill="#22415B" rx="2"/>
    <path fill="#FFFFFF" d="M25.544241,23.151121 C24.6662673,22.2731474 23.4519938,21.7314736 22.114496,21.7314736 C20.7769981,21.7314736 19.5627246,22.2731474 18.6873182,23.151121 C17.8093445,24.0265275 17.2651035,25.240801 17.2651035,26.5782988 C17.2651035,27.9183639 17.8093445,29.1300702 18.6873182,30.0080438 C19.5627246,30.8834503 20.7769981,31.4276913 22.114496,31.4276913 C23.4519938,31.4276913 24.6662673,30.8834503 25.544241,30.0080438 C26.4222146,29.1300702 26.9638884,27.9183639 26.9638884,26.5782988 C26.9638884,25.240801 26.4222146,24.0265275 25.544241,23.151121 M46.3126818,23.151121 C47.1906555,24.0265275 47.7374636,25.240801 47.7374636,26.5782988 C47.7374636,27.9183639 47.1906555,29.1300702 46.3126818,30.0080438 C45.4347082,30.8834503 44.2230019,31.4276913 42.885504,31.4276913 C41.545439,31.4276913 40.3337327,30.8834503 39.455759,30.0080438 C38.5777854,29.1300702 38.0361116,27.9183639 38.0361116,26.5782988 C38.0361116,25.240801 38.5777854,24.0265275 39.455759,23.151121 C40.3337327,22.2731474 41.545439,21.7314736 42.885504,21.7314736 C44.2230019,21.7314736 45.4347082,22.2731474 46.3126818,23.151121 M49.5216498,36.9034742 C50.9156255,38.3000171 51.8731816,40.1304125 52.1709738,42.1764505 L33.6000342,42.1764505 C33.8978265,40.1304125 34.8553825,38.3000171 36.2493582,36.9034742 C37.9462605,35.206572 40.2926579,34.1565976 42.885504,34.1565976 C45.475783,34.1565976 47.8247476,35.206572 49.5216498,36.9034742 M47.7066575,32.4237549 C47.8914941,32.2697245 48.0711963,32.1079925 48.243197,31.938559 C49.6140681,30.5651207 50.4612357,28.670546 50.4612357,26.5782988 C50.4612357,24.4860517 49.6140681,22.591477 48.243197,21.2206059 C46.8723259,19.8497347 44.975184,19 42.885504,19 C40.7906897,19 38.8986822,19.8497347 37.5278111,21.2206059 C36.1569399,22.591477 35.3097724,24.4860517 35.3097724,26.5782988 C35.3097724,28.670546 36.1569399,30.5651207 37.5278111,31.938559 C37.6972446,32.1079925 37.8795139,32.2697245 38.0643505,32.4237549 C36.6575389,33.0347424 35.3893548,33.9075817 34.3188431,34.9755263 C32.1264761,37.1678932 30.771008,40.1945918 30.771008,43.5396201 L30.771008,44.9053568 L32.1341776,44.9053568 L53.631696,44.9053568 L55,44.9053568 L55,43.5396201 C55,40.1945918 53.6419647,37.1678932 51.4495978,34.9755263 C50.3816533,33.9075817 49.1134691,33.0347424 47.7066575,32.4237549 M22.114496,19 C24.2067431,19 26.1013178,19.8497347 27.4721889,21.2206059 C28.8430601,22.591477 29.6927948,24.4860517 29.6927948,26.5782988 C29.6927948,28.670546 28.8430601,30.5651207 27.4721889,31.938559 C27.3027554,32.1079925 27.1204861,32.2697245 26.9356495,32.4237549 C28.3424611,33.0347424 29.6106452,33.9075817 30.6785898,34.9755263 C31.0379942,35.3323635 31.3717269,35.7097381 31.682355,36.1102174 C31.0688003,36.8957727 30.550231,37.7609105 30.1471847,38.6850933 C29.754407,38.0355982 29.2846141,37.4374465 28.7506418,36.9034742 C27.0537395,35.206572 24.7073421,34.1565976 22.114496,34.1565976 C19.5216498,34.1565976 17.1778196,35.206572 15.4783502,36.9034742 C14.0843745,38.3000171 13.1268184,40.1304125 12.8290262,42.1764505 L29.210166,42.1764505 C29.1588225,42.6231388 29.1331508,43.0775287 29.1331508,43.5396201 L29.1331508,44.9053568 L11.3657368,44.9053568 L10,44.9053568 L10,43.5396201 C10,40.1945918 11.3580353,37.1678932 13.5504022,34.9755263 C14.6183467,33.9075817 15.8865309,33.0347424 17.2933425,32.4237549 C17.1085059,32.2697245 16.9313709,32.1079925 16.756803,31.938559 C15.3859319,30.5651207 14.5387643,28.670546 14.5387643,26.5782988 C14.5387643,24.4860517 15.3859319,22.591477 16.756803,21.2206059 C18.1276741,19.8497347 20.024816,19 22.114496,19"/>
  </g>
</svg>
