<svg xmlns="http://www.w3.org/2000/svg" width="64" height="64" viewBox="0 0 64 64">
  <g fill="none" fill-rule="evenodd">
    <rect width="64" height="64" fill="#22415B" rx="2"/>
    <path fill="#FFFFFF" d="M32.4641356,52 C10.8527035,52 14.181983,21.1577987 14.1880638,21.069626 L14.3400857,19.5646093 L15.8481429,19.6162967 C24.0603654,19.9112192 27.5933542,17.527516 32.4641356,12 C37.3318765,17.527516 40.8648653,19.9112192 49.0770879,19.6162967 L50.585145,19.5646093 L50.7371669,21.069626 C50.7462882,21.1577987 54.0725272,52 32.4641356,52 M24.8600006,32.1185771 L24.8600006,32.1185771 C25.3951176,31.4101551 26.4106239,31.2672545 27.1220863,31.7993311 L31.9837464,35.4387352 L39.3659294,28.7619337 C40.0257045,28.1660079 41.0472916,28.2055336 41.6462578,28.8592277 C42.2513049,29.5159623 42.2087388,30.5466707 41.5520042,31.1425965 L33.2120833,38.6859228 C32.9658078,38.9078747 32.6678449,39.041654 32.3638011,39.0872606 C31.9290185,39.1754333 31.4607911,39.0842201 31.0776959,38.798419 L25.1792466,34.3837033 C24.4677841,33.8485862 24.3248835,32.8300395 24.8600006,32.1185771 M32.4641356,16.9072666 C30.3236674,19.0750988 25.5258565,22.7145029 17.2893104,22.8513226 C16.9761453,28.52782 16.9548623,48.7680146 32.4641356,48.7680146 C47.9734089,48.7680146 47.9521259,28.52782 47.6389608,22.8513226 C39.4024147,22.7145029 34.6015634,19.0750988 32.4641356,16.9072666"/>
  </g>
</svg>
