<svg xmlns="http://www.w3.org/2000/svg" width="80" height="80" viewBox="0 0 80 80">
  <g fill="none" fill-rule="evenodd">
    <circle cx="40" cy="40" r="40" fill="#FFFFFF"/>
    <path fill="#22415B" d="M40,80 C17.9490909,80 0,62.0509091 0,40 C0,17.9490909 17.9490909,0 40,0 C62.0509091,0 80,17.9490909 80,40 C80,62.0509091 62.0509091,80 40,80 L40,80 Z M40,2.90909091 C19.5490909,2.90909091 2.90909091,19.5490909 2.90909091,40 C2.90909091,60.4509091 19.5490909,77.0909091 40,77.0909091 C60.4509091,77.0909091 77.0909091,60.4509091 77.0909091,40 C77.0909091,19.5490909 60.4509091,2.90909091 40,2.90909091 L40,2.90909091 Z"/>
    <g transform="translate(16.582 21.527)">
      <path fill="#FFFFFF" d="M13.44,32.5236364 C12.5090909,33.4545455 11.2581818,34.0072727 9.86181818,34.0072727 C8.46545455,34.0072727 7.18545455,33.4254545 6.28363636,32.5236364 C5.35272727,31.6218182 4.8,30.3418182 4.8,28.9454545 C4.8,27.5490909 5.38181818,26.2690909 6.28363636,25.3672727 C7.21454545,24.4363636 8.46545455,23.8836364 9.86181818,23.8836364 C11.2581818,23.8836364 12.5381818,24.4363636 13.44,25.3672727 C14.3709091,26.2981818 14.9236364,27.5490909 14.9236364,28.9454545 C14.9236364,30.3418182 14.3709091,31.6218182 13.44,32.5236364 L13.44,32.5236364 Z"/>
      <path fill="#FFFFFF" d="M29.5854545 28.2472727L17.5418182 28.2472727C17.3672727 26.3854545 16.5527273 24.7272727 15.3018182 23.5054545 13.9054545 22.1090909 11.9563636 21.2363636 9.83272727 21.2363636 7.70909091 21.2363636 5.76 22.1090909 4.36363636 23.5054545 3.75272727 24.1163636 3.22909091 24.8436364 2.85090909 25.6290909 2.76363636 24.9890909 2.73454545 24.1454545 2.76363636 23.0981818 2.82181818 21.0036364 3.37454545 18.5309091 4.85818182 16.8145455 5.90545455 15.5927273 7.47636364 14.7490909 9.77454545 14.7490909L9.86181818 12.1018182C9.86181818 12.1018182 9.30909091 12.0727273 9.33818182 11.6363636 9.39636364 10.9672727 10.3854545 10.4727273 10.8218182 10.2981818L18.3272727 10.2981818C18.56 10.5018182 18.88 10.9090909 18.8218182 11.5781818 18.7927273 12.2181818 18.0654545 12.3927273 17.8327273 12.4509091L15.7090909 12.4509091 14.3709091 12.4509091 14.3709091 13.7890909 14.3709091 17.92C13.9345455 18.9381818 13.2363636 21.7018182 18.5309091 21.7018182L28.5090909 21.7018182 28.9454545 21.7018182 29.3236364 21.4109091C29.3236364 21.4109091 34.1818182 17.7454545 34.1818182 13.44 34.1818182 9.62909091 33.0181818 5.84727273 33.0181818 5.84727273 31.7090909 4.8 29.76 5.17818182 28.2472727 5.17818182 27.4036364 5.17818182 26.9381818 5.00363636 26.7345455 4.77090909 26.56 4.56727273 26.5018182 4.24727273 26.5018182 3.92727273 26.5018182 3.78181818 28.48 3.22909091 29.2072727 2.99636364 29.5854545 3.05454545 30.3418182 3.2 31.2727273 3.49090909 32.1745455 3.75272727 32.4654545 3.95636364 32.4654545 3.95636364 34.4145455 4.82909091 36.5381818 6.48727273 36.8872727 9.45454545 37.6436364 15.5927273 37.5563636 20.4218182 37.5272727 21.2363636L37.2654545 21.2363636C35.1418182 21.2363636 33.1927273 22.1090909 31.7963636 23.5054545 30.5745455 24.7272727 29.76 26.3854545 29.5854545 28.2472727L29.5854545 28.2472727zM40.8727273 25.3672727C41.8036364 26.2981818 42.3563636 27.5490909 42.3563636 28.9454545 42.3563636 30.3418182 41.7745455 31.6218182 40.8727273 32.5236364 39.9418182 33.4545455 38.6909091 34.0072727 37.2945455 34.0072727 35.8981818 34.0072727 34.6181818 33.4254545 33.7163636 32.5236364 32.7854545 31.6218182 32.2327273 30.3418182 32.2327273 28.9454545 32.2327273 27.5490909 32.8145455 26.2690909 33.7163636 25.3672727 34.6472727 24.4363636 35.8981818 23.8836364 37.2945455 23.8836364 38.6909091 23.8836364 39.9709091 24.4363636 40.8727273 25.3672727L40.8727273 25.3672727zM41.3963636 6.37090909C41.6872727 6.25454545 42.5890909 5.90545455 43.2581818 6.28363636 43.6072727 6.48727273 43.8109091 6.74909091 43.8981818 7.01090909 44.0145455 7.38909091 44.0436364 7.85454545 44.0436364 8.29090909 44.0436364 8.46545455 43.8690909 8.69818182 43.6072727 8.96 43.3454545 9.19272727 43.0254545 9.36727273 42.7927273 9.36727273 42.3563636 9.36727273 40.9309091 8.40727273 39.8254545 7.59272727 40.4654545 7.09818182 41.1345455 6.57454545 41.3963636 6.37090909L41.3963636 6.37090909z"/>
      <path fill="#22415B" d="M45.4109091,10.88 C46.1672727,10.1818182 46.6909091,9.19272727 46.6909091,8.29090909 C46.6909091,7.65090909 46.6618182,6.92363636 46.4,6.16727273 C46.1090909,5.32363636 45.5563636,4.50909091 44.5090909,3.92727273 C42.5018182,2.82181818 40.1454545,4.01454545 40.1163636,4.01454545 L40,4.07272727 L39.8836364,4.16 C39.8836364,4.16 39.04,4.8 38.2545455,5.41090909 C35.4909091,0.930909091 29.3236364,0.290909091 29.2945455,0.290909091 L29.0327273,0.261818182 L28.7709091,0.32 C28.7709091,0.32 23.8545455,1.68727273 23.8545455,3.86909091 C23.8545455,4.71272727 24.0290909,5.67272727 24.7563636,6.48727273 C25.4254545,7.24363636 26.5018182,7.79636364 28.2472727,7.79636364 C29.2654545,7.79636364 30.1381818,7.97090909 30.7781818,7.76727273 C31.1272727,9.30909091 31.5054545,11.2872727 31.5054545,13.4109091 C31.5054545,15.8545455 28.9745455,18.2109091 28.0145455,18.9963636 L18.5018182,18.9963636 C16.7272727,18.9963636 16.8436364,18.8509091 16.8436364,18.8509091 L17.0181818,18.5309091 L17.0181818,18.1818182 L17.0181818,15.0690909 L17.92,15.0690909 L17.9781818,15.0690909 L18.0654545,15.0690909 C18.0654545,15.0690909 21.2945455,14.72 21.4690909,11.7236364 C21.6436364,8.98909091 19.4036364,7.79636364 19.3745455,7.76727273 L19.0545455,7.59272727 L18.7054545,7.59272727 L10.6472727,7.59272727 L10.4436364,7.59272727 L10.2109091,7.68 C10.2109091,7.68 6.92363636,8.78545455 6.74909091,11.4327273 C6.72,11.84 6.74909091,12.1890909 6.83636364,12.48 C5.20727273,12.9745455 3.89818182,13.9054545 2.90909091,15.04 C0.96,17.28 0.232727273,20.3927273 0.174545455,22.9818182 C0.116363636,25.2218182 0.290909091,26.7345455 0.64,27.7236364 C0.989090909,28.7127273 1.51272727,29.3236364 2.15272727,29.6145455 C2.29818182,31.4763636 3.14181818,33.1636364 4.39272727,34.4145455 C5.78909091,35.8109091 7.73818182,36.6836364 9.86181818,36.6836364 C11.9854545,36.6836364 13.9345455,35.8109091 15.3309091,34.4145455 C16.2909091,33.4545455 16.9890909,32.2618182 17.3381818,30.8945455 L29.8181818,30.8945455 C30.1672727,32.2618182 30.8654545,33.4545455 31.8254545,34.4145455 C33.2218182,35.8109091 35.1709091,36.6836364 37.2945455,36.6836364 C39.4181818,36.6836364 41.3672727,35.8109091 42.7636364,34.4145455 C44.16,33.0181818 45.0327273,31.0690909 45.0327273,28.9454545 C45.0327273,26.8218182 44.16,24.8727273 42.7636364,23.4763636 C42.0363636,22.7490909 41.1345455,22.1381818 40.1454545,21.76 C40.1745455,20.5963636 40.2618182,16.0581818 39.7381818,10.7054545 C40.8727273,11.4036364 42.0363636,12.0145455 42.7636364,12.0145455 C43.7236364,12.0145455 44.6836364,11.5490909 45.4109091,10.88 L45.4109091,10.88 Z M13.44,32.5236364 C12.5090909,33.4545455 11.2581818,34.0072727 9.86181818,34.0072727 C8.46545455,34.0072727 7.18545455,33.4254545 6.28363636,32.5236364 C5.35272727,31.6218182 4.8,30.3418182 4.8,28.9454545 C4.8,27.5490909 5.38181818,26.2690909 6.28363636,25.3672727 C7.21454545,24.4363636 8.46545455,23.8836364 9.86181818,23.8836364 C11.2581818,23.8836364 12.5381818,24.4363636 13.44,25.3672727 C14.3709091,26.2981818 14.9236364,27.5490909 14.9236364,28.9454545 C14.9236364,30.3418182 14.3709091,31.6218182 13.44,32.5236364 L13.44,32.5236364 Z M29.5854545,28.2472727 L17.5418182,28.2472727 C17.3672727,26.3854545 16.5527273,24.7272727 15.3018182,23.5054545 C13.9054545,22.1090909 11.9563636,21.2363636 9.83272727,21.2363636 C7.70909091,21.2363636 5.76,22.1090909 4.36363636,23.5054545 C3.75272727,24.1163636 3.22909091,24.8436364 2.85090909,25.6290909 C2.76363636,24.9890909 2.73454545,24.1454545 2.76363636,23.0981818 C2.82181818,21.0036364 3.37454545,18.5309091 4.85818182,16.8145455 C5.90545455,15.5927273 7.47636364,14.7490909 9.77454545,14.7490909 L9.86181818,12.1018182 C9.86181818,12.1018182 9.30909091,12.0727273 9.33818182,11.6363636 C9.39636364,10.9672727 10.3854545,10.4727273 10.8218182,10.2981818 L18.3272727,10.2981818 C18.56,10.5018182 18.88,10.9090909 18.8218182,11.5781818 C18.7927273,12.2181818 18.0654545,12.3927273 17.8327273,12.4509091 L15.7090909,12.4509091 L14.3709091,12.4509091 L14.3709091,13.7890909 L14.3709091,17.92 C13.9345455,18.9381818 13.2363636,21.7018182 18.5309091,21.7018182 L28.5090909,21.7018182 L28.9454545,21.7018182 L29.3236364,21.4109091 C29.3236364,21.4109091 34.1818182,17.7454545 34.1818182,13.44 C34.1818182,9.62909091 33.0181818,5.84727273 33.0181818,5.84727273 C31.7090909,4.8 29.76,5.17818182 28.2472727,5.17818182 C27.4036364,5.17818182 26.9381818,5.00363636 26.7345455,4.77090909 C26.56,4.56727273 26.5018182,4.24727273 26.5018182,3.92727273 C26.5018182,3.78181818 28.48,3.22909091 29.2072727,2.99636364 C29.5854545,3.05454545 30.3418182,3.2 31.2727273,3.49090909 C32.1745455,3.75272727 32.4654545,3.95636364 32.4654545,3.95636364 C34.4145455,4.82909091 36.5381818,6.48727273 36.8872727,9.45454545 C37.6436364,15.5927273 37.5563636,20.4218182 37.5272727,21.2363636 L37.2654545,21.2363636 C35.1418182,21.2363636 33.1927273,22.1090909 31.7963636,23.5054545 C30.5745455,24.7272727 29.76,26.3854545 29.5854545,28.2472727 L29.5854545,28.2472727 Z M40.8727273,25.3672727 C41.8036364,26.2981818 42.3563636,27.5490909 42.3563636,28.9454545 C42.3563636,30.3418182 41.7745455,31.6218182 40.8727273,32.5236364 C39.9418182,33.4545455 38.6909091,34.0072727 37.2945455,34.0072727 C35.8981818,34.0072727 34.6181818,33.4254545 33.7163636,32.5236364 C32.7854545,31.6218182 32.2327273,30.3418182 32.2327273,28.9454545 C32.2327273,27.5490909 32.8145455,26.2690909 33.7163636,25.3672727 C34.6472727,24.4363636 35.8981818,23.8836364 37.2945455,23.8836364 C38.6909091,23.8836364 39.9709091,24.4363636 40.8727273,25.3672727 L40.8727273,25.3672727 Z M41.3963636,6.37090909 C41.6872727,6.25454545 42.5890909,5.90545455 43.2581818,6.28363636 C43.6072727,6.48727273 43.8109091,6.74909091 43.8981818,7.01090909 C44.0145455,7.38909091 44.0436364,7.85454545 44.0436364,8.29090909 C44.0436364,8.46545455 43.8690909,8.69818182 43.6072727,8.96 C43.3454545,9.19272727 43.0254545,9.36727273 42.7927273,9.36727273 C42.3563636,9.36727273 40.9309091,8.40727273 39.8254545,7.59272727 C40.4654545,7.09818182 41.1345455,6.57454545 41.3963636,6.37090909 L41.3963636,6.37090909 Z"/>
      <path fill="#E84131" d="M34.9672727 28.9454545C34.9672727 30.2545455 36.0145455 31.3018182 37.3236364 31.3018182 38.6036364 31.3018182 39.68 30.2545455 39.68 28.9454545 39.68 27.6654545 38.6327273 26.5890909 37.3236364 26.5890909 36.0145455 26.6181818 34.9672727 27.6654545 34.9672727 28.9454545L34.9672727 28.9454545zM9.86181818 26.6181818C8.55272727 26.6181818 7.50545455 27.6654545 7.50545455 28.9745455 7.50545455 30.2836364 8.55272727 31.3309091 9.86181818 31.3309091 11.1709091 31.3309091 12.2181818 30.2836364 12.2181818 28.9745455 12.1890909 27.6654545 11.1418182 26.6181818 9.86181818 26.6181818L9.86181818 26.6181818z"/>
    </g>
  </g>
</svg>
