<svg xmlns="http://www.w3.org/2000/svg" width="64" height="64" viewBox="0 0 64 64">
  <g fill="none" fill-rule="evenodd">
    <rect width="64" height="64" fill="#22415B" rx="2"/>
    <path fill="#FFFFFF" d="M37.1543365,47.8851423 L26.0544092,43.1935358 C24.8689258,42.4721803 21.6144383,39.9977632 21.3879662,34.5232903 C21.3851703,34.4310239 21.3795784,34.2660627 21.3795784,34.0284069 C21.3795784,30.9752279 22.5846335,28.6210367 24.3824302,27.0105687 C26.2193704,25.3665492 28.6826036,24.4662529 31.1486328,24.3655986 C31.2325113,24.3628027 31.3862887,24.3600067 31.6155567,24.3600067 C31.8448247,24.3600067 32.001398,24.3628027 32.0796846,24.3655986 C34.5513057,24.4662529 37.011743,25.3665492 38.8486831,27.0105687 C40.6492758,28.6210367 41.848739,30.9752279 41.848739,34.0284069 C41.848739,34.2660627 41.848739,34.4310239 41.8431471,34.5232903 C41.5691439,41.2167981 36.7656993,43.4228038 36.7489236,43.4283957 C35.454398,44.4125706 36.435777,46.8925795 38.8822345,45.6148297 C40.6325001,44.4796734 44.5328524,41.2307778 44.8012638,34.6379243 C44.8152435,34.3583291 44.8208354,34.1542247 44.8208354,34.0284069 C44.8208354,30.0525639 43.2215512,26.9518537 40.8226248,24.804563 C38.4600459,22.6908237 35.3257843,21.5332998 32.1971146,21.404686 C31.9314992,21.3935022 31.7357826,21.3879103 31.6155567,21.3879103 C31.4953308,21.3879103 31.3024101,21.3935022 31.0339988,21.404686 C27.908125,21.5332998 24.7710675,22.6908237 22.4084885,24.804563 C20.0123581,26.9518537 18.4130739,30.0525639 18.4130739,34.0284069 C18.4130739,34.1542247 18.4186658,34.3583291 18.4298496,34.6379243 C18.6982609,41.2307778 22.5986132,44.4796734 24.3516748,45.6148297 L24.4663088,45.6483811 C24.5921266,45.7658111 24.7347201,45.8636694 24.9024772,45.9307722 L36.0024045,50.6251747 C36.7517195,50.9439132 37.6324442,50.5860314 37.9483867,49.8311245 C38.2643293,49.0790136 37.9064475,48.2038808 37.1543365,47.8851423 Z M36.7992507,53.7174971 L36.7992507,53.7174971 C36.4833082,54.469608 35.6081754,54.8191019 34.8532685,54.5115473 L26.8512554,51.2374881 C26.0963485,50.9299335 25.7412627,50.0464128 26.0572052,49.2915059 C26.3731477,48.539395 27.2454845,48.189901 28.0003914,48.4974557 L36.0079964,51.7715148 C36.7629033,52.0790695 37.1151932,52.9625902 36.7992507,53.7174971 L36.7992507,53.7174971 Z M36.4022256,35.2586255 C36.4022256,34.8699883 36.321143,34.4953308 36.0639155,34.193368 C35.8430353,33.9389364 35.5774199,33.8159146 35.2391098,33.8159146 C34.8896158,33.8159146 34.6044288,33.9221607 34.3695689,34.1849801 C34.1095454,34.4757591 34.0256668,34.8448247 34.0256668,35.22787 C34.0256668,35.6165073 34.1151373,35.979981 34.3751608,36.2791478 C34.6044288,36.5447632 34.8896158,36.6482134 35.2335179,36.6482134 C35.569032,36.6482134 35.8318515,36.5279875 36.0527316,36.2735559 C36.3071632,35.9827769 36.4022256,35.6416709 36.4022256,35.2586255 L36.4022256,35.2586255 Z M28.2743947,30.7487558 L28.2743947,32.7953923 L28.310742,32.7953923 C29.0936085,32.7953923 29.8289437,32.638819 29.8289437,31.7273388 C29.8289437,30.8717777 29.0824246,30.7487558 28.3638651,30.7487558 L28.2743947,30.7487558 Z M32.001398,36.9501761 L32.001398,33.0526198 C32.001398,32.9072303 32.0293575,32.7646368 32.0852765,32.6444109 C32.1383996,32.521389 32.2082984,32.4123469 32.3117486,32.3061008 C32.4068109,32.2166303 32.515853,32.1467315 32.633283,32.0936085 C32.7646927,32.0348935 32.9044903,32.006934 33.0470838,32.006934 C33.1840854,32.006934 33.3154952,32.0320975 33.4524968,32.0880166 C33.5671308,32.1355477 33.670581,32.2026506 33.7740312,32.2977129 C33.7991948,32.3200805 33.8215624,32.3452441 33.841134,32.3732036 C34.305262,32.0376894 34.8448806,31.8503607 35.4460102,31.8503607 C36.3267349,31.8503607 37.070458,32.1830789 37.6548118,32.8401275 C38.2559414,33.5223397 38.5131689,34.3471453 38.5131689,35.2530336 C38.5131689,36.1421462 38.2587373,36.958564 37.6631997,37.6267964 C37.0788458,38.2726612 36.3407146,38.6025835 35.4683778,38.6025835 C34.9623106,38.6025835 34.5065705,38.4711737 34.0955656,38.227926 L34.0955656,40.8561203 L34.0116871,40.8561203 L34.0032992,40.872896 C33.9473802,40.9959179 33.8746855,41.107756 33.788011,41.1916345 C33.6957446,41.2894928 33.5839065,41.3621876 33.4524968,41.4209025 C33.323883,41.4768216 33.1868814,41.5019851 33.0470838,41.5019851 C32.9044903,41.5019851 32.7646927,41.4768216 32.6304871,41.4181066 C32.5074652,41.3621876 32.401219,41.2894928 32.3089526,41.2000224 C32.2138903,41.10496 32.1439915,40.9959179 32.0824806,40.8645082 C32.0293575,40.7358944 32.001398,40.6016888 32.001398,40.4590952 L32.001398,37.7861656 C31.9454789,37.9147794 31.8643964,38.0322094 31.7637421,38.1272717 C31.6658838,38.2195381 31.5568417,38.2978247 31.4394117,38.3453559 C31.3052061,38.4068669 31.1598166,38.4348264 31.0144271,38.4348264 C30.8270984,38.4348264 30.6509534,38.3900911 30.4887882,38.2978247 C30.329419,38.2083543 30.2036012,38.0853324 30.1113348,37.9287592 L28.2743947,35.2921769 L28.2743947,37.4282838 L28.2715987,37.4450596 C28.2604149,37.5820612 28.2268635,37.7106749 28.1709445,37.825309 C28.1150254,37.9455349 28.0367388,38.051781 27.9360845,38.1468434 C27.8438182,38.2363138 27.7319801,38.3034167 27.6117542,38.3537438 C27.4803445,38.4124588 27.3433428,38.4348264 27.2007493,38.4348264 C27.0581558,38.4348264 26.9183582,38.4096628 26.7813566,38.3509478 C26.6611307,38.2978247 26.5520886,38.22513 26.4654141,38.1412515 C26.3591679,38.0489851 26.2808813,37.9343511 26.2193704,37.7973494 C26.1662473,37.6715316 26.1354918,37.5401219 26.1298999,37.3863446 L26.1298999,29.4206789 C26.1298999,29.2249623 26.2025946,29.0488173 26.3451882,28.9034278 C26.4738019,28.7720181 26.6471509,28.6965274 26.8512554,28.6881396 L28.1066376,28.6881396 C29.0432813,28.6881396 30.1868255,28.8167533 30.9249567,29.4542303 C31.6127607,30.0413801 31.9342951,30.8130627 31.9342951,31.7105631 C31.9342951,32.409551 31.7329866,33.0470279 31.2996142,33.5950344 C31.0032433,33.9724878 30.6341777,34.2548789 30.1980093,34.4338198 L31.8392328,36.6845608 C31.9063356,36.7656433 31.9566628,36.8523178 32.001398,36.9501761 L32.001398,36.9501761 Z M49.4061958,17.0485936 L49.4061958,17.0485936 C49.9849578,17.6273556 49.9849578,18.5723872 49.4061958,19.1511491 L45.8050103,22.7551306 C45.2262484,23.3310966 44.2812168,23.3310966 43.7024548,22.7551306 C43.1264888,22.1763686 43.1264888,21.231337 43.7024548,20.6525751 L47.3064363,17.0485936 C47.8851982,16.4726276 48.8302298,16.4726276 49.4061958,17.0485936 L49.4061958,17.0485936 Z M57,34.6155567 L57,34.6155567 C57,35.4319745 56.3289716,36.1002069 55.5153498,36.1002069 L50.4183303,36.1002069 C49.6019124,36.1002069 48.93368,35.4319745 48.93368,34.6155567 C48.93368,33.7991388 49.6019124,33.1281105 50.4183303,33.1281105 L55.5153498,33.1281105 C56.3289716,33.1281105 57,33.7991388 57,34.6155567 L57,34.6155567 Z M14.0513896,17.5938042 L14.0513896,17.5938042 C14.6273556,17.0150422 15.5723872,17.0150422 16.1511491,17.5938042 L19.7551306,21.1977856 C20.3310966,21.7737516 20.3310966,22.7187832 19.7551306,23.2975452 C19.1763686,23.8763071 18.2285411,23.8763071 17.6497791,23.2975452 L14.0513896,19.6935637 C13.4726276,19.1175977 13.4726276,18.1725661 14.0513896,17.5938042 L14.0513896,17.5938042 Z M7,35.3844433 L7,35.3844433 C7,34.5680255 7.6682324,33.8969971 8.48744618,33.8969971 L13.5816697,33.8969971 C14.3980876,33.8969971 15.06632,34.5680255 15.06632,35.3844433 C15.06632,36.2008612 14.3980876,36.8690936 13.5816697,36.8690936 L8.48744618,36.8690936 C7.6682324,36.8690936 7,36.2008612 7,35.3844433 L7,35.3844433 Z M31.6155567,10 L31.6155567,10 C32.4319745,10 33.1030029,10.6682324 33.1030029,11.4846502 L33.1030029,16.5788738 C33.1030029,17.3980876 32.4319745,18.06632 31.6155567,18.06632 C30.7991388,18.06632 30.1309064,17.3980876 30.1309064,16.5788738 L30.1309064,11.4846502 C30.1309064,10.6682324 30.7991388,10 31.6155567,10 L31.6155567,10 Z"/>
  </g>
</svg>
