<svg xmlns="http://www.w3.org/2000/svg" width="64" height="64" viewBox="0 0 64 64">
  <g fill="none" fill-rule="evenodd">
    <rect width="64" height="64" fill="#22415B" rx="2"/>
    <path fill="#FFFFFF" d="M42.8343677,22.1656323 C40.1896819,19.5209465 36.5376261,17.886346 32.5,17.886346 C28.4650892,17.886346 24.8076028,19.5209465 22.1683476,22.1656323 C19.5209465,24.8103181 17.886346,28.4650892 17.886346,32.5 C17.886346,36.5349108 19.5209465,40.1869666 22.1683476,42.8343677 C24.8076028,45.4763382 28.4650892,47.113654 32.5,47.113654 C36.5376261,47.113654 40.1896819,45.4763382 42.8343677,42.8343677 C45.4790535,40.1869666 47.113654,36.5349108 47.113654,32.5 C47.113654,28.4650892 45.4790535,24.8103181 42.8343677,22.1656323 M26.21955,28.5574088 C25.7416602,29.1900698 25.8692785,30.102405 26.5046548,30.5775795 L31.7723041,34.5201707 C32.1144298,34.7754073 32.5298681,34.8568658 32.9208689,34.7781226 C33.1923972,34.7373933 33.458495,34.6179209 33.6784329,34.4197052 L41.1237393,27.6830877 C41.7129558,27.1536074 41.7509697,26.2304112 41.2106284,25.64391 C40.6757176,25.0601241 39.7606672,25.0248254 39.1714507,25.5597362 L32.5814585,31.5197828 L28.2397207,28.2695888 C27.6043445,27.7944143 26.6947246,27.9220326 26.21955,28.5574088 M32.5,20.0558573 C31.9623739,20.0558573 31.5279286,20.4903026 31.5279286,21.0279286 C31.5279286,21.5655547 31.9623739,21.9972847 32.5,21.9972847 C33.0376261,21.9972847 33.4720714,21.5655547 33.4720714,21.0279286 C33.4720714,20.4903026 33.0376261,20.0558573 32.5,20.0558573 M32.5,43.1004655 C31.9623739,43.1004655 31.5279286,43.5349108 31.5279286,44.0725369 C31.5279286,44.6074476 31.9623739,45.0418929 32.5,45.0418929 C33.0376261,45.0418929 33.4720714,44.6074476 33.4720714,44.0725369 C33.4720714,43.5349108 33.0376261,43.1004655 32.5,43.1004655 M20.0069822,32.5488751 C20.0069822,33.0865012 20.4414275,33.5209465 20.9790535,33.5209465 C21.5139643,33.5209465 21.9511249,33.0865012 21.9511249,32.5488751 C21.9511249,32.0139643 21.5139643,31.579519 20.9790535,31.579519 C20.4414275,31.579519 20.0069822,32.0139643 20.0069822,32.5488751 M43.0515904,32.5488751 C43.0515904,33.0865012 43.4860357,33.5209465 44.0209465,33.5209465 C44.5585725,33.5209465 44.9930178,33.0865012 44.9930178,32.5488751 C44.9930178,32.0139643 44.5585725,31.579519 44.0209465,31.579519 C43.4860357,31.579519 43.0515904,32.0139643 43.0515904,32.5488751 M32.5,15 C37.333204,15 41.7075252,16.9577192 44.8735454,20.1237393 C48.0422808,23.2924748 50,27.666796 50,32.5 C50,37.333204 48.0422808,41.7075252 44.8735454,44.8735454 C41.7075252,48.0422808 37.333204,50 32.5,50 C27.666796,50 23.2924748,48.0422808 20.1264546,44.8735454 C16.9604344,41.7075252 15,37.333204 15,32.5 C15,27.666796 16.9604344,23.2924748 20.1264546,20.1237393 C23.2924748,16.9577192 27.666796,15 32.5,15"/>
  </g>
</svg>
