<svg xmlns="http://www.w3.org/2000/svg" width="80" height="80" viewBox="0 0 80 80">
  <g fill="none" fill-rule="evenodd">
    <circle cx="40" cy="40" r="40" fill="#FFFFFF"/>
    <path fill="#22415B" d="M40,80 C17.9490909,80 0,62.0509091 0,40 C0,17.9490909 17.9490909,0 40,0 C62.0509091,0 80,17.9490909 80,40 C80,62.0509091 62.0509091,80 40,80 L40,80 Z M40,2.90909091 C19.5490909,2.90909091 2.90909091,19.5490909 2.90909091,40 C2.90909091,60.4509091 19.5490909,77.0909091 40,77.0909091 C60.4509091,77.0909091 77.0909091,60.4509091 77.0909091,40 C77.0909091,19.5490909 60.4509091,2.90909091 40,2.90909091 L40,2.90909091 Z"/>
    <g transform="translate(18.036 24.727)">
      <path fill="#22415B" d="M42.7054545,1.28 L42.7054545,1.28 C42.0363636,0.610909091 41.1345455,0.203636364 40.1163636,0.203636364 L3.81090909,0.203636364 C2.79272727,0.203636364 1.89090909,0.610909091 1.22181818,1.28 L1.22181818,1.28 C0.552727273,1.94909091 0.145454545,2.85090909 0.145454545,3.86909091 L0.145454545,26.7054545 C0.145454545,27.7236364 0.552727273,28.6254545 1.22181818,29.2945455 C1.89090909,29.9636364 2.79272727,30.3709091 3.81090909,30.3709091 L40.1163636,30.3709091 C41.1345455,30.3709091 42.0363636,29.9636364 42.7054545,29.2945455 C43.3745455,28.6254545 43.7818182,27.7236364 43.7818182,26.7054545 L43.7818182,3.86909091 C43.7818182,2.85090909 43.3745455,1.94909091 42.7054545,1.28 L42.7054545,1.28 Z"/>
      <path fill="#FFFFFF" d="M40.9890909,26.6763636 C40.9890909,26.9090909 40.9018182,27.1418182 40.7272727,27.2872727 C40.5527273,27.4618182 40.3490909,27.5490909 40.1163636,27.5490909 L3.81090909,27.5490909 C3.57818182,27.5490909 3.34545455,27.4618182 3.2,27.2872727 C3.05454545,27.1418182 2.93818182,26.9090909 2.93818182,26.6763636 L2.93818182,3.86909091 C2.93818182,3.63636364 3.02545455,3.40363636 3.2,3.25818182 L3.2,3.25818182 C3.37454545,3.11272727 3.57818182,2.99636364 3.81090909,2.99636364 L40.1163636,2.99636364 C40.3490909,2.99636364 40.5818182,3.08363636 40.7272727,3.25818182 L40.7272727,3.25818182 C40.8727273,3.40363636 40.9890909,3.63636364 40.9890909,3.86909091 L40.9890909,26.6763636 L40.9890909,26.6763636 Z"/>
      <path fill="#E84131" d="M38.8363636 14.08C38.1672727 14.08 37.6436364 14.6036364 37.6436364 15.2727273 37.6436364 15.9418182 38.1672727 16.4654545 38.8363636 16.4654545 39.5054545 16.4654545 40.0290909 15.9418182 40.0290909 15.2727273 40.0290909 14.6036364 39.4763636 14.08 38.8363636 14.08L38.8363636 14.08zM5.26545455 4.10181818L4.33454545 4.10181818 4.33454545 5.03272727 4.33454545 25.5418182 4.33454545 26.4727273 5.26545455 26.4727273 35.4036364 26.4727273 36.3345455 26.4727273 36.3345455 25.5418182 36.3345455 5.03272727 36.3345455 4.10181818 35.4036364 4.10181818 5.26545455 4.10181818 5.26545455 4.10181818zM34.4727273 24.5818182L6.19636364 24.5818182 6.19636364 5.93454545 34.4727273 5.93454545 34.4727273 24.5818182 34.4727273 24.5818182z"/>
    </g>
  </g>
</svg>
