<svg xmlns="http://www.w3.org/2000/svg" width="50" height="50" viewBox="0 0 50 50" xmlns:xlink="http://www.w3.org/1999/xlink">
  <defs>
    <polygon id="a" points="0 50 50 50 50 0 0 0"/>
  </defs>
  <g fill="none" fill-rule="evenodd">
    <circle cx="25" cy="25" r="25" fill="#EBEBEB"/>
    <polygon fill="#323232" points="31.769 22.875 30.517 23.375 31.018 24.627 32.269 24.127"/>
    <path fill="#656E6B" d="M35.8298,35.845 C35.1698,35.845 34.6318,35.307 34.6318,34.647 C34.6318,33.987 35.1698,33.449 35.8298,33.449 C36.4898,33.449 37.0278,33.987 37.0278,34.647 C37.0278,35.307 36.4898,35.845 35.8298,35.845"/>
    <path fill="#656E6B" d="M39.1402,34.6471 C39.1402,36.4751 37.6582,37.9571 35.8302,37.9571 L35.8302,37.9571 L35.8302,36.3471 L35.8302,36.3471 C36.7682,36.3471 37.5302,35.5861 37.5302,34.6471 C37.5302,33.7081 36.7682,32.9471 35.8302,32.9471 L35.8302,32.9471 L35.8302,31.3371 L35.8302,31.3371 C37.6582,31.3371 39.1402,32.8191 39.1402,34.6471 L39.1402,34.6471 Z M35.8302,32.9471 C34.8912,32.9471 34.1302,33.7081 34.1302,34.6471 C34.1302,35.5861 34.8912,36.3471 35.8302,36.3471 L35.8302,37.9571 C34.0012,37.9571 32.5192,36.4751 32.5192,34.6471 C32.5192,32.8191 34.0012,31.3371 35.8302,31.3371 L35.8302,32.9471 Z"/>
    <path fill="#323232" d="M38.0476,34.6471 C38.0476,35.8721 37.0546,36.8651 35.8296,36.8651 L35.8296,36.8651 L35.8296,36.3471 C36.7686,36.3471 37.5296,35.5861 37.5296,34.6471 C37.5296,33.7081 36.7686,32.9471 35.8296,32.9471 L35.8296,32.4291 L35.8296,32.4291 C37.0546,32.4291 38.0476,33.4221 38.0476,34.6471 L38.0476,34.6471 Z M35.8296,32.9471 C34.8906,32.9471 34.1296,33.7081 34.1296,34.6471 C34.1296,35.5861 34.8906,36.3471 35.8296,36.3471 L35.8296,36.8651 C34.6046,36.8651 33.6126,35.8721 33.6126,34.6471 C33.6126,33.4221 34.6046,32.4291 35.8296,32.4291 L35.8296,32.9471 Z"/>
    <polygon fill="#323232" points="34.119 33.517 33.988 33.743 35.569 34.656 33.996 35.564 34.127 35.79 35.707 34.878 35.707 36.694 35.969 36.694 35.969 34.869 37.541 35.777 37.672 35.55 36.092 34.638 37.664 33.73 37.534 33.503 35.953 34.416 35.953 32.6 35.692 32.6 35.692 34.425"/>
    <path fill="#656E6B" d="M35.067,32.2622 L34.921,32.3402 C34.89,32.3572 34.878,32.3962 34.895,32.4272 L35.56,33.6662 C35.577,33.6972 35.616,33.7092 35.648,33.6922 L35.793,33.6142 C35.824,33.5972 35.836,33.5582 35.82,33.5272 L35.154,32.2882 C35.138,32.2572 35.098,32.2452 35.067,32.2622"/>
    <path fill="#F3AA1D" d="M35.4636,32.8042 L35.1526,32.9702 C35.0856,33.0062 35.0606,33.0902 35.0966,33.1572 L36.5176,35.8022 C36.5536,35.8692 36.6376,35.8952 36.7036,35.8592 L37.0146,35.6922 C37.0816,35.6572 37.1076,35.5732 37.0716,35.5062 L35.6506,32.8612 C35.6146,32.7942 35.5306,32.7682 35.4636,32.8042"/>
    <path fill="#F3761E" d="M35.9609,29.9107 C34.1219,29.9107 32.5499,31.0567 31.9219,32.6737 L39.9999,32.6737 C39.3719,31.0567 37.7999,29.9107 35.9609,29.9107"/>
    <path fill="#F3AA1D" d="M32.6125,23.2694 C32.8425,23.1324 32.9925,23.1514 33.1535,23.3124 C34.7785,24.9344 35.9155,26.7514 36.3065,28.7754 L32.7035,33.5544 C32.3305,34.0484 31.7575,34.5224 31.1475,34.7044 L31.1475,30.8274 L31.8805,28.8144 L31.1475,26.9504 L31.1475,23.9654 L32.6125,23.2694 Z M31.2935,20.4724 L31.1475,20.5484 L31.1475,23.8064 L32.5465,23.1394 C32.6985,23.0674 32.7745,23.0444 32.7795,22.9334 C33.3745,22.1234 33.3755,21.3544 32.8375,20.6204 L31.2935,20.4724 Z M30.2675,24.7144 C30.2105,24.5694 30.3235,24.3574 30.4635,24.2904 L31.1475,23.9654 L31.1475,26.9504 L30.2675,24.7144 Z M31.1475,34.7044 C30.9105,34.7754 30.6695,34.8014 30.4315,34.7684 L24.0085,33.8674 C23.5025,33.7964 23.0765,33.4064 22.7155,33.0444 L21.2665,31.5954 L13.1585,29.7154 C13.5345,27.7914 15.0485,25.9944 15.9355,26.1234 L25.8095,27.5614 L25.3005,29.4414 C25.0495,30.3704 25.3865,31.1574 26.1045,31.2684 L29.4915,31.7914 C30.0385,31.8764 30.9095,31.4804 31.1345,30.8624 L31.1475,30.8274 L31.1475,34.7044 Z M31.1475,23.8064 L31.1475,20.5484 L29.0605,21.6474 L29.9905,24.0094 C30.0465,24.1514 30.2895,24.2154 30.4275,24.1494 L31.1475,23.8064 Z"/>
    <path fill="#323232" d="M31.2933,20.472 L32.8383,20.621 C33.3753,21.354 33.3743,22.124 32.7793,22.933 C32.1603,22.315 32.6833,21.367 31.2933,20.472"/>
    <path fill="#656E6B" d="M16.3867,35.845 C15.7267,35.845 15.1887,35.307 15.1887,34.647 C15.1887,33.987 15.7267,33.449 16.3867,33.449 C17.0467,33.449 17.5847,33.987 17.5847,34.647 C17.5847,35.307 17.0467,35.845 16.3867,35.845"/>
    <path fill="#656E6B" d="M19.6971,34.6471 C19.6971,36.4751 18.2151,37.9571 16.3871,37.9571 L16.3871,36.3471 C17.3261,36.3471 18.0871,35.5861 18.0871,34.6471 C18.0871,33.7081 17.3261,32.9471 16.3871,32.9471 L16.3871,31.3371 C18.2151,31.3371 19.6971,32.8191 19.6971,34.6471 L19.6971,34.6471 Z M16.3871,32.9471 C15.4481,32.9471 14.6871,33.7081 14.6871,34.6471 C14.6871,35.5861 15.4481,36.3471 16.3871,36.3471 L16.3871,37.9571 C14.5581,37.9571 13.0761,36.4751 13.0761,34.6471 C13.0761,32.8191 14.5581,31.3371 16.3871,31.3371 L16.3871,32.9471 Z"/>
    <path fill="#323232" d="M18.6044,34.6471 C18.6044,35.8721 17.6114,36.8651 16.3864,36.8651 L16.3864,36.3471 C17.3254,36.3471 18.0864,35.5861 18.0864,34.6471 C18.0864,33.7081 17.3254,32.9471 16.3864,32.9471 L16.3864,32.4291 C17.6114,32.4291 18.6044,33.4221 18.6044,34.6471 L18.6044,34.6471 Z M16.3864,32.9471 C15.4474,32.9471 14.6864,33.7081 14.6864,34.6471 C14.6864,35.5861 15.4474,36.3471 16.3864,36.3471 L16.3864,36.8651 C15.1614,36.8651 14.1694,35.8721 14.1694,34.6471 C14.1694,33.4221 15.1614,32.4291 16.3864,32.4291 L16.3864,32.9471 Z"/>
    <polygon fill="#323232" points="14.675 33.517 14.544 33.743 16.125 34.656 14.552 35.564 14.683 35.79 16.263 34.878 16.263 36.694 16.525 36.694 16.525 34.869 18.097 35.777 18.228 35.55 16.648 34.638 18.22 33.73 18.09 33.503 16.509 34.416 16.509 32.6 16.248 32.6 16.248 34.425"/>
    <path fill="#323232" d="M32.6952,33.5648 L32.5092,33.8928 C32.0922,34.6268 31.2872,35.3598 30.4312,35.3198 L23.9672,35.0218 C23.4582,34.9988 22.9852,34.6478 22.5792,34.3208 L20.9522,33.0078 L13.5242,32.0018 C14.2872,31.2108 15.3232,30.7398 16.4152,30.4708 L21.2662,31.5958 L22.7152,33.0448 C23.0772,33.4058 23.5022,33.7968 24.0082,33.8678 L30.4312,34.7678 C31.2772,34.8868 32.1772,34.2468 32.6952,33.5648"/>
    <mask id="b" fill="white">
      <use xlink:href="#a"/>
    </mask>
    <polygon fill="#323232" points="30.24 21.239 30.429 21.239 30.429 19.202 30.24 19.202" mask="url(#b)"/>
    <path fill="#323232" d="M30.4285,18.6722 L30.2395,18.6722 C30.1765,18.6722 30.1255,18.7232 30.1255,18.7862 L30.1255,19.0892 C30.1255,19.1512 30.1765,19.2022 30.2395,19.2022 L30.4285,19.2022 C30.4915,19.2022 30.5425,19.1512 30.5425,19.0892 L30.5425,18.7862 C30.5425,18.7232 30.4915,18.6722 30.4285,18.6722" mask="url(#b)"/>
    <polygon fill="#323232" points="29.784 19.032 30.125 19.032 30.125 18.843 29.784 18.843" mask="url(#b)"/>
    <path fill="#F3761E" d="M29.2899,18.2288 C29.2269,18.4078 29.1869,18.6588 29.1869,18.9378 C29.1869,19.2158 29.2269,19.4668 29.2899,19.6458 C29.6159,19.5748 29.8599,19.2848 29.8599,18.9378 C29.8599,18.5898 29.6159,18.2998 29.2899,18.2288" mask="url(#b)"/>
    <path fill="#323232" d="M30.5763,22.5449 C30.0003,22.5449 29.5303,22.2229 29.5303,21.8279 C29.5303,21.4329 30.0003,21.1109 30.5763,21.1109 C31.1523,21.1109 31.6223,21.4329 31.6223,21.8279 C31.6223,22.2229 31.1523,22.5449 30.5763,22.5449" mask="url(#b)"/>
    <path fill="#F3AA1D" d="M30.5997,22.211 C30.3887,22.211 30.2167,22.039 30.2167,21.828 C30.2167,21.617 30.3887,21.444 30.5997,21.444 C30.8107,21.444 30.9827,21.617 30.9827,21.828 C30.9827,22.039 30.8107,22.211 30.5997,22.211" mask="url(#b)"/>
    <path fill="#656E6B" d="M30.6082,21.5811 L28.9742,21.5811 C28.8392,21.5811 28.7282,21.6921 28.7282,21.8281 L28.7282,21.8281 C28.7282,21.9631 28.8392,22.0741 28.9742,22.0741 L30.6082,22.0741 C30.7442,22.0741 30.8552,21.9631 30.8552,21.8281 L30.8552,21.8281 C30.8552,21.6921 30.7442,21.5811 30.6082,21.5811" mask="url(#b)"/>
    <path fill="#323232" d="M28.9875 21.993C28.8965 21.993 28.8225 21.919 28.8225 21.828 28.8225 21.737 28.8965 21.662 28.9875 21.662 29.0785 21.662 29.1525 21.737 29.1525 21.828 29.1525 21.919 29.0785 21.993 28.9875 21.993M26.0294 27.3838C25.8964 27.5048 25.8554 27.5678 25.4534 27.5098 25.0514 27.4508 17.1134 26.2948 17.1134 26.2948 17.1134 26.2948 16.3044 26.2538 16.2044 26.0038 16.1054 25.7538 16.3044 24.6298 16.5424 24.5428 16.6594 24.4998 16.3974 24.5208 17.3354 24.5868 18.2924 24.6538 19.2714 24.5958 19.4474 24.6468 19.7974 24.7468 20.6464 25.2088 21.8084 25.2958 22.9704 25.3838 25.0434 25.2708 25.3554 25.3838 25.8884 25.5758 26.2974 27.1388 26.0294 27.3838" mask="url(#b)"/>
    <path fill="#323232" d="M16.0587,25.7168 L10.2407,24.8828 C10.1247,24.8668 9.9997,24.9458 9.9997,25.0628 L9.9997,25.0628 C9.9997,25.1788 10.0637,25.2868 10.1797,25.3028 L17.0917,26.2938 C18.0397,26.4288 16.2557,25.7448 16.0587,25.7168" mask="url(#b)"/>
    <path fill="#F3761E" d="M21.9829,32.3121 L21.5259,31.8551 L29.6549,32.8901 C30.4589,32.9921 31.3109,32.3911 31.7989,31.7441 L34.2249,28.5271 C33.8849,26.7701 32.9219,25.2051 31.6019,23.7501 L31.8929,23.6111 C33.3009,25.1581 34.3279,26.8231 34.6899,28.6921 L32.1189,32.1011 C31.6029,32.7871 30.6989,33.4241 29.8479,33.3151 L21.9829,32.3121 Z" mask="url(#b)"/>
    <path fill="#FCC556" d="M21.2664,31.5956 C22.0614,31.5006 22.7264,31.3136 23.4924,30.0366 C24.0174,29.1606 24.5724,27.9336 23.1894,27.5296 C21.7684,27.1146 18.5134,26.5186 16.5794,27.0666 C14.6174,27.6236 13.5524,28.8376 13.3264,29.7546 L21.2664,31.5956 Z" mask="url(#b)"/>
    <path fill="#F3AA1D" d="M20.9948,31.3491 C21.7058,31.2641 22.3008,31.0971 22.9868,29.9541 C23.4568,29.1701 23.9528,28.0721 22.7158,27.7101 C21.4438,27.3391 18.5308,26.8061 16.8008,27.2961 C14.9858,27.8101 14.0288,28.9531 13.8718,29.7821 C13.8648,29.8151 13.8678,29.8481 13.8768,29.8821 L20.3928,31.3931 C20.6058,31.3861 20.8078,31.3711 20.9948,31.3491" mask="url(#b)"/>
    <polygon fill="#F3761E" points="21.922 30.5 16.034 29.135 15.993 29.314 21.88 30.68" mask="url(#b)"/>
    <polygon fill="#F3761E" points="22.016 30.17 16.128 28.805 16.087 28.985 21.974 30.35" mask="url(#b)"/>
    <polygon fill="#F3761E" points="22.11 29.84 16.222 28.475 16.181 28.655 22.068 30.02" mask="url(#b)"/>
    <path fill="#323232" d="M13.3264,29.7544 L11.7564,32.8004 L11.8954,32.9084 C11.8954,32.9084 12.3724,32.7854 12.3724,32.6314 C12.3724,32.4774 14.0904,29.9314 14.0904,29.9314 L13.3264,29.7544 Z" mask="url(#b)"/>
    <path fill="#FFFFFF" d="M32.838,20.6209 C33.375,21.3549 33.375,22.1239 32.779,22.9329 C32.79,22.9449 32.801,22.9549 32.812,22.9649 L32.779,22.9329 C32.139,22.2309 32.568,20.8259 32.838,20.6209" mask="url(#b)"/>
    <path fill="#CFEEFF" d="M32.9697,20.8195 C33.3347,21.4325 33.3267,22.0705 32.9127,22.7355 C32.5687,22.1335 32.7547,21.2335 32.9697,20.8195" mask="url(#b)"/>
    <path fill="#FFFFFF" d="M29.2899,18.2288 C29.2269,18.4078 29.1869,18.6588 29.1869,18.9378 C29.1869,19.2158 29.2269,19.4668 29.2899,19.6458 C29.3529,19.4668 29.3929,19.2158 29.3929,18.9378 C29.3929,18.6588 29.3529,18.4078 29.2899,18.2288" mask="url(#b)"/>
    <path fill="#F3761E" d="M21.0246,34.2888 C21.5276,34.1418 21.8156,33.6158 21.6696,33.1128 C21.5226,32.6108 20.9966,32.3218 20.4936,32.4688 L16.3276,33.1228 L16.3276,33.1228 C16.2076,33.1288 16.0866,33.1478 15.9666,33.1828 C15.1556,33.4198 14.6896,34.2688 14.9256,35.0798 C15.1626,35.8908 16.0116,36.3558 16.8226,36.1198 C16.9426,36.0848 17.0556,36.0358 17.1586,35.9758 L17.1586,35.9758 L21.0246,34.2888 Z" mask="url(#b)"/>
    <path fill="#F3AA1D" d="M20.6006 32.8346C20.3006 32.9226 20.1276 33.2366 20.2156 33.5376 20.3026 33.8376 20.6176 34.0106 20.9176 33.9226 21.2186 33.8346 21.3906 33.5206 21.3036 33.2196 21.2156 32.9196 20.9006 32.7466 20.6006 32.8346M16.1309 33.7708C15.6469 33.9118 15.3679 34.4188 15.5099 34.9038 15.6509 35.3878 16.1579 35.6658 16.6419 35.5248 17.1269 35.3838 17.4049 34.8768 17.2639 34.3918 17.1229 33.9078 16.6149 33.6298 16.1309 33.7708" mask="url(#b)"/>
    <path fill="#E8B185" d="M27.094,23.3057 L27.053,23.3057 C26.377,23.3057 26.096,23.7887 26.126,24.4637 L26.379,30.0717 L27.663,30.2697 L28.323,24.5347 C28.401,23.8637 27.77,23.3057 27.094,23.3057" mask="url(#b)"/>
    <path fill="#E8B185" d="M20.2815,23.742 L20.2735,23.782 C20.1445,24.446 20.5725,25.201 21.2465,25.251 L26.9345,25.674 L27.0935,23.306 L21.7225,22.769 C20.8025,22.677 21.9305,14.891 20.2815,23.742" mask="url(#b)"/>
    <path fill="#323232" d="M27.7958,30.2902 C28.5438,30.4422 29.6118,30.8912 29.4918,31.7912 L26.1968,31.2822 L26.3788,30.0712 L27.7958,30.2902 Z" mask="url(#b)"/>
    <path fill="#F9D7D4" d="M23.6086,17.0705 C23.6926,16.6705 23.9246,16.2505 24.5336,16.2295 C24.7926,16.2205 24.9026,15.9805 24.7436,15.7735 C24.6936,15.7085 24.9506,15.6865 24.7866,15.5435 C24.7216,15.4865 24.9276,15.4625 24.8536,15.3605 C24.7126,15.1675 24.8286,15.2125 24.9126,15.1775 C25.1126,15.0945 24.8416,14.7995 24.7576,14.5895 C24.6736,14.3785 24.6806,14.0425 24.6806,13.8325 C24.6806,13.6215 21.8216,13.2435 22.0106,14.2525 C22.1996,15.2615 22.8306,16.3765 22.6416,16.9655 C22.4516,17.5545 23.3776,17.7645 23.6086,17.0705" mask="url(#b)"/>
    <path fill="#183953" d="M22.6596,16.6311 C21.6486,16.6421 21.2796,17.5041 21.0896,18.4221 C20.8786,19.4431 20.6286,22.1721 20.4806,22.8331 C20.3366,23.4791 23.1896,23.7061 24.0046,23.0611 C24.4986,22.6701 23.9886,20.8731 24.2416,19.5601 C24.3696,18.9011 24.2166,17.1641 23.6226,16.8591 C23.3956,17.0541 22.8706,17.0381 22.6596,16.6311" mask="url(#b)"/>
    <path fill="#F9D7D4" d="M22.6879,18.6635 L22.6879,18.6635 C22.4389,18.9125 22.2849,19.2565 22.4869,19.5445 L24.4649,22.3635 C24.6669,22.6515 25.0309,22.7215 25.3459,22.5645 C25.6599,22.4075 25.7489,21.9715 25.5469,21.6835 L23.5689,18.8645 C23.3669,18.5775 22.9859,18.4765 22.6879,18.6635" mask="url(#b)"/>
    <path fill="#FFFFFF" d="M22.1998,17.8864 L22.1998,17.8864 C21.7568,18.1644 21.6228,18.7544 21.9008,19.1964 L22.5448,20.2234 L24.1548,19.2124 L23.5098,18.1854 C23.2318,17.7434 22.6428,17.6084 22.1998,17.8864" mask="url(#b)"/>
    <path fill="#F9D7D4" d="M28.1065,21.125 L24.9565,21.458 C24.6065,21.495 24.5545,21.916 24.5545,22.267 L24.5545,22.268 C24.5545,22.619 25.0295,22.777 25.3635,22.669 L28.2495,21.743 C29.0545,21.484 28.9475,21.036 28.1065,21.125" mask="url(#b)"/>
    <path fill="#F9D7D4" d="M28.2356,21.1174 C29.0216,21.0304 29.6426,21.1454 29.6946,21.8544 C29.7466,22.5644 29.3286,22.0084 29.2966,21.8024 C29.2686,21.6214 28.9216,21.4434 28.7406,21.7334 C28.4746,22.1574 28.2626,21.7254 27.9316,21.8294 C27.6036,21.9324 27.6516,21.1814 28.2356,21.1174" mask="url(#b)"/>
    <path fill="#9E4B0F" d="M24.8428,13.4395 C24.8428,13.7545 24.4598,14.1715 23.8978,14.4415 C23.3348,14.7115 22.3218,15.4425 22.4118,15.6795 C22.5018,15.9155 21.6128,15.4315 21.5228,14.4415 C21.4328,13.4505 23.9758,11.7625 24.8428,13.4395" mask="url(#b)"/>
    <path fill="#323232" d="M23.7277,16.9749 C23.5647,16.8379 23.3157,16.2629 23.1027,15.9359 L23.1007,15.9329 L23.0737,15.8929 L23.0517,15.8609 L23.0287,15.8279 L23.0037,15.7939 L22.9997,15.7889 C22.9857,15.7699 22.9717,15.7519 22.9587,15.7339 L22.9497,15.7229 L22.9277,15.6939 L22.9007,15.6619 L22.8757,15.6309 L22.8497,15.6009 C22.8337,15.5819 22.8177,15.5639 22.8007,15.5459 L22.7977,15.5419 L22.7917,15.5359 L22.7707,15.5129 L22.7447,15.4859 L22.7167,15.4579 L22.6877,15.4289 C22.6707,15.4129 22.6547,15.3969 22.6377,15.3819 L22.6347,15.3789 L22.6077,15.3549 C22.5897,15.3389 22.5717,15.3239 22.5537,15.3089 L22.5517,15.3069 C22.5347,15.2929 22.5177,15.2789 22.5007,15.2659 L22.4947,15.2619 C22.1427,14.9889 21.7667,14.8729 21.4127,14.9159 C21.2857,14.6529 21.2147,14.3579 21.2147,14.0459 C21.2147,12.9399 22.1117,12.0429 23.2177,12.0429 C24.1307,12.0429 24.8997,12.6529 25.1417,13.4869 C23.6757,14.0709 23.4387,14.7269 24.0087,16.5529 C23.8747,16.6659 23.7857,16.8159 23.7277,16.9749" mask="url(#b)"/>
    <path fill="#55615D" d="M23.2265,12.2124 C23.9025,12.2264 24.5105,12.5874 24.7765,13.1604 C24.9055,13.4384 24.6335,13.5124 24.5105,13.2854 C24.2645,12.8324 23.7745,12.5224 23.2215,12.5334 C22.8105,12.5414 22.8325,12.2044 23.2265,12.2124" mask="url(#b)"/>
    <polygon fill="#ED402F" points="17.011 19.7 10.981 18.836 10.117 24.866 16.147 25.729" mask="url(#b)"/>
    <polygon fill="#991F1A" points="16.539 22.643 10.509 21.779 10.117 24.865 16.146 25.729" mask="url(#b)"/>
  </g>
</svg>
