<?xml version="1.0" standalone="no"?>
<!DOCTYPE svg PUBLIC "-//W3C//DTD SVG 20010904//EN"
 "http://www.w3.org/TR/2001/REC-SVG-20010904/DTD/svg10.dtd">
<svg version="1.0" xmlns="http://www.w3.org/2000/svg"
 width="64.000000pt" height="64.000000pt" viewBox="0 0 64.000000 64.000000"
 preserveAspectRatio="xMidYMid meet">
<metadata>
Created by potrace 1.11, written by Peter Selinger 2001-2013
</metadata>
<g transform="translate(0.000000,64.000000) scale(0.100000,-0.100000)"
fill="#000000" stroke="none">
<path d="M226 483 c-6 -20 -25 -105 -32 -143 -3 -14 -10 -45 -15 -70 -6 -25
-13 -56 -15 -70 -3 -14 -7 -33 -10 -42 -4 -15 2 -17 39 -16 l45 0 22 107 c29
136 34 149 67 163 16 7 31 17 36 23 10 13 58 -41 51 -59 -3 -7 -19 -23 -36
-36 -24 -18 -30 -19 -25 -7 10 25 -16 21 -42 -7 -27 -28 -23 -52 14 -86 24
-23 25 -23 25 -3 0 16 8 22 39 27 21 3 49 17 64 32 32 32 45 101 27 145 -19
45 -56 59 -159 59 -77 0 -90 -3 -95 -17z"/>
</g>
</svg>
